<?xml version="1.0" standalone="no"?>
<!DOCTYPE svg PUBLIC "-//W3C//DTD SVG 20010904//EN"
 "http://www.w3.org/TR/2001/REC-SVG-20010904/DTD/svg10.dtd">
<svg version="1.0" xmlns="http://www.w3.org/2000/svg"
 width="700.000000pt" height="700.000000pt" viewBox="0 0 700.000000 700.000000"
 preserveAspectRatio="xMidYMid meet">
<metadata>
Created by potrace 1.11, written by Peter Selinger 2001-2013
</metadata>
<g transform="translate(0.000000,700.000000) scale(0.100000,-0.100000)"
fill="#000000" stroke="none">
<path d="M2354 5975 c-181 -61 -327 -190 -379 -335 -14 -38 -19 -74 -24 -181
-1 -9 -29 -63 -64 -120 -34 -57 -75 -131 -91 -164 -33 -70 -108 -262 -107
-272 0 -2 -6 -21 -14 -44 -79 -222 -90 -482 -36 -829 45 -286 152 -749 218
-940 51 -148 62 -176 101 -265 21 -49 47 -115 57 -145 10 -30 26 -71 35 -90
10 -19 20 -58 23 -85 3 -28 12 -68 21 -89 9 -21 18 -48 20 -60 4 -21 21 -100
52 -238 23 -104 24 -201 3 -323 -21 -125 -38 -179 -85 -275 -73 -151 -89 -201
-93 -289 -4 -101 60 -235 138 -287 21 -13 95 -45 166 -70 104 -36 151 -47 240
-55 183 -17 221 -18 445 -19 292 0 377 8 479 46 91 34 104 32 159 -26 62 -65
121 -90 226 -95 185 -9 334 75 404 228 32 70 49 81 447 292 305 162 463 252
550 314 44 31 159 109 255 173 166 110 309 212 374 268 17 14 64 54 105 89
183 154 346 343 400 462 87 193 52 385 -93 503 -24 20 -113 70 -199 111 -193
92 -306 161 -393 240 -109 97 -464 499 -464 524 0 6 -11 18 -25 27 -14 9 -25
22 -25 30 0 7 -16 28 -35 45 -19 18 -35 36 -35 41 0 5 -46 73 -103 151 -57 78
-124 171 -150 207 -361 503 -539 698 -917 1006 -160 130 -340 234 -490 285
-84 28 -295 79 -390 94 -25 4 -54 9 -65 11 -50 9 -96 14 -168 18 -99 6 -107 9
-138 54 -63 91 -199 123 -335 77z m3838 -3017 c72 -45 93 -87 92 -178 -1 -86
-26 -153 -48 -129 -7 8 -21 37 -31 64 -10 28 -21 54 -25 58 -15 17 -40 -8 -76
-76 -70 -133 -172 -281 -255 -368 -90 -93 -327 -269 -519 -384 -63 -37 -131
-78 -150 -90 -67 -42 -155 -93 -215 -125 -33 -18 -80 -43 -105 -57 -186 -102
-606 -315 -648 -328 -17 -5 -29 0 -48 19 -14 13 -65 45 -112 70 -48 24 -105
58 -128 74 -38 28 -43 37 -68 128 -32 121 -66 269 -71 309 -2 17 -10 43 -18
59 -8 15 -13 39 -11 53 3 14 1 30 -5 37 -5 6 -11 28 -12 48 -3 29 2 42 24 62
15 14 27 32 27 40 0 24 479 248 820 382 47 19 92 38 100 42 8 5 42 17 75 26
33 10 74 23 90 29 17 7 38 10 47 9 10 -2 66 12 125 31 130 42 289 78 407 92
28 4 52 8 55 10 26 15 386 25 471 12 128 -19 179 -20 186 -4 6 17 -22 67 -39
67 -14 0 -36 32 -37 52 0 15 4 16 28 7 15 -6 48 -24 74 -41z m-2647 -988 c38
-142 42 -159 49 -187 28 -108 78 -301 82 -314 3 -10 -12 -33 -36 -58 -87 -89
-134 -187 -145 -300 -5 -51 -6 -53 -106 -86 -182 -61 -397 -87 -541 -64 -29 5
-69 11 -88 14 -109 17 -257 79 -301 126 -57 61 -32 157 78 295 92 116 217 240
340 337 40 32 93 77 118 101 26 24 59 50 73 57 15 8 65 39 112 69 152 99 301
169 322 151 5 -4 24 -67 43 -141z"/>
</g>
</svg>
