<svg width="202" height="32" viewBox="0 0 202 32" fill="none" xmlns="http://www.w3.org/2000/svg">
<g clip-path="url(#clip0)">
<path d="M11.8297 0.708817H16.172L19.754 20.3217H19.84L22.7819 0.708817H27.7368L22.3209 31.5045H17.8925L14.0456 11.1587H13.9596L10.3776 31.5045H5.94236L0.0928955 0.708817H5.04773L8.28903 20.3217H8.37505L11.8297 0.708817Z" fill="black"/>
<path d="M28.972 0.708817H36.8172C42.4912 0.708817 45.0065 3.60946 45.0065 8.85677C45.0065 11.5028 43.8985 14.2727 41.3385 15.2981C44.0258 16.492 45.6052 18.6254 45.6052 22.5892C45.6052 27.668 43.3445 31.5045 37.3299 31.5045H28.972V0.708817ZM34.2641 13.3333H36.1806C38.1867 13.3333 39.7213 11.957 39.7213 9.41075C39.7213 6.55484 38.6133 5.0615 36.2804 5.0615H34.2779L34.2641 13.3333ZM34.2641 27.1553H36.4731C39.2877 27.1553 40.3131 25.5346 40.3131 22.4206C40.3131 19.3067 39.126 17.686 35.9673 17.686H34.2469L34.2641 27.1553Z" fill="black"/>
<path d="M48.172 31.5045V0.708817H62.3346V5.31613H53.4572V13.2507H60.2804V17.8581H53.4572V26.8972H62.923V31.5045H48.172Z" fill="black"/>
<path d="M65.483 5.31613V0.708817H79.4838V5.74279L69.7462 26.8972H79.4838V31.5045H64.289V26.474L74.1402 5.31613H65.483Z" fill="black"/>
<path d="M92.4387 10.9901V8.60215C92.4387 5.99742 91.2447 4.88946 89.8787 4.88946C87.7453 4.88946 87.064 5.99742 87.064 8.3028V23.914C87.064 26.2159 87.7522 27.3239 89.8787 27.3239C91.7987 27.3239 92.4387 26.2159 92.4387 24.2271V20.5006H97.7204V24.0413C97.7204 28.3905 95.1604 31.9312 89.8718 31.9312C84.3251 31.9312 81.7686 28.3905 81.7686 24.0413V8.17548C81.7686 3.8228 84.3251 0.28215 89.8718 0.28215C95.1673 0.28215 97.7204 4.12903 97.7204 8.72946V10.9901H92.4387Z" fill="#ED0000"/>
<path d="M100.969 31.5045V0.708817H106.257V13.2507H111.886V0.708817H117.175V31.5045H111.886V17.8581H106.257V31.5045H100.969Z" fill="#ED0000"/>
<path d="M120.884 31.5045V0.708817H126.173V31.5045H120.884Z" fill="#ED0000"/>
<path d="M140.549 10.9901V8.60215C140.549 5.99742 139.355 4.88946 137.989 4.88946C135.855 4.88946 135.174 5.99742 135.174 8.3028V23.914C135.174 26.2159 135.862 27.3239 137.989 27.3239C139.909 27.3239 140.549 26.2159 140.549 24.2271V20.5006H145.837V24.0413C145.837 28.3905 143.277 31.9312 137.989 31.9312C132.446 31.9312 129.886 28.3905 129.886 24.0413V8.17548C129.886 3.8228 132.446 0.28215 137.989 0.28215C143.277 0.28215 145.837 4.12215 145.837 8.72946V10.9901H140.549Z" fill="#ED0000"/>
<path d="M152.148 31.5045H147.031L152.702 0.708817H159.271L164.944 31.5045H159.828L158.889 24.6813H153.087L152.148 31.5045ZM153.868 20.074H158.135L156.043 6.85075H155.957L153.868 20.074Z" fill="#ED0000"/>
<path d="M173.175 15.8933H181.836V31.5045H179.269L178.288 29.2026C176.709 31.0779 175.429 31.9312 172.955 31.9312C168.774 31.9312 165.874 28.9445 165.874 24.0413V8.17548C165.874 3.8228 168.434 0.28215 173.636 0.28215C178.925 0.28215 181.578 4.12903 181.578 8.72946V10.6908H176.544C176.544 6.08344 175.608 4.88946 173.516 4.88946C172.236 4.88946 171.172 5.65677 171.172 8.25806V24.086C171.172 26.0508 171.809 27.3273 173.643 27.3273C175.776 27.3273 176.544 26.1333 176.544 23.0641V20.074H173.175V15.8933Z" fill="#ED0000"/>
<path d="M185.074 8.17548C185.074 3.8228 187.634 0.28215 193.18 0.28215C198.727 0.28215 201.29 3.8228 201.29 8.17548V24.0413C201.29 28.3905 198.73 31.9312 193.187 31.9312C187.644 31.9312 185.08 28.3905 185.08 24.0413L185.074 8.17548ZM190.362 23.914C190.362 26.2159 191.05 27.3239 193.18 27.3239C195.31 27.3239 195.995 26.2159 195.995 23.914V8.3028C195.995 5.99742 195.307 4.88946 193.18 4.88946C191.054 4.88946 190.362 5.99742 190.362 8.3028V23.914Z" fill="#ED0000"/>
</g>
<defs>
<clipPath id="clip0">
<rect width="201.634" height="32" fill="white"/>
</clipPath>
</defs>
</svg>
