<?xml version="1.0" encoding="utf-8"?>
<!-- Generator: Adobe Illustrator 25.1.0, SVG Export Plug-In . SVG Version: 6.00 Build 0)  -->
<svg version="1.1" id="Layer_1" xmlns="http://www.w3.org/2000/svg" xmlns:xlink="http://www.w3.org/1999/xlink" x="0px" y="0px"
	 viewBox="0 0 432 432" style="enable-background:new 0 0 432 432;" xml:space="preserve">
<style type="text/css">
	.st0{fill:#1A1A1C;}
	.st1{fill:#7872B4;}
	.st2{fill:#8674F5;}
	.st3{fill:#FFFFFF;}
</style>
<g>
	<path class="st0" d="M59.01,280.63L47.79,170.68h26.07l4.53,58.54c0.12,3.74,0.18,8,0.18,12.76c0,4.77-0.12,8.84-0.36,12.22h0.72
		c1.21-3.98,2.65-8.12,4.35-12.4c1.69-4.28,3.5-8.48,5.43-12.58l38.02-77.85h27.88L88.52,280.63H59.01z"/>
	<path class="st0" d="M139.63,280.63l23.05-108.98h60.9l-3.97,18.93h-38.16l-5.04,23.96h35.56l-4.12,18.93h-35.56l-5.95,28.08h38.16
		l-3.97,19.08H139.63z"/>
	<path class="st0" d="M218.73,280.63l23.05-108.98h60.9l-3.97,18.93h-38.16l-5.04,23.96h35.56l-4.12,18.93h-35.56l-5.95,28.08h38.16
		l-3.97,19.08H218.73z"/>
	<path class="st0" d="M299.04,280.63l23.05-108.98h26.71c10.89,0,19.51,2.34,25.87,7.02c6.36,4.68,9.54,12.31,9.54,22.89
		c0,8.65-2.29,15.7-6.87,21.14c-4.58,5.44-10.28,9.34-17.09,11.68l19.38,46.25h-24.73l-15.42-41.82h-8.85l-8.85,41.82H299.04z
		 M334.61,220.04h5.8c6.51,0,11.57-1.42,15.19-4.27c3.61-2.85,5.42-7.17,5.42-12.97c0-8.14-4.88-12.21-14.65-12.21h-5.5
		L334.61,220.04z"/>
</g>
</svg>
