<svg version="1.1" viewBox="0.0 0.0 960.0 540.0" fill="none" stroke="none" stroke-linecap="square" stroke-miterlimit="10" xmlns:xlink="http://www.w3.org/1999/xlink" xmlns="http://www.w3.org/2000/svg"><clipPath id="g1059cfd8fcb_3_119.0"><path d="m0 0l960.0 0l0 540.0l-960.0 0l0 -540.0z" clip-rule="nonzero"/></clipPath><g clip-path="url(#g1059cfd8fcb_3_119.0)"><path fill="#ffffff" d="m0 0l960.0 0l0 540.0l-960.0 0z" fill-rule="evenodd"/><path fill="#25b2d5" d="m-0.8976378 0.8976378l960.0 0l0 105.95276l-960.0 0z" fill-rule="evenodd"/><path fill="#000000" fill-opacity="0.0" d="m32.72441 46.721786l894.55115 0l0 60.125984l-894.55115 0z" fill-rule="evenodd"/><path fill="#ffffff" d="m58.490036 83.80591l-8.796875 0l-1.421875 4.171875l-6.015625 0l8.53125 -23.578125l6.65625 0l8.53125 23.578125l-6.078125 0l-1.40625 -4.171875zm-1.484375 -4.421875l-2.921875 -8.640625l-2.890625 8.640625l5.8125 0zm10.41478 -0.8125q0 -2.890625 1.09375 -5.0625q1.09375 -2.1875 2.96875 -3.359375q1.890625 -1.1875 4.203125 -1.1875q1.84375 0 3.375 0.78125q1.53125 0.765625 2.40625 2.078125l0 -8.703125l5.75 0l0 24.859375l-5.75 0l0 -2.6875q-0.8125 1.34375 -2.3125 2.15625q-1.484375 0.796875 -3.46875 0.796875q-2.3125 0 -4.203125 -1.1875q-1.875 -1.1875 -2.96875 -3.390625q-1.09375 -2.203125 -1.09375 -5.09375zm14.046875 0.03125q0 -2.140625 -1.203125 -3.390625q-1.1875 -1.25 -2.890625 -1.25q-1.71875 0 -2.921875 1.234375q-1.1875 1.21875 -1.1875 3.375q0 2.15625 1.1875 3.421875q1.203125 1.25 2.921875 1.25q1.703125 0 2.890625 -1.234375q1.203125 -1.25 1.203125 -3.40625zm8.763214 -0.03125q0 -2.890625 1.09375 -5.0625q1.09375 -2.1875 2.96875 -3.359375q1.890625 -1.1875 4.203125 -1.1875q1.84375 0 3.375 0.78125q1.53125 0.765625 2.40625 2.078125l0 -8.703125l5.75 0l0 24.859375l-5.75 0l0 -2.6875q-0.8125 1.34375 -2.3125 2.15625q-1.484375 0.796875 -3.46875 0.796875q-2.3125 0 -4.203125 -1.1875q-1.875 -1.1875 -2.96875 -3.390625q-1.09375 -2.203125 -1.09375 -5.09375zm14.046875 0.03125q0 -2.140625 -1.203125 -3.390625q-1.1875 -1.25 -2.890625 -1.25q-1.71875 0 -2.921875 1.234375q-1.1875 1.21875 -1.1875 3.375q0 2.15625 1.1875 3.421875q1.203125 1.25 2.921875 1.25q1.703125 0 2.890625 -1.234375q1.203125 -1.25 1.203125 -3.40625zm12.794464 -11.3125q-1.515625 0 -2.46875 -0.890625q-0.953125 -0.890625 -0.953125 -2.203125q0 -1.34375 0.953125 -2.234375q0.953125 -0.890625 2.46875 -0.890625q1.484375 0 2.4375 0.890625q0.953125 0.890625 0.953125 2.234375q0 1.3125 -0.953125 2.203125q-0.953125 0.890625 -2.4375 0.890625zm2.859375 1.9375l0 18.75l-5.75 0l0 -18.75l5.75 0zm14.613251 13.875l0 4.875l-2.921875 0q-3.125 0 -4.875 -1.53125q-1.75 -1.53125 -1.75 -4.984375l0 -7.453125l-2.28125 0l0 -4.78125l2.28125 0l0 -4.5625l5.75 0l0 4.5625l3.765625 0l0 4.78125l-3.765625 0l0 7.515625q0 0.84375 0.40625 1.21875q0.40625 0.359375 1.34375 0.359375l2.046875 0zm6.076523 -15.8125q-1.515625 0 -2.46875 -0.890625q-0.953125 -0.890625 -0.953125 -2.203125q0 -1.34375 0.953125 -2.234375q0.953125 -0.890625 2.46875 -0.890625q1.484375 0 2.4375 0.890625q0.953125 0.890625 0.953125 2.234375q0 1.3125 -0.953125 2.203125q-0.953125 0.890625 -2.4375 0.890625zm2.859375 1.9375l0 18.75l-5.75 0l0 -18.75l5.75 0zm12.691376 19.015625q-2.75 0 -4.953125 -1.171875q-2.203125 -1.171875 -3.46875 -3.359375q-1.25 -2.1875 -1.25 -5.109375q0 -2.890625 1.28125 -5.078125q1.28125 -2.203125 3.484375 -3.375q2.21875 -1.1875 4.984375 -1.1875q2.75 0 4.96875 1.1875q2.21875 1.171875 3.484375 3.375q1.28125 2.1875 1.28125 5.078125q0 2.890625 -1.296875 5.09375q-1.28125 2.203125 -3.515625 3.375q-2.234375 1.171875 -5.0 1.171875zm0 -4.96875q1.65625 0 2.8125 -1.203125q1.15625 -1.21875 1.15625 -3.46875q0 -2.25 -1.125 -3.453125q-1.125 -1.21875 -2.765625 -1.21875q-1.6875 0 -2.796875 1.203125q-1.109375 1.1875 -1.109375 3.46875q0 2.25 1.09375 3.46875q1.09375 1.203125 2.734375 1.203125zm24.28978 -14.25q3.296875 0 5.265625 2.140625q1.96875 2.125 1.96875 5.859375l0 10.953125l-5.71875 0l0 -10.171875q0 -1.890625 -0.984375 -2.921875q-0.96875 -1.046875 -2.609375 -1.046875q-1.640625 0 -2.625 1.046875q-0.96875 1.03125 -0.96875 2.921875l0 10.171875l-5.75 0l0 -18.75l5.75 0l0 2.484375q0.875 -1.234375 2.34375 -1.953125q1.484375 -0.734375 3.328125 -0.734375zm10.07962 9.546875q0 -2.890625 1.09375 -5.0625q1.09375 -2.1875 2.96875 -3.359375q1.890625 -1.1875 4.203125 -1.1875q1.984375 0 3.46875 0.8125q1.5 0.796875 2.3125 2.109375l0 -2.65625l5.75 0l0 18.75l-5.75 0l0 -2.65625q-0.84375 1.3125 -2.34375 2.125q-1.484375 0.796875 -3.46875 0.796875q-2.28125 0 -4.171875 -1.1875q-1.875 -1.1875 -2.96875 -3.390625q-1.09375 -2.203125 -1.09375 -5.09375zm14.046875 0.03125q0 -2.140625 -1.203125 -3.390625q-1.1875 -1.25 -2.890625 -1.25q-1.71875 0 -2.921875 1.234375q-1.1875 1.21875 -1.1875 3.375q0 2.15625 1.1875 3.421875q1.203125 1.25 2.921875 1.25q1.703125 0 2.890625 -1.234375q1.203125 -1.25 1.203125 -3.40625zm15.653839 -15.484375l0 24.859375l-5.75 0l0 -24.859375l5.75 0zm23.313232 24.859375l-4.90625 -8.90625l-1.375 0l0 8.90625l-5.75 0l0 -23.578125l9.640625 0q2.796875 0 4.75 0.96875q1.96875 0.96875 2.9375 2.671875q0.984375 1.703125 0.984375 3.78125q0 2.34375 -1.328125 4.203125q-1.328125 1.84375 -3.90625 2.609375l5.4375 9.34375l-6.484375 0zm-6.28125 -12.96875l3.5625 0q1.578125 0 2.359375 -0.765625q0.796875 -0.78125 0.796875 -2.1875q0 -1.34375 -0.796875 -2.109375q-0.78125 -0.78125 -2.359375 -0.78125l-3.5625 0l0 5.84375zm33.82492 3.296875q0 0.796875 -0.09375 1.671875l-13.0 0q0.125 1.75 1.109375 2.671875q1.0 0.921875 2.453125 0.921875q2.140625 0 2.984375 -1.8125l6.109375 0q-0.46875 1.859375 -1.703125 3.34375q-1.21875 1.46875 -3.0625 2.3125q-1.84375 0.828125 -4.140625 0.828125q-2.75 0 -4.90625 -1.171875q-2.1406097 -1.171875 -3.3593597 -3.359375q-1.203125 -2.1875 -1.203125 -5.109375q0 -2.921875 1.1875 -5.09375q1.203125 -2.1875 3.3437347 -3.359375q2.15625 -1.1875 4.9375 -1.1875q2.734375 0 4.84375 1.140625q2.125 1.140625 3.3125 3.265625q1.1875 2.109375 1.1875 4.9375zm-5.875 -1.515625q0 -1.484375 -1.015625 -2.34375q-1.0 -0.875 -2.515625 -0.875q-1.4375 0 -2.4375 0.84375q-0.984375 0.828125 -1.21875 2.375l7.1875 0zm16.52182 11.453125q-2.453125 0 -4.375 -0.828125q-1.90625 -0.84375 -3.015625 -2.296875q-1.109375 -1.46875 -1.234375 -3.28125l5.671875 0q0.109375 0.96875 0.90625 1.578125q0.8125 0.59375 1.984375 0.59375q1.078125 0 1.65625 -0.40625q0.59375 -0.421875 0.59375 -1.09375q0 -0.8125 -0.84375 -1.1875q-0.828125 -0.390625 -2.71875 -0.875q-2.015625 -0.46875 -3.359375 -0.984375q-1.34375 -0.515625 -2.328125 -1.640625q-0.96875 -1.125 -0.96875 -3.046875q0 -1.609375 0.890625 -2.9375q0.890625 -1.328125 2.625 -2.09375q1.734375 -0.78125 4.125 -0.78125q3.515625 0 5.546875 1.75q2.03125 1.75 2.34375 4.640625l-5.3125 0q-0.140625 -0.984375 -0.859375 -1.546875q-0.71875 -0.578125 -1.890625 -0.578125q-1.015625 0 -1.5625 0.390625q-0.53125 0.390625 -0.53125 1.0625q0 0.796875 0.859375 1.203125q0.859375 0.40625 2.671875 0.8125q2.09375 0.53125 3.390625 1.0625q1.3125 0.515625 2.296875 1.671875q1.0 1.15625 1.03125 3.109375q0 1.640625 -0.921875 2.9375q-0.921875 1.296875 -2.65625 2.03125q-1.71875 0.734375 -4.015625 0.734375zm28.792145 -9.9375q0 0.796875 -0.09375 1.671875l-13.0 0q0.125 1.75 1.109375 2.671875q1.0 0.921875 2.453125 0.921875q2.140625 0 2.984375 -1.8125l6.109375 0q-0.46875 1.859375 -1.703125 3.34375q-1.21875 1.46875 -3.0625 2.3125q-1.84375 0.828125 -4.140625 0.828125q-2.75 0 -4.90625 -1.171875q-2.140625 -1.171875 -3.359375 -3.359375q-1.203125 -2.1875 -1.203125 -5.109375q0 -2.921875 1.1875 -5.09375q1.203125 -2.1875 3.34375 -3.359375q2.15625 -1.1875 4.9375 -1.1875q2.734375 0 4.84375 1.140625q2.125 1.140625 3.3125 3.265625q1.1875 2.109375 1.1875 4.9375zm-5.875 -1.515625q0 -1.484375 -1.015625 -2.34375q-1.0 -0.875 -2.515625 -0.875q-1.4375 0 -2.4375 0.84375q-0.984375 0.828125 -1.21875 2.375l7.1875 0zm7.7561646 1.78125q0 -2.890625 1.09375 -5.0625q1.09375 -2.1875 2.96875 -3.359375q1.890625 -1.1875 4.203125 -1.1875q1.984375 0 3.46875 0.8125q1.5 0.796875 2.3125 2.109375l0 -2.65625l5.75 0l0 18.75l-5.75 0l0 -2.65625q-0.84375 1.3125 -2.34375 2.125q-1.484375 0.796875 -3.46875 0.796875q-2.28125 0 -4.171875 -1.1875q-1.875 -1.1875 -2.96875 -3.390625q-1.09375 -2.203125 -1.09375 -5.09375zm14.046875 0.03125q0 -2.140625 -1.203125 -3.390625q-1.1875 -1.25 -2.890625 -1.25q-1.71875 0 -2.921875 1.234375q-1.1875 1.21875 -1.1875 3.375q0 2.15625 1.1875 3.421875q1.203125 1.25 2.921875 1.25q1.703125 0 2.890625 -1.234375q1.203125 -1.25 1.203125 -3.40625zm15.653839 -6.25q1.0 -1.546875 2.515625 -2.4375q1.515625 -0.890625 3.359375 -0.890625l0 6.09375l-1.578125 0q-2.140625 0 -3.21875 0.921875q-1.078125 0.921875 -1.078125 3.234375l0 8.703125l-5.75 0l0 -18.75l5.75 0l0 3.125zm7.4874573 6.25q0 -2.921875 1.1875 -5.09375q1.203125 -2.1875 3.328125 -3.359375q2.140625 -1.1875 4.890625 -1.1875q3.53125 0 5.890625 1.859375q2.375 1.84375 3.109375 5.203125l-6.109375 0q-0.765625 -2.15625 -2.984375 -2.15625q-1.578125 0 -2.53125 1.234375q-0.9375 1.21875 -0.9375 3.5q0 2.28125 0.9375 3.515625q0.953125 1.21875 2.53125 1.21875q2.21875 0 2.984375 -2.140625l6.109375 0q-0.734375 3.28125 -3.125 5.171875q-2.375 1.875 -5.875 1.875q-2.75 0 -4.890625 -1.171875q-2.125 -1.171875 -3.328125 -3.359375q-1.1875 -2.1875 -1.1875 -5.109375zm32.996033 -9.578125q3.21875 0 5.171875 2.140625q1.953125 2.125 1.953125 5.859375l0 10.953125l-5.71875 0l0 -10.171875q0 -1.890625 -0.984375 -2.921875q-0.96875 -1.046875 -2.609375 -1.046875q-1.640625 0 -2.625 1.046875q-0.96875 1.03125 -0.96875 2.921875l0 10.171875l-5.75 0l0 -24.859375l5.75 0l0 8.640625q0.875 -1.25 2.375 -1.984375q1.515625 -0.75 3.40625 -0.75zm39.326477 18.953125l-5.734375 0l-9.609375 -14.546875l0 14.546875l-5.75 0l0 -23.578125l5.75 0l9.609375 14.609375l0 -14.609375l5.734375 0l0 23.578125zm21.840576 -9.671875q0 0.796875 -0.09375 1.671875l-13.0 0q0.125 1.75 1.109375 2.671875q1.0 0.921875 2.453125 0.921875q2.140625 0 2.984375 -1.8125l6.109375 0q-0.46875 1.859375 -1.703125 3.34375q-1.21875 1.46875 -3.0625 2.3125q-1.84375 0.828125 -4.140625 0.828125q-2.75 0 -4.90625 -1.171875q-2.140625 -1.171875 -3.359375 -3.359375q-1.203125 -2.1875 -1.203125 -5.109375q0 -2.921875 1.1875 -5.09375q1.203125 -2.1875 3.34375 -3.359375q2.15625 -1.1875 4.9375 -1.1875q2.734375 0 4.84375 1.140625q2.125 1.140625 3.3125 3.265625q1.1875 2.109375 1.1875 4.9375zm-5.875 -1.515625q0 -1.484375 -1.015625 -2.34375q-1.0 -0.875 -2.515625 -0.875q-1.4375 0 -2.4375 0.84375q-0.984375 0.828125 -1.21875 2.375l7.1875 0zm26.568695 1.515625q0 0.796875 -0.09375 1.671875l-13.0 0q0.125 1.75 1.109375 2.671875q1.0 0.921875 2.453125 0.921875q2.140625 0 2.984375 -1.8125l6.109375 0q-0.46875 1.859375 -1.703125 3.34375q-1.21875 1.46875 -3.0625 2.3125q-1.84375 0.828125 -4.140625 0.828125q-2.75 0 -4.90625 -1.171875q-2.140625 -1.171875 -3.359375 -3.359375q-1.203125 -2.1875 -1.203125 -5.109375q0 -2.921875 1.1875 -5.09375q1.203125 -2.1875 3.34375 -3.359375q2.15625 -1.1875 4.9375 -1.1875q2.734375 0 4.84375 1.140625q2.125 1.140625 3.3125 3.265625q1.1875 2.109375 1.1875 4.9375zm-5.875 -1.515625q0 -1.484375 -1.015625 -2.34375q-1.0 -0.875 -2.515625 -0.875q-1.4375 0 -2.4375 0.84375q-0.984375 0.828125 -1.21875 2.375l7.1875 0zm7.756195 1.78125q0 -2.890625 1.09375 -5.0625q1.09375 -2.1875 2.96875 -3.359375q1.890625 -1.1875 4.203125 -1.1875q1.84375 0 3.375 0.78125q1.53125 0.765625 2.40625 2.078125l0 -8.703125l5.75 0l0 24.859375l-5.75 0l0 -2.6875q-0.8125 1.34375 -2.3125 2.15625q-1.484375 0.796875 -3.46875 0.796875q-2.3125 0 -4.203125 -1.1875q-1.875 -1.1875 -2.96875 -3.390625q-1.09375 -2.203125 -1.09375 -5.09375zm14.046875 0.03125q0 -2.140625 -1.203125 -3.390625q-1.1875 -1.25 -2.890625 -1.25q-1.71875 0 -2.921875 1.234375q-1.1875 1.21875 -1.1875 3.375q0 2.15625 1.1875 3.421875q1.203125 1.25 2.921875 1.25q1.703125 0 2.890625 -1.234375q1.203125 -1.25 1.203125 -3.40625zm27.575714 -0.296875q0 0.796875 -0.09375 1.671875l-13.0 0q0.125 1.75 1.109375 2.671875q1.0 0.921875 2.453125 0.921875q2.140625 0 2.984375 -1.8125l6.109375 0q-0.46875 1.859375 -1.703125 3.34375q-1.21875 1.46875 -3.0625 2.3125q-1.84375 0.828125 -4.140625 0.828125q-2.75 0 -4.90625 -1.171875q-2.140625 -1.171875 -3.359375 -3.359375q-1.203125 -2.1875 -1.203125 -5.109375q0 -2.921875 1.1875 -5.09375q1.203125 -2.1875 3.34375 -3.359375q2.15625 -1.1875 4.9375 -1.1875q2.734375 0 4.84375 1.140625q2.125 1.140625 3.3125 3.265625q1.1875 2.109375 1.1875 4.9375zm-5.875 -1.515625q0 -1.484375 -1.015625 -2.34375q-1.0 -0.875 -2.515625 -0.875q-1.4375 0 -2.4375 0.84375q-0.984375 0.828125 -1.21875 2.375l7.1875 0zm7.756195 1.78125q0 -2.890625 1.09375 -5.0625q1.0937805 -2.1875 2.9687805 -3.359375q1.890625 -1.1875 4.203125 -1.1875q1.84375 0 3.375 0.78125q1.53125 0.765625 2.40625 2.078125l0 -8.703125l5.75 0l0 24.859375l-5.75 0l0 -2.6875q-0.8125 1.34375 -2.3125 2.15625q-1.484375 0.796875 -3.46875 0.796875q-2.3125 0 -4.203125 -1.1875q-1.875 -1.1875 -2.9687805 -3.390625q-1.09375 -2.203125 -1.09375 -5.09375zm14.0469055 0.03125q0 -2.140625 -1.203125 -3.390625q-1.1875 -1.25 -2.890625 -1.25q-1.71875 0 -2.921875 1.234375q-1.1875 1.21875 -1.1875 3.375q0 2.15625 1.1875 3.421875q1.203125 1.25 2.921875 1.25q1.703125 0 2.890625 -1.234375q1.203125 -1.25 1.203125 -3.40625z" fill-rule="nonzero"/><path fill="#000000" fill-opacity="0.0" d="m41.254593 128.48557l882.26776 0l0 115.52756l-882.26776 0z" fill-rule="evenodd"/><path fill="#ffffff" d="m50.254593 137.48557l623.1914 0l0 28.800003l-623.1914 0l0 -28.800003z" fill-rule="nonzero"/><path fill="#000000" fill-opacity="0.0" d="m50.254593 137.17009l623.1914 0l0 30.246094l-623.1914 0l0 -30.246094z" fill-rule="nonzero"/><path fill="#000000" d="m63.957718 143.38493l0 3.171875l-8.28125 0l0 3.953125l7.171875 0l0 2.9375l-7.171875 0l0 7.078125l-3.765625 0l0 -17.140625l12.046875 0zm6.84375 4.40625q2.921875 0 4.671875 1.796875q1.765625 1.796875 1.765625 4.75q0 2.96875 -1.78125 4.75q-1.78125 1.78125 -4.65625 1.78125q-2.890625 0 -4.65625 -1.796875q-1.75 -1.796875 -1.75 -4.734375q0 -2.9375 1.734375 -4.734375q1.734375 -1.8125 4.671875 -1.8125zm-3.0 6.546875q0 1.953125 0.796875 2.953125q0.8125 1.0 2.203125 1.0q1.453125 0 2.234375 -1.03125q0.78125 -1.03125 0.78125 -2.921875q0 -1.859375 -0.765625 -2.921875q-0.75 -1.0625 -2.28125 -1.0625q-1.359375 0 -2.171875 1.0q-0.796875 0.984375 -0.796875 2.984375zm18.863281 -6.546875q0.21875 0 0.40625 0.03125q0.1875 0.015625 0.359375 0.078125l0 3.171875q-0.296875 -0.0625 -0.578125 -0.09375q-0.265625 -0.03125 -0.640625 -0.03125q-1.71875 0 -2.546875 1.0625q-0.828125 1.046875 -0.828125 2.8125l0 5.703125l-3.40625 0l0 -12.40625l3.234375 0l0 2.296875l0.046875 0q0.546875 -1.21875 1.609375 -1.921875q1.078125 -0.703125 2.34375 -0.703125zm13.6640625 -4.40625q0.359375 0 0.9375 0.046875q0.59375 0.03125 0.875 0.046875l0 2.546875q-0.34375 -0.03125 -0.65625 -0.046875q-0.3125 -0.015625 -0.578125 -0.015625q-0.71875 0 -1.015625 0.3125q-0.296875 0.296875 -0.296875 1.265625l0 0.578125l2.359375 0l0 2.28125l-2.359375 0l0 10.125l-3.40625 0l0 -10.125l-2.046875 0l0 -2.28125l2.046875 0l0 -0.859375q0 -1.9375 1.109375 -2.90625q1.125 -0.96875 3.03125 -0.96875zm6.5078125 4.734375l0 7.109375q0 1.40625 0.484375 2.171875q0.5 0.765625 1.703125 0.765625q1.40625 0 2.015625 -0.84375q0.625 -0.859375 0.625 -2.59375l0 -6.609375l3.40625 0l0 12.40625l-3.25 0l0 -1.71875l-0.0625 0q-0.640625 1.03125 -1.671875 1.546875q-1.015625 0.515625 -2.140625 0.515625q-2.3125 0 -3.421875 -1.171875q-1.09375 -1.1875 -1.09375 -3.8125l0 -7.765625l3.40625 0zm15.1328125 -3.71875l0 3.71875l2.5 0l0 2.28125l-2.5 0l0 6.21875q0 0.765625 0.28125 1.0625q0.296875 0.296875 1.171875 0.296875q0.28125 0 0.546875 -0.015625q0.28125 -0.03125 0.5 -0.078125l0 2.671875q-0.421875 0.0625 -0.953125 0.078125q-0.515625 0.03125 -1.015625 0.03125q-2.21875 0 -3.078125 -0.75q-0.859375 -0.765625 -0.859375 -2.125l0 -7.390625l-2.0625 0l0 -2.28125l2.0625 0l0 -3.71875l3.40625 0zm7.5429688 3.71875l0 7.109375q0 1.40625 0.484375 2.171875q0.5 0.765625 1.703125 0.765625q1.40625 0 2.015625 -0.84375q0.625 -0.859375 0.625 -2.59375l0 -6.609375l3.40625 0l0 12.40625l-3.25 0l0 -1.71875l-0.0625 0q-0.640625 1.03125 -1.671875 1.546875q-1.015625 0.515625 -2.140625 0.515625q-2.3125 0 -3.421875 -1.171875q-1.09375 -1.1875 -1.09375 -3.8125l0 -7.765625l3.40625 0zm18.054688 -0.328125q0.21875 0 0.40625 0.03125q0.1875 0.015625 0.359375 0.078125l0 3.171875q-0.296875 -0.0625 -0.578125 -0.09375q-0.265625 -0.03125 -0.640625 -0.03125q-1.71875 0 -2.546875 1.0625q-0.828125 1.046875 -0.828125 2.8125l0 5.703125l-3.40625 0l0 -12.40625l3.234375 0l0 2.296875l0.046875 0q0.546875 -1.21875 1.609375 -1.921875q1.078125 -0.703125 2.34375 -0.703125zm7.6523438 0q2.75 0 4.390625 1.890625q1.65625 1.890625 1.65625 4.828125l-0.015625 0.640625l-8.953125 0q0.0625 1.59375 0.828125 2.375q0.765625 0.765625 2.203125 0.765625q0.921875 0 1.703125 -0.46875q0.796875 -0.46875 1.0 -1.140625l3.0 0q-0.6875 2.109375 -2.140625 3.15625q-1.4375 1.03125 -3.671875 1.03125q-2.875 0 -4.609375 -1.8125q-1.734375 -1.828125 -1.734375 -4.71875q0 -2.78125 1.78125 -4.65625q1.78125 -1.890625 4.5625 -1.890625zm-2.921875 5.203125l5.53125 0q-0.234375 -1.375 -0.875 -2.0q-0.640625 -0.640625 -1.84375 -0.640625q-1.25 0 -1.984375 0.703125q-0.71875 0.703125 -0.828125 1.9375zm29.730469 -9.609375l0 17.140625l-3.234375 0l0 -1.578125l-0.046875 0q-0.5625 0.9375 -1.53125 1.4375q-0.953125 0.484375 -2.234375 0.484375q-2.546875 0 -4.0625 -1.875q-1.5 -1.875 -1.5 -4.78125q0 -2.765625 1.484375 -4.59375q1.484375 -1.828125 4.0 -1.828125q1.171875 0 2.125 0.46875q0.96875 0.46875 1.546875 1.359375l0.046875 0l0 -6.234375l3.40625 0zm-9.21875 10.921875q0 1.734375 0.8125 2.859375q0.8125 1.125 2.1875 1.125q1.421875 0 2.171875 -1.046875q0.765625 -1.046875 0.765625 -2.953125q0 -1.8125 -0.75 -2.875q-0.734375 -1.0625 -2.203125 -1.0625q-1.40625 0 -2.203125 1.0625q-0.78125 1.0625 -0.78125 2.890625zm17.519531 -6.515625q2.75 0 4.390625 1.890625q1.65625 1.890625 1.65625 4.828125l-0.015625 0.640625l-8.953125 0q0.0625 1.59375 0.828125 2.375q0.765625 0.765625 2.203125 0.765625q0.921875 0 1.703125 -0.46875q0.796875 -0.46875 1.0 -1.140625l3.0 0q-0.6875 2.109375 -2.140625 3.15625q-1.4375 1.03125 -3.671875 1.03125q-2.875 0 -4.609375 -1.8125q-1.734375 -1.828125 -1.734375 -4.71875q0 -2.78125 1.78125 -4.65625q1.78125 -1.890625 4.5625 -1.890625zm-2.921875 5.203125l5.53125 0q-0.234375 -1.375 -0.875 -2.0q-0.640625 -0.640625 -1.84375 -0.640625q-1.25 0 -1.984375 0.703125q-0.71875 0.703125 -0.828125 1.9375zm13.359375 -4.875l2.625 8.46875l0.046875 0l2.625 -8.46875l3.375 0l-4.203125 12.40625l-3.78125 0l-4.25 -12.40625l3.5625 0zm15.824219 -0.328125q2.75 0 4.390625 1.890625q1.65625 1.890625 1.65625 4.828125l-0.015625 0.640625l-8.953125 0q0.0625 1.59375 0.828125 2.375q0.765625 0.765625 2.203125 0.765625q0.921875 0 1.703125 -0.46875q0.796875 -0.46875 1.0 -1.140625l3.0 0q-0.6875 2.109375 -2.140625 3.15625q-1.4375 1.03125 -3.671875 1.03125q-2.875 0 -4.609375 -1.8125q-1.734375 -1.828125 -1.734375 -4.71875q0 -2.78125 1.78125 -4.65625q1.78125 -1.890625 4.5625 -1.890625zm-2.921875 5.203125l5.53125 0q-0.234375 -1.375 -0.875 -2.0q-0.640625 -0.640625 -1.84375 -0.640625q-1.25 0 -1.984375 0.703125q-0.71875 0.703125 -0.828125 1.9375zm14.484375 -9.609375l0 17.140625l-3.421875 0l0 -17.140625l3.421875 0zm8.703125 4.40625q2.921875 0 4.671875 1.796875q1.765625 1.796875 1.765625 4.75q0 2.96875 -1.78125 4.75q-1.78125 1.78125 -4.65625 1.78125q-2.890625 0 -4.65625 -1.796875q-1.75 -1.796875 -1.75 -4.734375q0 -2.9375 1.734375 -4.734375q1.734375 -1.8125 4.671875 -1.8125zm-3.0 6.546875q0 1.953125 0.796875 2.953125q0.8125 1.0 2.203125 1.0q1.453125 0 2.234375 -1.03125q0.78125 -1.03125 0.78125 -2.921875q0 -1.859375 -0.765625 -2.921875q-0.75 -1.0625 -2.28125 -1.0625q-1.359375 0 -2.171875 1.0q-0.796875 0.984375 -0.796875 2.984375zm18.613281 -6.546875q2.640625 0 4.1406403 1.84375q1.5 1.84375 1.5 4.8125q0 2.765625 -1.484375 4.59375q-1.4687653 1.828125 -3.9687653 1.828125q-1.125 0 -2.109375 -0.484375q-0.984375 -0.5 -1.59375 -1.390625l-0.0625 0l0 5.90625l-3.40625 0l0 -16.78125l3.234375 0l0 1.578125l0.046875 0q0.609375 -0.96875 1.546875 -1.4375q0.953125 -0.46875 2.15625 -0.46875zm-3.703125 6.5625q0 1.78125 0.765625 2.859375q0.765625 1.078125 2.21875 1.078125q1.421875 0 2.1875 -1.03125q0.765625 -1.03125 0.765625 -2.90625q0 -1.78125 -0.765625 -2.890625q-0.765625 -1.109375 -2.234375 -1.109375q-1.40625 0 -2.171875 1.0625q-0.765625 1.046875 -0.765625 2.9375zm18.535172 -6.5625q1.375 0 2.28125 0.53125q0.90625 0.53125 1.34375 1.53125q0.703125 -1.0 1.65625 -1.53125q0.96875 -0.53125 2.09375 -0.53125q2.25 0 3.390625 1.15625q1.140625 1.140625 1.140625 3.15625l0 8.421875l-3.40625 0l0 -7.171875q0 -1.703125 -0.5 -2.296875q-0.5 -0.59375 -1.59375 -0.59375q-1.140625 0 -1.71875 0.78125q-0.5625 0.765625 -0.5625 2.265625l0 7.015625l-3.40625 0l0 -7.640625q0 -1.234375 -0.46875 -1.828125q-0.46875 -0.59375 -1.59375 -0.59375q-0.96875 0 -1.640625 0.75q-0.65625 0.75 -0.65625 2.03125l0 7.28125l-3.421875 0l0 -12.40625l3.21875 0l0 1.6875l0.046875 0q0.71875 -1.03125 1.671875 -1.515625q0.96875 -0.5 2.125 -0.5zm20.316406 0q2.75 0 4.390625 1.890625q1.65625 1.890625 1.65625 4.828125l-0.015625 0.640625l-8.953125 0q0.0625 1.59375 0.828125 2.375q0.765625 0.765625 2.203125 0.765625q0.921875 0 1.703125 -0.46875q0.796875 -0.46875 1.0 -1.140625l3.0 0q-0.6875 2.109375 -2.140625 3.15625q-1.4375 1.03125 -3.671875 1.03125q-2.875 0 -4.609375 -1.8125q-1.734375 -1.828125 -1.734375 -4.71875q0 -2.78125 1.78125 -4.65625q1.78125 -1.890625 4.5625 -1.890625zm-2.921875 5.203125l5.53125 0q-0.234375 -1.375 -0.875 -2.0q-0.640625 -0.640625 -1.84375 -0.640625q-1.25 0 -1.984375 0.703125q-0.71875 0.703125 -0.828125 1.9375zm18.09375 -5.203125q2.375 0 3.4375 1.203125q1.078125 1.1875 1.078125 3.765625l0 7.765625l-3.40625 0l0 -7.109375q0 -1.453125 -0.5 -2.203125q-0.5 -0.75 -1.6875 -0.75q-1.40625 0 -2.03125 0.84375q-0.609375 0.84375 -0.609375 2.59375l0 6.625l-3.40625 0l0 -12.40625l3.234375 0l0 1.734375l0.078125 0q0.625 -1.0 1.609375 -1.53125q1.0 -0.53125 2.203125 -0.53125zm11.4140625 -3.390625l0 3.71875l2.5 0l0 2.28125l-2.5 0l0 6.21875q0 0.765625 0.28125 1.0625q0.296875 0.296875 1.171875 0.296875q0.28125 0 0.546875 -0.015625q0.28125 -0.03125 0.5 -0.078125l0 2.671875q-0.421875 0.0625 -0.953125 0.078125q-0.515625 0.03125 -1.015625 0.03125q-2.21875 0 -3.078125 -0.75q-0.859375 -0.765625 -0.859375 -2.125l0 -7.390625l-2.0625 0l0 -2.28125l2.0625 0l0 -3.71875l3.40625 0zm16.835938 3.390625q2.921875 0 4.671875 1.796875q1.765625 1.796875 1.765625 4.75q0 2.96875 -1.78125 4.75q-1.78125 1.78125 -4.65625 1.78125q-2.890625 0 -4.65625 -1.796875q-1.75 -1.796875 -1.75 -4.734375q0 -2.9375 1.734375 -4.734375q1.734375 -1.8125 4.671875 -1.8125zm-3.0 6.546875q0 1.953125 0.796875 2.953125q0.8125 1.0 2.203125 1.0q1.453125 0 2.234375 -1.03125q0.78125 -1.03125 0.78125 -2.921875q0 -1.859375 -0.765625 -2.921875q-0.75 -1.0625 -2.28125 -1.0625q-1.359375 0 -2.171875 1.0q-0.796875 0.984375 -0.796875 2.984375zm16.519531 -10.953125q0.359375 0 0.9375 0.046875q0.59375 0.03125 0.875 0.046875l0 2.546875q-0.34375 -0.03125 -0.65625 -0.046875q-0.3125 -0.015625 -0.578125 -0.015625q-0.71875 0 -1.015625 0.3125q-0.296875 0.296875 -0.296875 1.265625l0 0.578125l2.359375 0l0 2.28125l-2.359375 0l0 10.125l-3.40625 0l0 -10.125l-2.046875 0l0 -2.28125l2.046875 0l0 -0.859375q0 -1.9375 1.109375 -2.90625q1.125 -0.96875 3.03125 -0.96875zm14.082031 1.015625l0 3.71875l2.5 0l0 2.28125l-2.5 0l0 6.21875q0 0.765625 0.28125 1.0625q0.296875 0.296875 1.171875 0.296875q0.28125 0 0.546875 -0.015625q0.28125 -0.03125 0.5 -0.078125l0 2.671875q-0.421875 0.0625 -0.953125 0.078125q-0.515625 0.03125 -1.015625 0.03125q-2.21875 0 -3.078125 -0.75q-0.859375 -0.765625 -0.859375 -2.125l0 -7.390625l-2.0625 0l0 -2.28125l2.0625 0l0 -3.71875l3.40625 0zm7.5429688 -1.015625l0 6.46875l0.078125 0q0.546875 -0.9375 1.53125 -1.5q0.984375 -0.5625 2.109375 -0.5625q2.375 0 3.4375 1.203125q1.078125 1.203125 1.078125 3.765625l0 7.765625l-3.40625 0l0 -7.109375q0 -1.453125 -0.5 -2.203125q-0.5 -0.75 -1.6875 -0.75q-1.40625 0 -2.03125 0.84375q-0.609375 0.84375 -0.609375 2.59375l0 6.625l-3.40625 0l0 -17.140625l3.40625 0zm14.3359375 0l0 2.8125l-3.421875 0l0 -2.8125l3.421875 0zm0 4.734375l0 12.40625l-3.421875 0l0 -12.40625l3.421875 0zm7.765625 -0.328125q2.53125 0 3.90625 1.0q1.375 1.0 1.5625 2.9375l-3.25 0q-0.0625 -0.875 -0.65625 -1.265625q-0.578125 -0.40625 -1.671875 -0.40625q-0.984375 0 -1.4375 0.296875q-0.453125 0.296875 -0.453125 0.859375q0 0.5625 0.59375 0.9375q0.59375 0.375 2.390625 0.703125q2.859375 0.5625 3.828125 1.4375q0.984375 0.859375 0.984375 2.265625q0 2.109375 -1.546875 3.21875q-1.53125 1.09375 -4.109375 1.09375q-2.578125 0 -4.15625 -1.09375q-1.578125 -1.109375 -1.6875 -3.28125l3.25 0q0 0.984375 0.734375 1.53125q0.75 0.546875 1.875 0.546875q1.0 0 1.625 -0.421875q0.625 -0.421875 0.625 -1.15625q0 -0.640625 -0.8125 -1.046875q-0.8125 -0.421875 -2.96875 -0.859375q-2.125 -0.421875 -3.078125 -1.203125q-0.953125 -0.796875 -0.953125 -2.125q0 -1.96875 1.390625 -2.96875q1.40625 -1.0 4.015625 -1.0zm21.449219 0q2.640625 0 4.140625 1.84375q1.5 1.84375 1.5 4.8125q0 2.765625 -1.484375 4.59375q-1.46875 1.828125 -3.96875 1.828125q-1.125 0 -2.109375 -0.484375q-0.984375 -0.5 -1.59375 -1.390625l-0.0625 0l0 5.90625l-3.40625 0l0 -16.78125l3.234375 0l0 1.578125l0.046875 0q0.609375 -0.96875 1.546875 -1.4375q0.953125 -0.46875 2.15625 -0.46875zm-3.703125 6.5625q0 1.78125 0.765625 2.859375q0.765625 1.078125 2.21875 1.078125q1.421875 0 2.1875 -1.03125q0.765625 -1.03125 0.765625 -2.90625q0 -1.78125 -0.765625 -2.890625q-0.765625 -1.109375 -2.234375 -1.109375q-1.40625 0 -2.171875 1.0625q-0.765625 1.046875 -0.765625 2.9375zm18.613281 -6.5625q0.21875 0 0.40625 0.03125q0.1875 0.015625 0.359375 0.078125l0 3.171875q-0.296875 -0.0625 -0.578125 -0.09375q-0.265625 -0.03125 -0.640625 -0.03125q-1.71875 0 -2.546875 1.0625q-0.828125 1.046875 -0.828125 2.8125l0 5.703125l-3.40625 0l0 -12.40625l3.234375 0l0 2.296875l0.046875 0q0.546875 -1.21875 1.609375 -1.921875q1.078125 -0.703125 2.34375 -0.703125zm7.9492188 0q2.921875 0 4.671875 1.796875q1.765625 1.796875 1.765625 4.75q0 2.96875 -1.78125 4.75q-1.78125 1.78125 -4.65625 1.78125q-2.890625 0 -4.65625 -1.796875q-1.75 -1.796875 -1.75 -4.734375q0 -2.9375 1.734375 -4.734375q1.734375 -1.8125 4.671875 -1.8125zm-3.0 6.546875q0 1.953125 0.796875 2.953125q0.8125 1.0 2.203125 1.0q1.453125 0 2.234375 -1.03125q0.78125 -1.03125 0.78125 -2.921875q0 -1.859375 -0.765625 -2.921875q-0.75 -1.0625 -2.28125 -1.0625q-1.359375 0 -2.171875 1.0q-0.796875 0.984375 -0.796875 2.984375zm15.347656 -10.953125l0 2.8125l-3.40625 0l0 -2.8125l3.40625 0zm0 4.734375l0 13.140625q0 1.9375 -0.96875 2.78125q-0.96875 0.859375 -3.375 0.859375q-0.296875 0 -0.578125 -0.03125q-0.265625 -0.015625 -0.546875 -0.0625l0 -2.8125q0.140625 0.0625 0.34375 0.078125q0.1875 0.015625 0.390625 0.015625q0.75 0 1.03125 -0.28125q0.296875 -0.28125 0.296875 -0.78125l0 -12.90625l3.40625 0zm8.683594 -0.328125q2.75 0 4.390625 1.890625q1.65625 1.890625 1.65625 4.828125l-0.015625 0.640625l-8.953125 0q0.0625 1.59375 0.828125 2.375q0.765625 0.765625 2.203125 0.765625q0.921875 0 1.703125 -0.46875q0.796875 -0.46875 1.0 -1.140625l3.0 0q-0.6875 2.109375 -2.140625 3.15625q-1.4375 1.03125 -3.671875 1.03125q-2.875 0 -4.609375 -1.8125q-1.734375 -1.828125 -1.734375 -4.71875q0 -2.78125 1.78125 -4.65625q1.78125 -1.890625 4.5625 -1.890625zm-2.921875 5.203125l5.53125 0q-0.234375 -1.375 -0.875 -2.0q-0.640625 -0.640625 -1.84375 -0.640625q-1.25 0 -1.984375 0.703125q-0.71875 0.703125 -0.828125 1.9375zm16.921875 -5.203125q2.390625 0 4.03125 1.25q1.65625 1.234375 1.796875 3.4375l-3.34375 0q-0.140625 -1.0625 -0.78125 -1.59375q-0.625 -0.53125 -1.734375 -0.53125q-1.375 0 -2.140625 1.125q-0.75 1.125 -0.75 2.90625q0 1.78125 0.75 2.84375q0.75 1.0625 2.078125 1.0625q1.125 0 1.828125 -0.640625q0.703125 -0.65625 0.890625 -1.890625l3.28125 0q-0.34375 2.46875 -1.9375 3.796875q-1.578125 1.3125 -4.046875 1.3125q-2.765625 0 -4.515625 -1.78125q-1.734375 -1.78125 -1.734375 -4.59375q0 -3.0 1.703125 -4.84375q1.71875 -1.859375 4.625 -1.859375zm12.140625 -3.390625l0 3.71875l2.5 0l0 2.28125l-2.5 0l0 6.21875q0 0.765625 0.28125 1.0625q0.296875 0.296875 1.171875 0.296875q0.28125 0 0.546875 -0.015625q0.28125 -0.03125 0.5 -0.078125l0 2.671875q-0.421875 0.0625 -0.953125 0.078125q-0.515625 0.03125 -1.015625 0.03125q-2.21875 0 -3.078125 -0.75q-0.859375 -0.765625 -0.859375 -2.125l0 -7.390625l-2.0625 0l0 -2.28125l2.0625 0l0 -3.71875l3.40625 0zm13.2421875 3.71875l2.296875 8.421875l0.046875 0l2.0625 -8.421875l3.3125 0l2.109375 8.390625l0.046875 0l2.28125 -8.390625l3.5 0l-3.921875 12.40625l-3.484375 0l-2.203125 -8.328125l-0.0625 0l-2.109375 8.328125l-3.53125 0l-3.9375 -12.40625l3.59375 0zm22.832 -0.328125q2.75 0 4.390625 1.890625q1.65625 1.890625 1.65625 4.828125l-0.015625 0.640625l-8.953125 0q0.0625 1.59375 0.828125 2.375q0.765625 0.765625 2.203125 0.765625q0.921875 0 1.703125 -0.46875q0.796875 -0.46875 1.0 -1.140625l3.0 0q-0.6875 2.109375 -2.140625 3.15625q-1.4375 1.03125 -3.671875 1.03125q-2.875 0 -4.6093445 -1.8125q-1.734375 -1.828125 -1.734375 -4.71875q0 -2.78125 1.78125 -4.65625q1.7812195 -1.890625 4.5624695 -1.890625zm-2.921875 5.203125l5.53125 0q-0.234375 -1.375 -0.875 -2.0q-0.640625 -0.640625 -1.84375 -0.640625q-1.25 0 -1.984375 0.703125q-0.71875 0.703125 -0.828125 1.9375zm24.871094 -5.203125q0.21875 0 0.40625 0.03125q0.1875 0.015625 0.359375 0.078125l0 3.171875q-0.296875 -0.0625 -0.578125 -0.09375q-0.265625 -0.03125 -0.640625 -0.03125q-1.71875 0 -2.546875 1.0625q-0.828125 1.046875 -0.828125 2.8125l0 5.703125l-3.40625 0l0 -12.40625l3.234375 0l0 2.296875l0.046875 0q0.546875 -1.21875 1.609375 -1.921875q1.078125 -0.703125 2.34375 -0.703125zm7.6523438 0q2.75 0 4.390625 1.890625q1.65625 1.890625 1.65625 4.828125l-0.015625 0.640625l-8.953125 0q0.0625 1.59375 0.828125 2.375q0.765625 0.765625 2.203125 0.765625q0.921875 0 1.703125 -0.46875q0.796875 -0.46875 1.0 -1.140625l3.0 0q-0.6875 2.109375 -2.140625 3.15625q-1.4375 1.03125 -3.671875 1.03125q-2.875 0 -4.609375 -1.8125q-1.734375 -1.828125 -1.734375 -4.71875q0 -2.78125 1.78125 -4.65625q1.78125 -1.890625 4.5625 -1.890625zm-2.921875 5.203125l5.53125 0q-0.234375 -1.375 -0.875 -2.0q-0.640625 -0.640625 -1.84375 -0.640625q-1.25 0 -1.984375 0.703125q-0.71875 0.703125 -0.828125 1.9375zm16.921875 -5.203125q2.390625 0 4.03125 1.25q1.65625 1.234375 1.796875 3.4375l-3.34375 0q-0.140625 -1.0625 -0.78125 -1.59375q-0.625 -0.53125 -1.734375 -0.53125q-1.375 0 -2.140625 1.125q-0.75 1.125 -0.75 2.90625q0 1.78125 0.75 2.84375q0.75 1.0625 2.078125 1.0625q1.125 0 1.828125 -0.640625q0.703125 -0.65625 0.890625 -1.890625l3.28125 0q-0.34375 2.46875 -1.9375 3.796875q-1.578125 1.3125 -4.046875 1.3125q-2.765625 0 -4.515625 -1.78125q-1.734375 -1.78125 -1.734375 -4.59375q0 -3.0 1.703125 -4.84375q1.71875 -1.859375 4.625 -1.859375zm13.859375 0q2.921875 0 4.671875 1.796875q1.765625 1.796875 1.765625 4.75q0 2.96875 -1.78125 4.75q-1.78125 1.78125 -4.65625 1.78125q-2.890625 0 -4.65625 -1.796875q-1.75 -1.796875 -1.75 -4.734375q0 -2.9375 1.734375 -4.734375q1.734375 -1.8125 4.671875 -1.8125zm-3.0 6.546875q0 1.953125 0.796875 2.953125q0.8125 1.0 2.203125 1.0q1.453125 0 2.234375 -1.03125q0.78125 -1.03125 0.78125 -2.921875q0 -1.859375 -0.765625 -2.921875q-0.75 -1.0625 -2.28125 -1.0625q-1.359375 0 -2.171875 1.0q-0.796875 0.984375 -0.796875 2.984375zm18.785156 -6.546875q1.375 0 2.28125 0.53125q0.90625 0.53125 1.34375 1.53125q0.703125 -1.0 1.65625 -1.53125q0.96875 -0.53125 2.09375 -0.53125q2.25 0 3.390625 1.15625q1.140625 1.140625 1.140625 3.15625l0 8.421875l-3.40625 0l0 -7.171875q0 -1.703125 -0.5 -2.296875q-0.5 -0.59375 -1.59375 -0.59375q-1.140625 0 -1.71875 0.78125q-0.5625 0.765625 -0.5625 2.265625l0 7.015625l-3.40625 0l0 -7.640625q0 -1.234375 -0.46875 -1.828125q-0.46875 -0.59375 -1.59375 -0.59375q-0.96875 0 -1.640625 0.75q-0.65625 0.75 -0.65625 2.03125l0 7.28125l-3.421875 0l0 -12.40625l3.21875 0l0 1.6875l0.046875 0q0.71875 -1.03125 1.671875 -1.515625q0.96875 -0.5 2.125 -0.5zm21.738281 0q1.375 0 2.28125 0.53125q0.90625 0.53125 1.34375 1.53125q0.703125 -1.0 1.65625 -1.53125q0.96875 -0.53125 2.09375 -0.53125q2.25 0 3.390625 1.15625q1.140625 1.140625 1.140625 3.15625l0 8.421875l-3.40625 0l0 -7.171875q0 -1.703125 -0.5 -2.296875q-0.5 -0.59375 -1.59375 -0.59375q-1.140625 0 -1.71875 0.78125q-0.5625 0.765625 -0.5625 2.265625l0 7.015625l-3.40625 0l0 -7.640625q0 -1.234375 -0.46875 -1.828125q-0.46875 -0.59375 -1.59375 -0.59375q-0.96875 0 -1.640625 0.75q-0.65625 0.75 -0.65625 2.03125l0 7.28125l-3.421875 0l0 -12.40625l3.21875 0l0 1.6875l0.046875 0q0.71875 -1.03125 1.671875 -1.515625q0.96875 -0.5 2.125 -0.5zm20.316406 0q2.75 0 4.390625 1.890625q1.65625 1.890625 1.65625 4.828125l-0.015625 0.640625l-8.953125 0q0.0625 1.59375 0.828125 2.375q0.765625 0.765625 2.203125 0.765625q0.921875 0 1.703125 -0.46875q0.796875 -0.46875 1.0 -1.140625l3.0 0q-0.6875 2.109375 -2.140625 3.15625q-1.4375 1.03125 -3.671875 1.03125q-2.875 0 -4.609375 -1.8125q-1.734375 -1.828125 -1.734375 -4.71875q0 -2.78125 1.78125 -4.65625q1.78125 -1.890625 4.5625 -1.890625zm-2.921875 5.203125l5.53125 0q-0.234375 -1.375 -0.875 -2.0q-0.640625 -0.640625 -1.84375 -0.640625q-1.25 0 -1.984375 0.703125q-0.71875 0.703125 -0.828125 1.9375zm18.09375 -5.203125q2.375 0 3.4375 1.203125q1.078125 1.1875 1.078125 3.765625l0 7.765625l-3.40625 0l0 -7.109375q0 -1.453125 -0.5 -2.203125q-0.5 -0.75 -1.6875 -0.75q-1.40625 0 -2.03125 0.84375q-0.609375 0.84375 -0.609375 2.59375l0 6.625l-3.40625 0l0 -12.40625l3.234375 0l0 1.734375l0.078125 0q0.625 -1.0 1.609375 -1.53125q1.0 -0.53125 2.203125 -0.53125zm19.195312 -4.40625l0 17.140625l-3.234375 0l0 -1.578125l-0.046875 0q-0.5625 0.9375 -1.53125 1.4375q-0.953125 0.484375 -2.234375 0.484375q-2.546875 0 -4.0625 -1.875q-1.5 -1.875 -1.5 -4.78125q0 -2.765625 1.484375 -4.59375q1.484375 -1.828125 4.0 -1.828125q1.171875 0 2.125 0.46875q0.96875 0.46875 1.546875 1.359375l0.046875 0l0 -6.234375l3.40625 0zm-9.21875 10.921875q0 1.734375 0.8125 2.859375q0.8125 1.125 2.1875 1.125q1.421875 0 2.171875 -1.046875q0.765625 -1.046875 0.765625 -2.953125q0 -1.8125 -0.75 -2.875q-0.734375 -1.0625 -2.203125 -1.0625q-1.40625 0 -2.203125 1.0625q-0.78125 1.0625 -0.78125 2.890625zm15.722656 -5.96875l0 3.6875l-3.765625 0l0 -3.6875l3.765625 0zm0 8.5l0 3.6875l-3.765625 0l0 -3.6875l3.765625 0z" fill-rule="nonzero"/><path fill="#010000" fill-opacity="0.0" d="m673.446 137.17009l0 0l0 30.246094l0 0l0 -30.246094z" fill-rule="nonzero"/><path fill="#000000" d="m69.022705 188.71619q0.9375 0 1.828125 0.484375q0.90625 0.46875 1.390625 1.375q0.5 0.890625 0.5 1.859375q0 1.546875 -1.09375 2.640625q-1.078125 1.09375 -2.625 1.09375q-1.546875 0 -2.640625 -1.09375q-1.09375 -1.09375 -1.09375 -2.640625q0 -0.96875 0.5 -1.859375q0.5 -0.90625 1.390625 -1.375q0.90625 -0.484375 1.84375 -0.484375z" fill-rule="nonzero"/><path fill="#000000" d="m104.84834 184.65369q2.0625 0 3.4375 1.078125q1.390625 1.0625 1.65625 2.953125l-1.640625 0q-0.265625 -1.28125 -1.1875 -1.953125q-0.921875 -0.6875 -2.28125 -0.6875q-1.953125 0 -3.078125 1.390625q-1.109375 1.390625 -1.109375 3.625q0 2.359375 1.09375 3.765625q1.09375 1.40625 3.109375 1.40625q1.515625 0 2.484375 -0.953125q0.96875 -0.96875 1.09375 -2.609375l1.640625 0q-0.265625 2.390625 -1.671875 3.671875q-1.390625 1.28125 -3.671875 1.28125q-2.65625 0 -4.1875 -1.75q-1.53125 -1.765625 -1.53125 -4.703125q0 -2.875 1.578125 -4.6875q1.578125 -1.828125 4.265625 -1.828125zm10.888824 3.515625q2.03125 0 3.1875 1.3125q1.171875 1.296875 1.171875 3.375q0 2.09375 -1.1875 3.390625q-1.1875 1.296875 -3.171875 1.296875q-1.9375 0 -3.140625 -1.265625q-1.203125 -1.28125 -1.203125 -3.421875q0 -2.125 1.171875 -3.40625q1.1875 -1.28125 3.171875 -1.28125zm-2.78125 4.6875q0 1.546875 0.78125 2.46875q0.78125 0.90625 2.0 0.90625q1.21875 0 2.0 -0.921875q0.796875 -0.921875 0.796875 -2.453125q0 -1.53125 -0.796875 -2.46875q-0.78125 -0.9375 -2.015625 -0.9375q-1.171875 0 -1.96875 0.921875q-0.796875 0.921875 -0.796875 2.484375zm13.215759 -4.6875q1.609375 0 2.34375 0.828125q0.734375 0.828125 0.734375 2.359375l0 5.96875l-1.46875 0l0 -6.125q0 -0.75 -0.5 -1.25q-0.484375 -0.5 -1.34375 -0.5q-1.234375 0 -1.9375 0.765625q-0.703125 0.765625 -0.703125 1.984375l0 5.125l-1.46875 0l0 -8.953125l1.390625 0l0 1.421875l0.03125 0q0.484375 -0.84375 1.203125 -1.234375q0.71875 -0.390625 1.71875 -0.390625zm13.293335 -3.21875l0 12.375l-1.46875 0l0 -1.203125l-0.03125 0q-0.34375 0.6875 -1.109375 1.0625q-0.75 0.359375 -1.75 0.359375q-1.875 0 -3.0 -1.296875q-1.125 -1.3125 -1.125 -3.421875q0 -2.078125 1.078125 -3.359375q1.09375 -1.296875 3.0 -1.296875q0.875 0 1.671875 0.359375q0.796875 0.34375 1.234375 1.03125l0.03125 0l0 -4.609375l1.46875 0zm-6.921875 7.96875q0 1.4375 0.75 2.375q0.75 0.9375 2.015625 0.9375q1.3125 0 2.015625 -0.9375q0.71875 -0.9375 0.71875 -2.4375q0 -1.53125 -0.734375 -2.46875q-0.734375 -0.9375 -2.109375 -0.9375q-1.265625 0 -1.96875 0.9375q-0.6875 0.921875 -0.6875 2.53125zm10.662277 -4.546875l0 6.109375q0 0.75 0.484375 1.25q0.484375 0.5 1.34375 0.5q1.265625 0 1.953125 -0.765625q0.703125 -0.78125 0.703125 -1.984375l0 -5.109375l1.46875 0l0 8.953125l-1.390625 0l0 -1.421875l-0.03125 0q-0.5 0.859375 -1.234375 1.25q-0.734375 0.390625 -1.6875 0.390625q-1.5625 0 -2.328125 -0.8125q-0.75 -0.8125 -0.75 -2.390625l0 -5.96875l1.46875 0zm11.90271 -0.203125q1.640625 0 2.65625 0.78125q1.03125 0.765625 1.21875 2.296875l-1.53125 0q-0.171875 -0.875 -0.75 -1.328125q-0.578125 -0.46875 -1.46875 -0.46875q-1.359375 0 -2.078125 0.921875q-0.703125 0.921875 -0.703125 2.59375q0 1.484375 0.703125 2.375q0.703125 0.890625 1.90625 0.890625q1.078125 0 1.6875 -0.578125q0.625 -0.578125 0.78125 -1.609375l1.5 0q-0.25 1.6875 -1.265625 2.59375q-1.015625 0.90625 -2.6875 0.90625q-1.953125 0 -3.078125 -1.234375q-1.109375 -1.234375 -1.109375 -3.34375q0 -2.203125 1.125 -3.5q1.140625 -1.296875 3.09375 -1.296875zm7.6195984 -2.484375l0 2.6875l1.78125 0l0 1.296875l-1.78125 0l0 5.609375q0 0.671875 0.4375 0.71875q0.453125 0.03125 0.9375 0.03125l0.40625 0l0 1.296875l-1.21875 0q-1.203125 0 -1.625 -0.421875q-0.40625 -0.4375 -0.40625 -1.453125l0 -5.78125l-1.53125 0l0 -1.296875l1.53125 0l0 -2.6875l1.46875 0zm4.9729767 -0.734375l0 1.8125l-1.484375 0l0 -1.8125l1.484375 0zm0 3.421875l0 8.953125l-1.484375 0l0 -8.953125l1.484375 0zm6.631012 -0.203125q1.609375 0 2.34375 0.828125q0.734375 0.828125 0.734375 2.359375l0 5.96875l-1.46875 0l0 -6.125q0 -0.75 -0.5 -1.25q-0.484375 -0.5 -1.34375 -0.5q-1.234375 0 -1.9375 0.765625q-0.703125 0.765625 -0.703125 1.984375l0 5.125l-1.46875 0l0 -8.953125l1.390625 0l0 1.421875l0.03125 0q0.484375 -0.84375 1.203125 -1.234375q0.71875 -0.390625 1.71875 -0.390625zm8.93396 0q0.9375 0 1.625 0.40625q0.6875 0.40625 1.0625 1.078125l0.015625 0l0 -1.28125l1.375 0l0 8.28125q0 2.109375 -1.015625 3.203125q-1.015625 1.109375 -3.125 1.109375q-1.546875 0 -2.59375 -0.6875q-1.046875 -0.671875 -1.125 -1.953125l1.46875 0q0.046875 0.6875 0.734375 1.078125q0.703125 0.390625 1.59375 0.390625q1.296875 0 1.984375 -0.875q0.703125 -0.859375 0.703125 -2.5625l0 -0.546875l-0.03125 0q-0.34375 0.734375 -1.09375 1.171875q-0.75 0.4375 -1.703125 0.4375q-1.828125 0 -2.921875 -1.25q-1.078125 -1.25 -1.078125 -3.28125q0 -2.046875 1.078125 -3.375q1.09375 -1.34375 3.046875 -1.34375zm-2.5625 4.546875q0 1.59375 0.65625 2.515625q0.671875 0.90625 1.875 0.90625q1.21875 0 1.9375 -0.9375q0.71875 -0.953125 0.71875 -2.53125q0 -1.4375 -0.671875 -2.328125q-0.65625 -0.890625 -1.890625 -0.890625q-1.234375 0 -1.9375 0.890625q-0.6875 0.890625 -0.6875 2.375zm15.248825 -7.765625l0 1.8125l-1.484375 0l0 -1.8125l1.484375 0zm0 3.421875l0 8.953125l-1.484375 0l0 -8.953125l1.484375 0zm6.631012 -0.203125q1.609375 0 2.34375 0.828125q0.734375 0.828125 0.734375 2.359375l0 5.96875l-1.46875 0l0 -6.125q0 -0.75 -0.5 -1.25q-0.484375 -0.5 -1.34375 -0.5q-1.234375 0 -1.9375 0.765625q-0.703125 0.765625 -0.703125 1.984375l0 5.125l-1.46875 0l0 -8.953125l1.390625 0l0 1.421875l0.03125 0q0.484375 -0.84375 1.203125 -1.234375q0.71875 -0.390625 1.71875 -0.390625zm7.34021 -2.484375l0 2.6875l1.78125 0l0 1.296875l-1.78125 0l0 5.609375q0 0.671875 0.4375 0.71875q0.453125 0.03125 0.9375 0.03125l0.40625 0l0 1.296875l-1.21875 0q-1.203125 0 -1.625 -0.421875q-0.40625 -0.4375 -0.40625 -1.453125l0 -5.78125l-1.53125 0l0 -1.296875l1.53125 0l0 -2.6875l1.46875 0zm6.917633 2.484375q1.9375 0 3.0 1.390625q1.0625 1.375 1.0625 3.546875l0 0.1875l-6.703125 0l0 0.109375q0 1.28125 0.734375 2.0625q0.75 0.765625 2.046875 0.765625q0.984375 0 1.5625 -0.453125q0.578125 -0.453125 0.765625 -1.296875l1.453125 0q-0.296875 1.484375 -1.3125 2.28125q-1.0 0.78125 -2.515625 0.78125q-1.40625 0 -2.390625 -0.640625q-0.96875 -0.640625 -1.4375 -1.78125q-0.46875 -1.140625 -0.46875 -2.328125q0 -1.984375 1.1875 -3.296875q1.203125 -1.328125 3.015625 -1.328125zm-2.640625 3.8125l5.140625 0q-0.0625 -1.09375 -0.796875 -1.8125q-0.71875 -0.71875 -1.796875 -0.71875q-1.015625 0 -1.734375 0.6875q-0.71875 0.6875 -0.8125 1.84375zm12.682098 -3.828125q0.0625 0 0.09375 0q0.046875 0 0.109375 0.015625l0 1.546875q-1.65625 0 -2.453125 0.890625q-0.78125 0.875 -0.78125 2.703125l0 4.015625l-1.46875 0l0 -8.953125l1.375 0l0 1.875l0.046875 0q0.515625 -1.0625 1.265625 -1.578125q0.765625 -0.515625 1.8125 -0.515625zm2.2000885 0.21875l2.515625 7.46875l0.03125 0l2.4375 -7.46875l1.546875 0l-3.28125 8.953125l-1.5625 0l-3.328125 -8.953125l1.640625 0zm9.4453125 -3.421875l0 1.8125l-1.484375 0l0 -1.8125l1.484375 0zm0 3.421875l0 8.953125l-1.484375 0l0 -8.953125l1.484375 0zm6.006012 -0.203125q1.9375 0 3.0 1.390625q1.0625 1.375 1.0625 3.546875l0 0.1875l-6.703125 0l0 0.109375q0 1.28125 0.734375 2.0625q0.75 0.765625 2.046875 0.765625q0.984375 0 1.5625 -0.453125q0.578125 -0.453125 0.765625 -1.296875l1.453125 0q-0.296875 1.484375 -1.3125 2.28125q-1.0 0.78125 -2.515625 0.78125q-1.40625 0 -2.390625 -0.640625q-0.96875 -0.640625 -1.4375 -1.78125q-0.46875 -1.140625 -0.46875 -2.328125q0 -1.984375 1.1875 -3.296875q1.203125 -1.328125 3.015625 -1.328125zm-2.640625 3.8125l5.140625 0q-0.0625 -1.09375 -0.796875 -1.8125q-0.71875 -0.71875 -1.796875 -0.71875q-1.015625 0 -1.734375 0.6875q-0.71875 0.6875 -0.8125 1.84375zm9.041473 -3.609375l2.03125 7.3125l0.03125 0l1.796875 -7.3125l1.6093903 0l1.875 7.28125l0.015625 0.03125l0.03125 0l2.0 -7.3125l1.53125 0l-2.84375 8.921875l-0.03125 0.03125l-1.546875 0l-1.8125153 -7.078125l-0.015625 -0.046875l-0.03125 0l-1.796875 7.125l-1.59375 0l-2.875 -8.953125l1.625 0zm15.30336 -0.203125q1.796875 0 2.671875 0.703125q0.890625 0.6875 0.96875 2.09375l-1.46875 0l0 -0.015625q-0.0625 -0.71875 -0.625 -1.109375q-0.5625 -0.390625 -1.4375 -0.390625q-0.890625 0 -1.40625 0.3125q-0.515625 0.296875 -0.515625 0.84375q0 0.484375 0.453125 0.796875q0.453125 0.3125 1.375 0.5l1.375 0.3125q1.3125 0.296875 1.984375 0.890625q0.671875 0.59375 0.671875 1.609375q0 1.3125 -1.03125 2.078125q-1.015625 0.75 -2.78125 0.75q-1.71875 0 -2.734375 -0.765625q-1.0 -0.78125 -1.0625 -2.28125l1.484375 0q0.03125 0.84375 0.65625 1.296875q0.640625 0.4375 1.75 0.4375q1.0625 0 1.609375 -0.328125q0.546875 -0.34375 0.546875 -1.0q0 -0.609375 -0.546875 -0.953125q-0.546875 -0.359375 -2.234375 -0.6875q-1.6875 -0.34375 -2.375 -0.9375q-0.6875 -0.609375 -0.6875 -1.609375q0 -1.1875 0.953125 -1.859375q0.953125 -0.6875 2.40625 -0.6875zm11.306488 0.203125l2.03125 7.3125l0.03125 0l1.796875 -7.3125l1.609375 0l1.875 7.28125l0.015625 0.03125l0.03125 0l2.0 -7.3125l1.53125 0l-2.84375 8.921875l-0.03125 0.03125l-1.546875 0l-1.8125 -7.078125l-0.015625 -0.046875l-0.03125 0l-1.796875 7.125l-1.59375 0l-2.875 -8.953125l1.625 0zm13.88147 -3.421875l0 1.8125l-1.484375 0l0 -1.8125l1.484375 0zm0 3.421875l0 8.953125l-1.484375 0l0 -8.953125l1.484375 0zm4.334137 -2.6875l0 2.6875l1.78125 0l0 1.296875l-1.78125 0l0 5.609375q0 0.671875 0.4375 0.71875q0.453125 0.03125 0.9375 0.03125l0.40625 0l0 1.296875l-1.21875 0q-1.203125 0 -1.625 -0.421875q-0.40625 -0.4375 -0.40625 -1.453125l0 -5.78125l-1.53125 0l0 -1.296875l1.53125 0l0 -2.6875l1.46875 0zm4.879242 -0.734375l0 4.734375l0.03125 0q0.328125 -0.71875 1.09375 -1.109375q0.765625 -0.40625 1.75 -0.40625q1.609375 0 2.34375 0.828125q0.734375 0.828125 0.734375 2.359375l0 5.96875l-1.46875 0l0 -6.125q0 -0.75 -0.5 -1.25q-0.484375 -0.5 -1.34375 -0.5q-1.234375 0 -1.9375 0.765625q-0.703125 0.765625 -0.703125 1.984375l0 5.125l-1.46875 0l0 -12.375l1.46875 0zm18.46701 -0.296875q2.0625 0 3.4375 1.078125q1.390625 1.0625 1.65625 2.953125l-1.640625 0q-0.265625 -1.28125 -1.1875 -1.953125q-0.921875 -0.6875 -2.28125 -0.6875q-1.953125 0 -3.078125 1.390625q-1.109375 1.390625 -1.109375 3.625q0 2.359375 1.09375 3.765625q1.09375 1.40625 3.109375 1.40625q1.515625 0 2.484375 -0.953125q0.96875 -0.96875 1.09375 -2.609375l1.640625 0q-0.265625 2.390625 -1.671875 3.671875q-1.390625 1.28125 -3.671875 1.28125q-2.65625 0 -4.1875 -1.75q-1.53125 -1.765625 -1.53125 -4.703125q0 -2.875 1.578125 -4.6875q1.578125 -1.828125 4.265625 -1.828125zm10.888855 3.515625q2.03125 0 3.1875 1.3125q1.171875 1.296875 1.171875 3.375q0 2.09375 -1.1875 3.390625q-1.1875 1.296875 -3.171875 1.296875q-1.9375 0 -3.140625 -1.265625q-1.203125 -1.28125 -1.203125 -3.421875q0 -2.125 1.171875 -3.40625q1.1875 -1.28125 3.171875 -1.28125zm-2.78125 4.6875q0 1.546875 0.78125 2.46875q0.78125 0.90625 2.0 0.90625q1.21875 0 2.0 -0.921875q0.796875 -0.921875 0.796875 -2.453125q0 -1.53125 -0.796875 -2.46875q-0.78125 -0.9375 -2.015625 -0.9375q-1.171875 0 -1.96875 0.921875q-0.796875 0.921875 -0.796875 2.484375zm10.434509 -7.90625l0 12.375l-1.484375 0l0 -12.375l1.484375 0zm3.7559814 3.421875l0 6.109375q0 0.75 0.484375 1.25q0.484375 0.5 1.34375 0.5q1.265625 0 1.953125 -0.765625q0.703125 -0.78125 0.703125 -1.984375l0 -5.109375l1.46875 0l0 8.953125l-1.390625 0l0 -1.421875l-0.03125 0q-0.5 0.859375 -1.234375 1.25q-0.734375 0.390625 -1.6875 0.390625q-1.5625 0 -2.328125 -0.8125q-0.75 -0.8125 -0.75 -2.390625l0 -5.96875l1.46875 0zm12.480835 -0.203125q0.984375 0 1.609375 0.390625q0.625 0.390625 0.859375 1.125q0.453125 -0.71875 1.1875 -1.109375q0.734375 -0.40625 1.625 -0.40625q1.515625 0 2.234375 0.6875q0.734375 0.671875 0.734375 1.84375l0 6.625l-1.46875 0l0 -5.9375q0 -0.96875 -0.421875 -1.453125q-0.40625 -0.484375 -1.3125 -0.484375q-1.109375 0 -1.734375 0.65625q-0.609375 0.640625 -0.609375 1.59375l0 5.625l-1.46875 0l0 -5.9375q0 -0.96875 -0.40625 -1.453125q-0.40625 -0.484375 -1.28125 -0.484375q-0.703125 0 -1.25 0.34375q-0.53125 0.34375 -0.84375 0.9375q-0.296875 0.578125 -0.296875 0.984375l0 5.609375l-1.46875 0l0 -8.953125l1.390625 0l0 1.3125l0.03125 0q0.5 -0.765625 1.21875 -1.140625q0.71875 -0.375 1.671875 -0.375zm11.984497 -3.21875l0 4.640625l0.046875 0q0.34375 -0.703125 1.078125 -1.0625q0.75 -0.359375 1.78125 -0.359375q1.921875 0 3.015625 1.328125q1.109375 1.3125 1.109375 3.375q0 2.078125 -1.109375 3.375q-1.09375 1.296875 -2.984375 1.296875q-0.828125 0 -1.640625 -0.34375q-0.796875 -0.359375 -1.25 -1.0625l-0.046875 0l0 1.1875l-1.46875 0l0 -12.375l1.46875 0zm-0.046875 7.890625q0 1.5625 0.75 2.484375q0.765625 0.90625 2.078125 0.90625q1.28125 0 1.984375 -0.90625q0.703125 -0.921875 0.703125 -2.546875q0 -1.453125 -0.75 -2.390625q-0.734375 -0.9375 -2.03125 -0.9375q-1.296875 0 -2.015625 0.953125q-0.71875 0.953125 -0.71875 2.4375zm10.3654175 -7.890625l0 1.8125l-1.484375 0l0 -1.8125l1.484375 0zm0 3.421875l0 8.953125l-1.484375 0l0 -8.953125l1.484375 0zm5.943512 -0.203125q1.828125 0 2.59375 0.65625q0.765625 0.640625 0.765625 1.734375q0 4.65625 0 5.171875q0 0.5 0.46875 0.5q0.109375 0 0.21875 -0.015625q0.125 -0.03125 0.234375 -0.0625l0 1.140625q-0.203125 0.109375 -0.46875 0.171875q-0.265625 0.078125 -0.578125 0.078125q-0.609375 0 -0.9375 -0.34375q-0.3125 -0.34375 -0.3125 -1.046875q-0.59375 0.6875 -1.390625 1.046875q-0.796875 0.34375 -1.765625 0.34375q-1.390625 0 -2.1875 -0.65625q-0.78125 -0.65625 -0.78125 -1.859375q0 -1.21875 0.765625 -1.921875q0.78125 -0.703125 3.625 -1.0625q0.96875 -0.125 1.3125 -0.359375q0.34375 -0.25 0.34375 -0.75q0 -0.734375 -0.484375 -1.109375q-0.46875 -0.375 -1.515625 -0.375q-1.09375 0 -1.640625 0.421875q-0.546875 0.40625 -0.59375 1.28125l-1.46875 0q0.078125 -1.484375 1.046875 -2.234375q0.984375 -0.75 2.75 -0.75zm-2.578125 6.75q0 0.625 0.453125 0.96875q0.453125 0.34375 1.28125 0.34375q1.234375 0 1.984375 -0.609375q0.75 -0.625 0.75 -1.390625l0 -1.53125q-0.375 0.265625 -0.96875 0.359375q-0.59375 0.078125 -1.578125 0.21875q-0.984375 0.140625 -1.453125 0.53125q-0.46875 0.390625 -0.46875 1.109375zm18.52768 -10.265625q2.0625 0 3.4375 1.078125q1.390625 1.0625 1.65625 2.953125l-1.640625 0q-0.265625 -1.28125 -1.1875 -1.953125q-0.921875 -0.6875 -2.28125 -0.6875q-1.953125 0 -3.078125 1.390625q-1.109375 1.390625 -1.109375 3.625q0 2.359375 1.09375 3.765625q1.09375 1.40625 3.109375 1.40625q1.515625 0 2.484375 -0.953125q0.96875 -0.96875 1.09375 -2.609375l1.640625 0q-0.265625 2.390625 -1.671875 3.671875q-1.390625 1.28125 -3.671875 1.28125q-2.65625 0 -4.1875 -1.75q-1.53125 -1.765625 -1.53125 -4.703125q0 -2.875 1.578125 -4.6875q1.578125 -1.828125 4.265625 -1.828125zm10.748199 3.515625q1.9375 0 3.0 1.390625q1.0625 1.375 1.0625 3.546875l0 0.1875l-6.703125 0l0 0.109375q0 1.28125 0.734375 2.0625q0.75 0.765625 2.046875 0.765625q0.984375 0 1.5625 -0.453125q0.578125 -0.453125 0.765625 -1.296875l1.453125 0q-0.296875 1.484375 -1.3125 2.28125q-1.0 0.78125 -2.515625 0.78125q-1.40625 0 -2.390625 -0.640625q-0.96875 -0.640625 -1.4375 -1.78125q-0.46875 -1.140625 -0.46875 -2.328125q0 -1.984375 1.1875 -3.296875q1.203125 -1.328125 3.015625 -1.328125zm-2.640625 3.8125l5.140625 0q-0.0625 -1.09375 -0.796875 -1.8125q-0.71875 -0.71875 -1.796875 -0.71875q-1.015625 0 -1.734375 0.6875q-0.71875 0.6875 -0.8125 1.84375zm12.572723 -3.8125q1.609375 0 2.34375 0.828125q0.734375 0.828125 0.734375 2.359375l0 5.96875l-1.46875 0l0 -6.125q0 -0.75 -0.5 -1.25q-0.484375 -0.5 -1.34375 -0.5q-1.234375 0 -1.9375 0.765625q-0.703125 0.765625 -0.703125 1.984375l0 5.125l-1.46875 0l0 -8.953125l1.390625 0l0 1.421875l0.03125 0q0.484375 -0.84375 1.203125 -1.234375q0.71875 -0.390625 1.71875 -0.390625zm7.34021 -2.484375l0 2.6875l1.78125 0l0 1.296875l-1.78125 0l0 5.609375q0 0.671875 0.4375 0.71875q0.453125 0.03125 0.9375 0.03125l0.40625 0l0 1.296875l-1.21875 0q-1.203125 0 -1.625 -0.421875q-0.40625 -0.4375 -0.40625 -1.453125l0 -5.78125l-1.53125 0l0 -1.296875l1.53125 0l0 -2.6875l1.46875 0zm7.8635864 2.46875q0.0625 0 0.09375 0q0.046875 0 0.109375 0.015625l0 1.546875q-1.65625 0 -2.453125 0.890625q-0.78125 0.875 -0.78125 2.703125l0 4.015625l-1.46875 0l0 -8.953125l1.375 0l0 1.875l0.046875 0q0.515625 -1.0625 1.265625 -1.578125q0.765625 -0.515625 1.8125 -0.515625zm4.5588074 0.015625q1.828125 0 2.59375 0.65625q0.765625 0.640625 0.765625 1.734375q0 4.65625 0 5.171875q0 0.5 0.46875 0.5q0.109375 0 0.21875 -0.015625q0.125 -0.03125 0.234375 -0.0625l0 1.140625q-0.203125 0.109375 -0.46875 0.171875q-0.265625 0.078125 -0.578125 0.078125q-0.609375 0 -0.9375 -0.34375q-0.3125 -0.34375 -0.3125 -1.046875q-0.59375 0.6875 -1.390625 1.046875q-0.796875 0.34375 -1.765625 0.34375q-1.390625 0 -2.1875 -0.65625q-0.78125 -0.65625 -0.78125 -1.859375q0 -1.21875 0.765625 -1.921875q0.78125 -0.703125 3.625 -1.0625q0.96875 -0.125 1.3125 -0.359375q0.34375 -0.25 0.34375 -0.75q0 -0.734375 -0.484375 -1.109375q-0.46875 -0.375 -1.515625 -0.375q-1.09375 0 -1.640625 0.421875q-0.546875 0.40625 -0.59375 1.28125l-1.46875 0q0.078125 -1.484375 1.046875 -2.234375q0.984375 -0.75 2.75 -0.75zm-2.578125 6.75q0 0.625 0.453125 0.96875q0.453125 0.34375 1.28125 0.34375q1.234375 0 1.984375 -0.609375q0.75 -0.625 0.75 -1.390625l0 -1.53125q-0.375 0.265625 -0.96875 0.359375q-0.59375 0.078125 -1.578125 0.21875q-0.984375 0.140625 -1.453125 0.53125q-0.46875 0.390625 -0.46875 1.109375zm9.791473 -9.96875l0 12.375l-1.484375 0l0 -12.375l1.484375 0z" fill-rule="nonzero"/><path fill="#000000" d="m69.022705 219.91618q0.9375 0 1.828125 0.484375q0.90625 0.46875 1.390625 1.375q0.5 0.890625 0.5 1.859375q0 1.546875 -1.09375 2.640625q-1.078125 1.09375 -2.625 1.09375q-1.546875 0 -2.640625 -1.09375q-1.09375 -1.09375 -1.09375 -2.640625q0 -0.96875 0.5 -1.859375q0.5 -0.90625 1.390625 -1.375q0.90625 -0.484375 1.84375 -0.484375z" fill-rule="nonzero"/><path fill="#000000" d="m101.17647 216.15056l0 7.96875q0 1.515625 0.859375 2.421875q0.875 0.890625 2.578125 0.890625q1.609375 0 2.421875 -0.890625q0.8125 -0.890625 0.8125 -2.421875l0 -7.96875l1.640625 0l0 8.0q0 2.171875 -1.234375 3.421875q-1.21875 1.25 -3.640625 1.25q-2.53125 0 -3.8125 -1.21875q-1.265625 -1.21875 -1.265625 -3.453125l0 -8.0l1.640625 0zm13.685699 3.21875q1.796875 0 2.671875 0.703125q0.890625 0.6875 0.96875 2.09375l-1.46875 0l0 -0.015625q-0.0625 -0.71875 -0.625 -1.109375q-0.5625 -0.390625 -1.4375 -0.390625q-0.890625 0 -1.40625 0.3125q-0.515625 0.296875 -0.515625 0.84375q0 0.484375 0.453125 0.796875q0.453125 0.3125 1.375 0.5l1.375 0.3125q1.3125 0.296875 1.984375 0.890625q0.671875 0.59375 0.671875 1.609375q0 1.3125 -1.03125 2.078125q-1.015625 0.75 -2.78125 0.75q-1.71875 0 -2.734375 -0.765625q-1.0 -0.78125 -1.0625 -2.28125l1.484375 0q0.03125 0.84375 0.65625 1.296875q0.640625 0.4375 1.75 0.4375q1.0625 0 1.609375 -0.328125q0.546875 -0.34375 0.546875 -1.0q0 -0.609375 -0.546875 -0.953125q-0.546875 -0.359375 -2.234375 -0.6875q-1.6875 -0.34375 -2.375 -0.9375q-0.6875 -0.609375 -0.6875 -1.609375q0 -1.1875 0.953125 -1.859375q0.953125 -0.6875 2.40625 -0.6875zm9.3359375 0q1.828125 0 2.59375 0.65625q0.765625 0.640625 0.765625 1.734375q0 4.65625 0 5.171875q0 0.5 0.46875 0.5q0.109375 0 0.21875 -0.015625q0.125 -0.03125 0.234375 -0.0625l0 1.140625q-0.203125 0.109375 -0.46875 0.171875q-0.265625 0.078125 -0.578125 0.078125q-0.609375 0 -0.9375 -0.34375q-0.3125 -0.34375 -0.3125 -1.046875q-0.59375 0.6875 -1.390625 1.046875q-0.796875 0.34375 -1.765625 0.34375q-1.390625 0 -2.1875 -0.65625q-0.78125 -0.65625 -0.78125 -1.859375q0 -1.21875 0.765625 -1.921875q0.78125 -0.703125 3.625 -1.0625q0.96875 -0.125 1.3125 -0.359375q0.34375 -0.25 0.34375 -0.75q0 -0.734375 -0.484375 -1.109375q-0.46875 -0.375 -1.515625 -0.375q-1.09375 0 -1.640625 0.421875q-0.546875 0.40625 -0.59375 1.28125l-1.46875 0q0.078125 -1.484375 1.046875 -2.234375q0.984375 -0.75 2.75 -0.75zm-2.578125 6.75q0 0.625 0.453125 0.96875q0.453125 0.34375 1.28125 0.34375q1.234375 0 1.984375 -0.609375q0.75 -0.625 0.75 -1.390625l0 -1.53125q-0.375 0.265625 -0.96875 0.359375q-0.59375 0.078125 -1.578125 0.21875q-0.984375 0.140625 -1.453125 0.53125q-0.46875 0.390625 -0.46875 1.109375zm9.744598 -9.96875l0 4.640625l0.046875 0q0.34375 -0.703125 1.078125 -1.0625q0.75 -0.359375 1.78125 -0.359375q1.921875 0 3.015625 1.328125q1.109375 1.3125 1.109375 3.375q0 2.078125 -1.109375 3.375q-1.09375 1.296875 -2.984375 1.296875q-0.828125 0 -1.640625 -0.34375q-0.796875 -0.359375 -1.25 -1.0625l-0.046875 0l0 1.1875l-1.46875 0l0 -12.375l1.46875 0zm-0.046875 7.890625q0 1.5625 0.75 2.484375q0.765625 0.90625 2.078125 0.90625q1.28125 0 1.984375 -0.90625q0.703125 -0.921875 0.703125 -2.546875q0 -1.453125 -0.75 -2.390625q-0.734375 -0.9375 -2.03125 -0.9375q-1.296875 0 -2.015625 0.953125q-0.71875 0.953125 -0.71875 2.4375zm10.365402 -7.890625l0 1.8125l-1.484375 0l0 -1.8125l1.484375 0zm0 3.421875l0 8.953125l-1.484375 0l0 -8.953125l1.484375 0zm3.849762 -3.421875l0 12.375l-1.484375 0l0 -12.375l1.484375 0zm3.849762 0l0 1.8125l-1.484375 0l0 -1.8125l1.484375 0zm0 3.421875l0 8.953125l-1.484375 0l0 -8.953125l1.484375 0zm4.334137 -2.6875l0 2.6875l1.78125 0l0 1.296875l-1.78125 0l0 5.609375q0 0.671875 0.4375 0.71875q0.453125 0.03125 0.9375 0.03125l0.40625 0l0 1.296875l-1.21875 0q-1.203125 0 -1.625 -0.421875q-0.40625 -0.4375 -0.40625 -1.453125l0 -5.78125l-1.53125 0l0 -1.296875l1.53125 0l0 -2.6875l1.46875 0zm4.0979767 2.6875l2.625 7.3125l0.03125 0l2.515625 -7.3125l1.5625 0l-3.8125 9.90625q-0.59375 1.546875 -1.15625 2.09375q-0.546875 0.546875 -1.53125 0.546875q-0.265625 0 -0.53125 -0.046875q-0.25 -0.03125 -0.5 -0.109375l0 -1.359375q0.21875 0.078125 0.4375 0.140625q0.21875 0.0625 0.4375 0.0625q0.890625 0 1.25 -0.90625q0.359375 -0.890625 0.5625 -1.421875l-3.546875 -8.90625l1.65625 0zm14.837753 -2.6875l0 2.6875l1.78125 0l0 1.296875l-1.78125 0l0 5.609375q0 0.671875 0.4375 0.71875q0.453125 0.03125 0.9375 0.03125l0.40625 0l0 1.296875l-1.21875 0q-1.203125 0 -1.625 -0.421875q-0.40625 -0.4375 -0.40625 -1.453125l0 -5.78125l-1.53125 0l0 -1.296875l1.53125 0l0 -2.6875l1.46875 0zm6.917633 2.484375q1.9375 0 3.0 1.390625q1.0625 1.375 1.0625 3.546875l0 0.1875l-6.703125 0l0 0.109375q0 1.28125 0.734375 2.0625q0.75 0.765625 2.046875 0.765625q0.984375 0 1.5625 -0.453125q0.578125 -0.453125 0.765625 -1.296875l1.453125 0q-0.296875 1.484375 -1.3125 2.28125q-1.0 0.78125 -2.515625 0.78125q-1.40625 0 -2.390625 -0.640625q-0.96875 -0.640625 -1.4375 -1.78125q-0.46875 -1.140625 -0.46875 -2.328125q0 -1.984375 1.1875 -3.296875q1.203125 -1.328125 3.015625 -1.328125zm-2.640625 3.8125l5.140625 0q-0.0625 -1.09375 -0.796875 -1.8125q-0.71875 -0.71875 -1.796875 -0.71875q-1.015625 0 -1.734375 0.6875q-0.71875 0.6875 -0.8125 1.84375zm11.213348 -3.8125q1.796875 0 2.671875 0.703125q0.890625 0.6875 0.96875 2.09375l-1.46875 0l0 -0.015625q-0.0625 -0.71875 -0.625 -1.109375q-0.5625 -0.390625 -1.4375 -0.390625q-0.890625 0 -1.40625 0.3125q-0.515625 0.296875 -0.515625 0.84375q0 0.484375 0.453125 0.796875q0.453125 0.3125 1.375 0.5l1.375 0.3125q1.3125 0.296875 1.984375 0.890625q0.671875 0.59375 0.671875 1.609375q0 1.3125 -1.03125 2.078125q-1.015625 0.75 -2.78125 0.75q-1.71875 0 -2.734375 -0.765625q-1.0 -0.78125 -1.0625 -2.28125l1.484375 0q0.03125 0.84375 0.65625 1.296875q0.640625 0.4375 1.75 0.4375q1.0625 0 1.609375 -0.328125q0.546875 -0.34375 0.546875 -1.0q0 -0.609375 -0.546875 -0.953125q-0.546875 -0.359375 -2.234375 -0.6875q-1.6875 -0.34375 -2.375 -0.9375q-0.6875 -0.609375 -0.6875 -1.609375q0 -1.1875 0.953125 -1.859375q0.953125 -0.6875 2.40625 -0.6875zm7.7265625 -2.484375l0 2.6875l1.78125 0l0 1.296875l-1.78125 0l0 5.609375q0 0.671875 0.4375 0.71875q0.453125 0.03125 0.9375 0.03125l0.40625 0l0 1.296875l-1.21875 0q-1.203125 0 -1.625 -0.421875q-0.40625 -0.4375 -0.40625 -1.453125l0 -5.78125l-1.53125 0l0 -1.296875l1.53125 0l0 -2.6875l1.46875 0zm4.9729767 -0.734375l0 1.8125l-1.484375 0l0 -1.8125l1.484375 0zm0 3.421875l0 8.953125l-1.484375 0l0 -8.953125l1.484375 0zm6.631012 -0.203125q1.609375 0 2.34375 0.828125q0.734375 0.828125 0.734375 2.359375l0 5.96875l-1.46875 0l0 -6.125q0 -0.75 -0.5 -1.25q-0.484375 -0.5 -1.34375 -0.5q-1.234375 0 -1.9375 0.765625q-0.703125 0.765625 -0.703125 1.984375l0 5.125l-1.46875 0l0 -8.953125l1.390625 0l0 1.421875l0.03125 0q0.484375 -0.84375 1.203125 -1.234375q0.71875 -0.390625 1.71875 -0.390625zm8.93396 0q0.9375 0 1.625 0.40625q0.6875 0.40625 1.0625 1.078125l0.015625 0l0 -1.28125l1.375 0l0 8.28125q0 2.109375 -1.015625 3.203125q-1.015625 1.109375 -3.125 1.109375q-1.546875 0 -2.59375 -0.6875q-1.046875 -0.671875 -1.125 -1.953125l1.46875 0q0.046875 0.6875 0.734375 1.078125q0.703125 0.390625 1.59375 0.390625q1.296875 0 1.984375 -0.875q0.703125 -0.859375 0.703125 -2.5625l0 -0.546875l-0.03125 0q-0.34375 0.734375 -1.09375 1.171875q-0.75 0.4375 -1.703125 0.4375q-1.828125 0 -2.921875 -1.25q-1.078125 -1.25 -1.078125 -3.28125q0 -2.046875 1.078125 -3.375q1.09375 -1.34375 3.046875 -1.34375zm-2.5625 4.546875q0 1.59375 0.65625 2.515625q0.671875 0.90625 1.875 0.90625q1.21875 0 1.9375 -0.9375q0.71875 -0.953125 0.71875 -2.53125q0 -1.4375 -0.671875 -2.328125q-0.65625 -0.890625 -1.890625 -0.890625q-1.234375 0 -1.9375 0.890625q-0.6875 0.890625 -0.6875 2.375zm14.498825 -4.34375l2.03125 7.3125l0.03125 0l1.796875 -7.3125l1.609375 0l1.875 7.28125l0.015625 0.03125l0.03125 0l2.0 -7.3125l1.53125 0l-2.84375 8.921875l-0.03125 0.03125l-1.546875 0l-1.8125 -7.078125l-0.015625 -0.046875l-0.03125 0l-1.796875 7.125l-1.59375 0l-2.875 -8.953125l1.625 0zm13.88147 -3.421875l0 1.8125l-1.484375 0l0 -1.8125l1.484375 0zm0 3.421875l0 8.953125l-1.484375 0l0 -8.953125l1.484375 0zm4.334137 -2.6875l0 2.6875l1.78125 0l0 1.296875l-1.78125 0l0 5.609375q0 0.671875 0.4375 0.71875q0.453125 0.03125 0.9375 0.03125l0.40625 0l0 1.296875l-1.21875 0q-1.203125 0 -1.625 -0.421875q-0.40625 -0.4375 -0.40625 -1.453125l0 -5.78125l-1.53125 0l0 -1.296875l1.53125 0l0 -2.6875l1.46875 0zm4.8792267 -0.734375l0 4.734375l0.03125 0q0.328125 -0.71875 1.09375 -1.109375q0.765625 -0.40625 1.75 -0.40625q1.609375 0 2.3437653 0.828125q0.734375 0.828125 0.734375 2.359375l0 5.96875l-1.4687653 0l0 -6.125q0 -0.75 -0.5 -1.25q-0.484375 -0.5 -1.34375 -0.5q-1.234375 0 -1.9375 0.765625q-0.703125 0.765625 -0.703125 1.984375l0 5.125l-1.46875 0l0 -12.375l1.46875 0zm17.29515 3.21875q0.984375 0 1.609375 0.390625q0.625 0.390625 0.859375 1.125q0.453125 -0.71875 1.1875 -1.109375q0.734375 -0.40625 1.625 -0.40625q1.515625 0 2.234375 0.6875q0.734375 0.671875 0.734375 1.84375l0 6.625l-1.46875 0l0 -5.9375q0 -0.96875 -0.421875 -1.453125q-0.40625 -0.484375 -1.3125 -0.484375q-1.109375 0 -1.734375 0.65625q-0.609375 0.640625 -0.609375 1.59375l0 5.625l-1.46875 0l0 -5.9375q0 -0.96875 -0.40625 -1.453125q-0.40625 -0.484375 -1.28125 -0.484375q-0.703125 0 -1.25 0.34375q-0.53125 0.34375 -0.84375 0.9375q-0.296875 0.578125 -0.296875 0.984375l0 5.609375l-1.46875 0l0 -8.953125l1.390625 0l0 1.3125l0.03125 0q0.5 -0.765625 1.21875 -1.140625q0.71875 -0.375 1.671875 -0.375zm14.328247 0q2.03125 0 3.1875 1.3125q1.171875 1.296875 1.171875 3.375q0 2.09375 -1.1875 3.390625q-1.1875 1.296875 -3.171875 1.296875q-1.9375 0 -3.140625 -1.265625q-1.203125 -1.28125 -1.203125 -3.421875q0 -2.125 1.171875 -3.40625q1.1875 -1.28125 3.171875 -1.28125zm-2.78125 4.6875q0 1.546875 0.78125 2.46875q0.78125 0.90625 2.0 0.90625q1.21875 0 2.0 -0.921875q0.796875 -0.921875 0.796875 -2.453125q0 -1.53125 -0.796875 -2.46875q-0.78125 -0.9375 -2.015625 -0.9375q-1.171875 0 -1.96875 0.921875q-0.796875 0.921875 -0.796875 2.484375zm13.325134 -4.703125q0.0625 0 0.09375 0q0.046875 0 0.109375 0.015625l0 1.546875q-1.65625 0 -2.453125 0.890625q-0.78125 0.875 -0.78125 2.703125l0 4.015625l-1.46875 0l0 -8.953125l1.375 0l0 1.875l0.046875 0q0.515625 -1.0625 1.265625 -1.578125q0.765625 -0.515625 1.8125 -0.515625zm4.7229004 0.015625q1.9375 0 3.0 1.390625q1.0625 1.375 1.0625 3.546875l0 0.1875l-6.7031555 0l0 0.109375q0 1.28125 0.734375 2.0625q0.75 0.765625 2.0469055 0.765625q0.984375 0 1.5625 -0.453125q0.578125 -0.453125 0.765625 -1.296875l1.453125 0q-0.296875 1.484375 -1.3125 2.28125q-1.0 0.78125 -2.515625 0.78125q-1.4062805 0 -2.3906555 -0.640625q-0.96875 -0.640625 -1.4375 -1.78125q-0.46875 -1.140625 -0.46875 -2.328125q0 -1.984375 1.1875 -3.296875q1.203125 -1.328125 3.0156555 -1.328125zm-2.6406555 3.8125l5.1406555 0q-0.0625 -1.09375 -0.796875 -1.8125q-0.71875 -0.71875 -1.796875 -0.71875q-1.0156555 0 -1.7344055 0.6875q-0.71875 0.6875 -0.8125 1.84375zm17.46518 -3.8125q1.921875 0 3.015625 1.328125q1.109375 1.3125 1.109375 3.375q0 2.078125 -1.109375 3.375q-1.09375 1.296875 -2.984375 1.296875q-0.828125 0 -1.640625 -0.34375q-0.796875 -0.359375 -1.25 -1.0625l-0.046875 0l0 4.625l-1.46875 0l0 -12.390625l1.46875 0l0 1.21875l0.046875 0q0.34375 -0.703125 1.09375 -1.0625q0.75 -0.359375 1.765625 -0.359375zm-2.953125 4.671875q0 1.5625 0.75 2.484375q0.765625 0.90625 2.078125 0.90625q1.28125 0 1.984375 -0.90625q0.703125 -0.921875 0.703125 -2.546875q0 -1.453125 -0.75 -2.390625q-0.734375 -0.9375 -2.03125 -0.9375q-1.296875 0 -2.015625 0.953125q-0.71875 0.953125 -0.71875 2.4375zm12.4591675 -4.671875q1.828125 0 2.59375 0.65625q0.765625 0.640625 0.765625 1.734375q0 4.65625 0 5.171875q0 0.5 0.46875 0.5q0.109375 0 0.21875 -0.015625q0.125 -0.03125 0.234375 -0.0625l0 1.140625q-0.203125 0.109375 -0.46875 0.171875q-0.265625 0.078125 -0.578125 0.078125q-0.609375 0 -0.9375 -0.34375q-0.3125 -0.34375 -0.3125 -1.046875q-0.59375 0.6875 -1.390625 1.046875q-0.796875 0.34375 -1.765625 0.34375q-1.390625 0 -2.1875 -0.65625q-0.78125 -0.65625 -0.78125 -1.859375q0 -1.21875 0.765625 -1.921875q0.78125 -0.703125 3.625 -1.0625q0.96875 -0.125 1.3125 -0.359375q0.34375 -0.25 0.34375 -0.75q0 -0.734375 -0.484375 -1.109375q-0.46875 -0.375 -1.515625 -0.375q-1.09375 0 -1.640625 0.421875q-0.546875 0.40625 -0.59375 1.28125l-1.46875 0q0.078125 -1.484375 1.046875 -2.234375q0.984375 -0.75 2.75 -0.75zm-2.578125 6.75q0 0.625 0.453125 0.96875q0.453125 0.34375 1.28125 0.34375q1.234375 0 1.984375 -0.609375q0.75 -0.625 0.75 -1.390625l0 -1.53125q-0.375 0.265625 -0.96875 0.359375q-0.59375 0.078125 -1.578125 0.21875q-0.984375 0.140625 -1.453125 0.53125q-0.46875 0.390625 -0.46875 1.109375zm12.682068 -6.765625q0.0625 0 0.09375 0q0.046875 0 0.109375 0.015625l0 1.546875q-1.65625 0 -2.453125 0.890625q-0.78125 0.875 -0.78125 2.703125l0 4.015625l-1.46875 0l0 -8.953125l1.375 0l0 1.875l0.046875 0q0.515625 -1.0625 1.265625 -1.578125q0.765625 -0.515625 1.8125 -0.515625zm3.4487915 -2.46875l0 2.6875l1.78125 0l0 1.296875l-1.78125 0l0 5.609375q0 0.671875 0.4375 0.71875q0.453125 0.03125 0.9375 0.03125l0.40625 0l0 1.296875l-1.21875 0q-1.203125 0 -1.625 -0.421875q-0.40625 -0.4375 -0.40625 -1.453125l0 -5.78125l-1.53125 0l0 -1.296875l1.53125 0l0 -2.6875l1.46875 0zm4.972992 -0.734375l0 1.8125l-1.484375 0l0 -1.8125l1.484375 0zm0 3.421875l0 8.953125l-1.484375 0l0 -8.953125l1.484375 0zm6.021637 -0.203125q1.640625 0 2.65625 0.78125q1.03125 0.765625 1.21875 2.296875l-1.53125 0q-0.171875 -0.875 -0.75 -1.328125q-0.578125 -0.46875 -1.46875 -0.46875q-1.359375 0 -2.078125 0.921875q-0.703125 0.921875 -0.703125 2.59375q0 1.484375 0.703125 2.375q0.703125 0.890625 1.90625 0.890625q1.078125 0 1.6875 -0.578125q0.625 -0.578125 0.78125 -1.609375l1.5 0q-0.25 1.6875 -1.265625 2.59375q-1.015625 0.90625 -2.6875 0.90625q-1.953125 0 -3.078125 -1.234375q-1.109375 -1.234375 -1.109375 -3.34375q0 -2.203125 1.125 -3.5q1.140625 -1.296875 3.09375 -1.296875zm7.1352234 -3.21875l0 1.8125l-1.484375 0l0 -1.8125l1.484375 0zm0 3.421875l0 8.953125l-1.484375 0l0 -8.953125l1.484375 0zm6.709137 -0.203125q1.921875 0 3.015625 1.328125q1.109375 1.3125 1.109375 3.375q0 2.078125 -1.109375 3.375q-1.09375 1.296875 -2.984375 1.296875q-0.828125 0 -1.640625 -0.34375q-0.796875 -0.359375 -1.25 -1.0625l-0.046875 0l0 4.625l-1.46875 0l0 -12.390625l1.46875 0l0 1.21875l0.046875 0q0.34375 -0.703125 1.09375 -1.0625q0.75 -0.359375 1.765625 -0.359375zm-2.953125 4.671875q0 1.5625 0.75 2.484375q0.765625 0.90625 2.078125 0.90625q1.28125 0 1.984375 -0.90625q0.703125 -0.921875 0.703125 -2.546875q0 -1.453125 -0.75 -2.390625q-0.734375 -0.9375 -2.03125 -0.9375q-1.296875 0 -2.015625 0.953125q-0.71875 0.953125 -0.71875 2.4375zm12.4591675 -4.671875q1.828125 0 2.59375 0.65625q0.765625 0.640625 0.765625 1.734375q0 4.65625 0 5.171875q0 0.5 0.46875 0.5q0.109375 0 0.21875 -0.015625q0.125 -0.03125 0.234375 -0.0625l0 1.140625q-0.203125 0.109375 -0.46875 0.171875q-0.265625 0.078125 -0.578125 0.078125q-0.609375 0 -0.9375 -0.34375q-0.3125 -0.34375 -0.3125 -1.046875q-0.59375 0.6875 -1.390625 1.046875q-0.796875 0.34375 -1.765625 0.34375q-1.390625 0 -2.1875 -0.65625q-0.78125 -0.65625 -0.78125 -1.859375q0 -1.21875 0.765625 -1.921875q0.78125 -0.703125 3.625 -1.0625q0.96875 -0.125 1.3125 -0.359375q0.34375 -0.25 0.34375 -0.75q0 -0.734375 -0.484375 -1.109375q-0.46875 -0.375 -1.515625 -0.375q-1.09375 0 -1.640625 0.421875q-0.546875 0.40625 -0.59375 1.28125l-1.46875 0q0.078125 -1.484375 1.046875 -2.234375q0.984375 -0.75 2.75 -0.75zm-2.578125 6.75q0 0.625 0.453125 0.96875q0.453125 0.34375 1.28125 0.34375q1.234375 0 1.984375 -0.609375q0.75 -0.625 0.75 -1.390625l0 -1.53125q-0.375 0.265625 -0.96875 0.359375q-0.59375 0.078125 -1.578125 0.21875q-0.984375 0.140625 -1.453125 0.53125q-0.46875 0.390625 -0.46875 1.109375zm12.572723 -6.75q1.609375 0 2.34375 0.828125q0.734375 0.828125 0.734375 2.359375l0 5.96875l-1.46875 0l0 -6.125q0 -0.75 -0.5 -1.25q-0.484375 -0.5 -1.34375 -0.5q-1.234375 0 -1.9375 0.765625q-0.703125 0.765625 -0.703125 1.984375l0 5.125l-1.46875 0l0 -8.953125l1.390625 0l0 1.421875l0.03125 0q0.484375 -0.84375 1.203125 -1.234375q0.71875 -0.390625 1.71875 -0.390625zm7.34021 -2.484375l0 2.6875l1.78125 0l0 1.296875l-1.78125 0l0 5.609375q0 0.671875 0.4375 0.71875q0.453125 0.03125 0.9375 0.03125l0.40625 0l0 1.296875l-1.21875 0q-1.203125 0 -1.625 -0.421875q-0.40625 -0.4375 -0.40625 -1.453125l0 -5.78125l-1.53125 0l0 -1.296875l1.53125 0l0 -2.6875l1.46875 0zm6.394867 2.484375q1.796875 0 2.671875 0.703125q0.890625 0.6875 0.96875 2.09375l-1.46875 0l0 -0.015625q-0.0625 -0.71875 -0.625 -1.109375q-0.5625 -0.390625 -1.4375 -0.390625q-0.890625 0 -1.40625 0.3125q-0.515625 0.296875 -0.515625 0.84375q0 0.484375 0.453125 0.796875q0.453125 0.3125 1.375 0.5l1.375 0.3125q1.3125 0.296875 1.984375 0.890625q0.671875 0.59375 0.671875 1.609375q0 1.3125 -1.03125 2.078125q-1.015625 0.75 -2.78125 0.75q-1.71875 0 -2.734375 -0.765625q-1.0 -0.78125 -1.0625 -2.28125l1.484375 0q0.03125 0.84375 0.65625 1.296875q0.640625 0.4375 1.75 0.4375q1.0625 0 1.609375 -0.328125q0.546875 -0.34375 0.546875 -1.0q0 -0.609375 -0.546875 -0.953125q-0.546875 -0.359375 -2.234375 -0.6875q-1.6875 -0.34375 -2.375 -0.9375q-0.6875 -0.609375 -0.6875 -1.609375q0 -1.1875 0.953125 -1.859375q0.953125 -0.6875 2.40625 -0.6875z" fill-rule="nonzero"/></g></svg>