<svg version="1.1" viewBox="0.0 0.0 960.0 540.0" fill="none" stroke="none" stroke-linecap="square" stroke-miterlimit="10" xmlns:xlink="http://www.w3.org/1999/xlink" xmlns="http://www.w3.org/2000/svg"><clipPath id="gcfd67b5844_0_78.0"><path d="m0 0l960.0 0l0 540.0l-960.0 0l0 -540.0z" clip-rule="nonzero"/></clipPath><g clip-path="url(#gcfd67b5844_0_78.0)"><path fill="#25b2d5" d="m0 0l960.0 0l0 540.0l-960.0 0z" fill-rule="evenodd"/><path fill="#000000" fill-opacity="0.0" d="m32.72441 0l894.55115 0l0 540.0l-894.55115 0z" fill-rule="evenodd"/><path fill="#ffffff" d="m304.3539 298.8l-11.671875 -21.203125l-3.28125 0l0 21.203125l-13.6874695 0l0 -56.15625l22.96872 0q6.640625 0 11.3125 2.328125q4.6875 2.3125 7.0 6.359375q2.328125 4.03125 2.328125 8.984375q0 5.609375 -3.171875 10.015625q-3.15625 4.390625 -9.3125 6.234375l12.96875 22.234375l-15.453125 0zm-14.953125 -30.875l8.484375 0q3.75 0 5.625 -1.84375q1.890625 -1.84375 1.890625 -5.203125q0 -3.203125 -1.890625 -5.03125q-1.875 -1.84375 -5.625 -1.84375l-8.484375 0l0 13.921875zm52.159973 -14.328125l0 11.359375l18.3125 0l0 10.5625l-18.3125 0l0 12.328125l20.71875 0l0 10.953125l-34.40625 0l0 -56.15625l34.40625 0l0 10.953125l-20.71875 0zm49.920593 45.765625q-6.15625 0 -11.046875 -2.0q-4.875 -2.0 -7.796875 -5.921875q-2.921875 -3.921875 -3.078125 -9.4375l14.5625 0q0.3125 3.109375 2.15625 4.75q1.84375 1.640625 4.796875 1.640625q3.046875 0 4.796875 -1.390625q1.765625 -1.40625 1.765625 -3.890625q0 -2.078125 -1.40625 -3.4375q-1.390625 -1.359375 -3.4375 -2.234375q-2.03125 -0.875 -5.796875 -2.0q-5.4375 -1.6875 -8.875 -3.359375q-3.4375 -1.6875 -5.921875 -4.953125q-2.484375 -3.28125 -2.484375 -8.5625q0 -7.84375 5.671875 -12.28125q5.6875 -4.4375 14.8125 -4.4375q9.28125 0 14.953125 4.4375q5.6875 4.4375 6.09375 12.359375l-14.8125 0q-0.15625 -2.71875 -2.0 -4.28125q-1.828125 -1.5625 -4.71875 -1.5625q-2.46875 0 -4.0 1.328125q-1.515625 1.3125 -1.515625 3.796875q0 2.71875 2.5625 4.234375q2.5625 1.515625 8.0 3.28125q5.4375 1.84375 8.828125 3.53125q3.40625 1.671875 5.890625 4.875q2.484375 3.1875 2.484375 8.234375q0 4.796875 -2.453125 8.71875q-2.4375 3.921875 -7.078125 6.25q-4.640625 2.3125 -10.953125 2.3125zm42.559326 -45.765625l0 11.359375l18.3125 0l0 10.5625l-18.3125 0l0 12.328125l20.71875 0l0 10.953125l-34.40625 0l0 -56.15625l34.40625 0l0 10.953125l-20.71875 0zm64.56119 35.28125l-20.96875 0l-3.359375 9.921875l-14.3125 0l20.3125 -56.15625l15.84375 0l20.328125 56.15625l-14.484375 0l-3.359375 -9.921875zm-3.515625 -10.5625l-6.96875 -20.5625l-6.875 20.5625l13.84375 0zm56.14746 20.484375l-11.671875 -21.203125l-3.28125 0l0 21.203125l-13.6875 0l0 -56.15625l22.96875 0q6.640625 0 11.3125 2.328125q4.6875 2.3125 7.0 6.359375q2.328125 4.03125 2.328125 8.984375q0 5.609375 -3.171875 10.015625q-3.15625 4.390625 -9.3125 6.234375l12.96875 22.234375l-15.453125 0zm-14.953125 -30.875l8.484375 0q3.75 0 5.625 -1.84375q1.890625 -1.84375 1.890625 -5.203125q0 -3.203125 -1.890625 -5.03125q-1.875 -1.84375 -5.625 -1.84375l-8.484375 0l0 13.921875zm36.159973 2.71875q0 -8.328125 3.59375 -14.84375q3.609375 -6.515625 10.046875 -10.15625q6.4375 -3.640625 14.59375 -3.640625q10.0 0 17.125 5.28125q7.125 5.28125 9.515625 14.390625l-15.03125 0q-1.6875 -3.515625 -4.765625 -5.34375q-3.078125 -1.84375 -7.0 -1.84375q-6.3125 0 -10.234375 4.40625q-3.921875 4.390625 -3.921875 11.75q0 7.359375 3.921875 11.765625q3.921875 4.390625 10.234375 4.390625q3.921875 0 7.0 -1.84375q3.078125 -1.84375 4.765625 -5.359375l15.03125 0q-2.390625 9.125 -9.515625 14.375q-7.125 5.234375 -17.125 5.234375q-8.15625 0 -14.59375 -3.640625q-6.4375 -3.640625 -10.046875 -10.125q-3.59375 -6.484375 -3.59375 -14.796875zm111.913086 -28.0l0 56.15625l-13.671875 0l0 -23.125l-21.28125 0l0 23.125l-13.6875 0l0 -56.15625l13.6875 0l0 22.0l21.28125 0l0 -22.0l13.671875 0z" fill-rule="nonzero"/></g></svg>