<svg width="16" height="18" viewBox="0 0 16 18" fill="none" xmlns="http://www.w3.org/2000/svg">
<path d="M15.2119 9.59908C15.1847 9.55004 15.1524 9.50404 15.1154 9.46183C13.9609 7.3578 12.922 7.0293 12.0872 6.76605C11.7902 6.6724 11.5095 6.58409 11.2542 6.42349C10.0172 5.64499 9.46396 4.59537 9.01906 3.75162C8.95912 3.63771 8.90118 3.52718 8.84324 3.42143C8.03409 1.93755 6.74906 1.12052 5.22552 1.12052C4.9139 1.12052 4.59215 1.15483 4.26787 1.22177C3.81281 0.554923 3.05877 0.367048 2.37899 0.782455C1.69865 1.19787 1.48237 1.9578 1.81002 2.71465C0.5129 4.27333 0.32981 6.18696 1.31418 7.9923C1.37212 8.09833 1.43343 8.20774 1.49699 8.32052C1.96499 9.15077 2.54746 10.1841 2.56546 11.711C2.5694 12.0296 2.50106 12.3328 2.42821 12.6543C2.22881 13.5371 1.9844 14.6346 3.08521 16.6964C3.10096 16.7788 3.12768 16.8567 3.1679 16.9298C3.35184 17.2668 3.74081 17.4375 4.32468 17.4375C5.65274 17.4375 7.91568 16.5589 10.2298 15.1453C13.1413 13.3661 15.8771 10.818 15.2119 9.59908ZM7.71599 15.5011L7.71374 15.5022H7.71206C6.68465 15.6974 5.69634 15.1245 5.26799 14.1722C5.77874 13.6403 7.58577 12.2324 8.96952 11.5073C9.27036 11.8482 9.46956 12.2666 9.54466 12.715C9.76606 14.0183 8.94843 15.2651 7.71599 15.5011ZM14.0563 9.09142C12.7273 9.09142 10.4644 9.97005 8.14996 11.3836C5.9624 12.7204 3.87412 14.4914 3.25312 15.8068C2.60652 14.3432 2.78231 13.5461 2.95668 12.7747C3.0329 12.4369 3.11193 12.0876 3.10743 11.7048C3.08802 10.0373 2.46731 8.93646 1.96837 8.05193C1.9077 7.94529 1.84779 7.83823 1.78865 7.73074C0.87881 6.06152 1.07231 4.3594 2.33371 2.93796L2.4614 2.79452L2.36915 2.62577C2.2544 2.41455 1.9349 1.6909 2.66052 1.24793C2.81999 1.15033 2.97721 1.10083 3.1274 1.10083C3.42496 1.10083 3.70677 1.3053 3.90084 1.66165L4.00068 1.8453L4.20318 1.79524C4.53727 1.7108 4.88037 1.66717 5.22496 1.6653C6.56062 1.6653 7.64737 2.36308 8.36765 3.68355C8.4239 3.78705 8.48099 3.89505 8.53977 4.00699C9.01476 4.90812 9.60596 6.02946 10.9662 6.8853C11.2803 7.08302 11.6077 7.18596 11.9241 7.2858C12.6441 7.51277 13.3852 7.75014 14.2658 9.09986C14.1961 9.09395 14.1262 9.09113 14.0563 9.09142Z" fill="black"/>
</svg>
