<?xml version="1.0" encoding="UTF-8"?>
<svg xmlns="http://www.w3.org/2000/svg" xmlns:xlink="http://www.w3.org/1999/xlink" width="375pt" height="374.999991pt" viewBox="0 0 375 374.999991" version="1.2">
<g id="surface1">
<path style=" stroke:none;fill-rule:nonzero;fill:rgb(1.179504%,59.609985%,61.959839%);fill-opacity:1;" d="M 207.667969 336.382812 C 200.695312 336.269531 196.953125 334.847656 193.972656 331.179688 C 191.25 327.828125 189.867188 327.613281 185.097656 329.789062 C 183.769531 330.398438 180.816406 331.160156 178.535156 331.484375 C 171.507812 332.488281 149.730469 332.519531 141.222656 331.539062 C 136.785156 331.027344 132.8125 330.769531 132.394531 330.964844 C 131.972656 331.160156 127.492188 329.847656 122.429688 328.046875 C 114.160156 325.101562 112.976562 324.398438 110.703125 321.074219 C 105.027344 312.769531 105.078125 306.855469 110.9375 294.964844 C 114.460938 287.816406 114.675781 287.222656 115.660156 282.167969 C 117.707031 271.648438 117.675781 267.960938 115.464844 258.832031 C 114.238281 253.769531 113.199219 248.984375 113.148438 248.203125 C 113.101562 247.417969 112.542969 245.855469 111.90625 244.730469 C 111.269531 243.605469 111.039062 242.242188 111.394531 241.699219 C 111.753906 241.148438 111.203125 239.097656 110.148438 237.058594 C 109.109375 235.050781 108.203125 232.773438 108.132812 231.996094 C 108.066406 231.222656 105.832031 225.460938 103.171875 219.1875 C 99.636719 210.859375 97.449219 204.109375 95.0625 194.179688 C 88.710938 167.707031 85.371094 147.347656 85.972656 138.753906 C 86.0625 137.441406 86.0625 136.171875 85.972656 135.933594 C 85.878906 135.691406 86.160156 132.046875 86.597656 127.828125 C 87.644531 117.777344 94.597656 98.914062 100.710938 89.550781 C 104.1875 84.222656 105.15625 81.957031 104.734375 80.144531 C 103.90625 76.582031 106.515625 69.285156 110.023438 65.347656 C 116.394531 58.195312 127.164062 52.976562 134.210938 53.628906 C 138.289062 54.007812 143.289062 56.925781 144.59375 59.691406 C 145.417969 61.433594 146.5 61.785156 151.199219 61.835938 C 158.332031 61.917969 178.679688 66.066406 186.582031 69.050781 C 195.867188 72.554688 206.285156 79.289062 217.210938 88.851562 C 218.808594 90.25 220.242188 91.558594 220.390625 91.757812 C 220.539062 91.957031 221.058594 92.371094 221.542969 92.683594 C 222.898438 93.554688 234.332031 104.664062 237.824219 108.507812 C 242.414062 113.554688 254.753906 129.769531 263.585938 142.355469 C 267.84375 148.421875 271.777344 153.832031 272.324219 154.382812 C 272.871094 154.933594 273.542969 156.074219 273.8125 156.917969 C 274.085938 157.761719 274.972656 158.769531 275.789062 159.152344 C 276.605469 159.539062 277.316406 160.484375 277.371094 161.253906 C 277.425781 162.023438 277.933594 162.710938 278.503906 162.777344 C 279.074219 162.84375 279.746094 163.53125 280 164.304688 C 280.25 165.078125 280.933594 166.152344 281.511719 166.6875 C 282.089844 167.21875 286.214844 172.097656 290.671875 177.527344 C 302.824219 192.3125 311.710938 199.265625 326.839844 205.820312 C 336.308594 209.921875 339.726562 212.746094 342.53125 218.789062 C 345.242188 224.636719 344.945312 231.746094 341.703125 238.675781 C 336.058594 250.730469 315.734375 269.15625 290.875 284.75 C 285.476562 288.136719 280.496094 291.570312 279.800781 292.382812 C 279.109375 293.195312 271.511719 297.613281 262.925781 302.199219 C 225.734375 322.0625 229.527344 319.746094 227.789062 323.660156 C 224.292969 331.546875 216.425781 336.523438 207.667969 336.382812 Z M 271.28125 279.320312 C 278.242188 275.273438 286.992188 270.035156 290.722656 267.679688 C 298.378906 262.84375 311.867188 252.417969 313.660156 249.945312 C 314.316406 249.042969 315.015625 248.191406 315.21875 248.050781 C 316.910156 246.882812 324.566406 235.71875 326.460938 231.664062 C 329.722656 224.671875 330.851562 224.316406 332.527344 229.738281 C 334.066406 234.726562 335.046875 234.761719 336.363281 229.871094 C 337.679688 224.976562 336.738281 220.445312 333.890625 217.992188 C 331.539062 215.964844 327.140625 213.707031 326.300781 214.101562 C 325.5 214.472656 327.21875 217.425781 328.3125 217.554688 C 329.597656 217.707031 330.929688 220.421875 330.234375 221.476562 C 329.953125 221.910156 327.1875 221.859375 324.089844 221.371094 C 315.769531 220.054688 308.726562 220.011719 297.835938 221.207031 C 287.703125 222.320312 271.917969 225.820312 267.300781 227.976562 C 265.832031 228.660156 264.21875 228.949219 263.710938 228.617188 C 263.207031 228.285156 262.0625 228.476562 261.171875 229.042969 C 260.277344 229.609375 259.03125 230.007812 258.394531 229.929688 C 256.644531 229.71875 212.816406 248.660156 205.324219 252.867188 C 199.160156 256.328125 198.820312 256.65625 199.800781 258.175781 C 200.375 259.070312 200.589844 260.191406 200.273438 260.671875 C 199.960938 261.152344 200.15625 261.984375 200.710938 262.519531 C 201.265625 263.054688 201.523438 264.234375 201.285156 265.140625 C 201.046875 266.046875 201.378906 267.425781 202.023438 268.199219 C 202.664062 268.976562 202.945312 269.984375 202.648438 270.441406 C 202.347656 270.898438 202.457031 271.835938 202.886719 272.527344 C 203.316406 273.21875 203.707031 274.425781 203.753906 275.207031 C 203.890625 277.503906 207.125 290.21875 208.109375 292.335938 C 208.65625 293.503906 211.753906 295.582031 215.910156 297.566406 C 219.703125 299.375 223.136719 301.5625 223.539062 302.429688 C 224.253906 303.960938 224.726562 303.777344 241.445312 295.34375 C 250.890625 290.578125 264.316406 283.371094 271.28125 279.324219 Z M 187.234375 315.859375 C 186.605469 312.601562 190.339844 304.007812 193.917969 300.464844 L 197.195312 297.21875 L 192.546875 279.421875 C 189.988281 269.632812 187.773438 261.332031 187.625 260.976562 C 187.34375 260.316406 172.25 268.183594 170.382812 269.957031 C 169.828125 270.488281 167.515625 271.933594 165.25 273.175781 C 162.984375 274.414062 160.851562 275.960938 160.511719 276.609375 C 160.171875 277.257812 157.941406 279.253906 155.558594 281.042969 C 144.234375 289.535156 132.957031 301.960938 130.679688 308.445312 C 128.78125 313.863281 130.726562 316.976562 137.792969 319.828125 C 150.28125 324.871094 165.59375 325.335938 178.59375 321.066406 C 187.523438 318.136719 187.65625 318.058594 187.234375 315.859375 Z M 122.628906 316.09375 C 120.980469 312.507812 122.085938 307.699219 126.046875 301.207031 C 129.796875 295.066406 132.980469 291.683594 142.324219 283.921875 C 146.167969 280.726562 149.75 277.632812 150.28125 277.046875 C 150.8125 276.460938 151.609375 275.90625 152.046875 275.8125 C 152.484375 275.71875 153.304688 275.121094 153.863281 274.480469 C 154.425781 273.839844 155.21875 273.09375 155.628906 272.820312 C 156.035156 272.546875 156.808594 271.855469 157.347656 271.277344 C 160.457031 267.949219 175.988281 258.367188 195.402344 247.800781 C 206.433594 241.792969 214.425781 238.066406 228.238281 232.46875 C 255.957031 221.242188 277.113281 213.886719 279.816406 214.535156 C 280.542969 214.710938 281.390625 214.472656 281.695312 214.003906 C 282 213.539062 282.605469 213.390625 283.035156 213.671875 C 283.46875 213.957031 285.289062 213.800781 287.085938 213.328125 C 288.882812 212.855469 294.027344 212.066406 298.523438 211.578125 C 303.015625 211.089844 307.214844 210.308594 307.851562 209.839844 C 310.042969 208.242188 294.257812 208.582031 284.902344 210.335938 C 279.757812 211.300781 274.621094 211.832031 273.484375 211.515625 C 271.496094 210.964844 271.480469 210.890625 273.050781 209.539062 C 276.519531 206.550781 281.726562 204.761719 290.019531 203.707031 C 302.910156 202.070312 303.164062 201.75 296.363281 195.738281 C 291.171875 191.152344 289.085938 189.210938 288.425781 188.347656 C 288.125 187.949219 287.292969 187.351562 286.578125 187.011719 C 285.867188 186.675781 285.550781 186.273438 285.878906 186.121094 C 286.207031 185.96875 285.835938 185.539062 285.050781 185.167969 C 281.914062 183.683594 272.894531 171.847656 263.308594 156.636719 C 260.042969 151.453125 255.113281 144.089844 252.355469 140.277344 C 249.597656 136.464844 246.332031 131.84375 245.09375 130.003906 C 242.164062 125.640625 222.929688 104.109375 221.253906 103.3125 C 220.542969 102.972656 220.15625 102.605469 220.398438 102.492188 C 221.140625 102.144531 199.867188 85.484375 194.722656 82.382812 C 192.054688 80.773438 189.71875 79.132812 189.535156 78.734375 C 189.347656 78.339844 188.835938 78.183594 188.394531 78.386719 C 187.957031 78.59375 187.371094 78.28125 187.097656 77.695312 C 186.53125 76.480469 170.1875 71.273438 168.867188 71.886719 C 168.394531 72.109375 167.835938 71.929688 167.628906 71.488281 C 167.425781 71.046875 166.925781 70.84375 166.519531 71.03125 C 166.113281 71.222656 162.675781 70.890625 158.878906 70.300781 C 155.082031 69.710938 149.21875 69.59375 145.851562 70.039062 C 142.484375 70.488281 137.660156 70.660156 135.128906 70.421875 C 130.855469 70.019531 130.597656 69.863281 131.5 68.21875 C 132.035156 67.246094 134.105469 65.40625 136.097656 64.132812 C 138.089844 62.859375 139.574219 61.5 139.398438 61.117188 C 139.21875 60.734375 138.703125 60.589844 138.25 60.800781 C 137.800781 61.011719 136.667969 60.441406 135.734375 59.535156 C 134.800781 58.628906 133.492188 58.144531 132.820312 58.457031 C 132.148438 58.769531 131.445312 58.695312 131.253906 58.292969 C 130.683594 57.066406 122.789062 59.371094 119.148438 61.824219 C 114.976562 64.636719 110.597656 70.792969 109.835938 74.910156 C 109.164062 78.570312 109.828125 78.949219 113.742188 77.121094 C 118.8125 74.753906 122.101562 78.105469 117.980469 81.429688 C 110.066406 87.816406 99.183594 106.457031 95.839844 119.351562 C 89.957031 142.042969 92.542969 161.195312 107.769531 207.769531 C 113.769531 226.113281 119.835938 246.832031 119.667969 248.414062 C 119.621094 248.882812 120.222656 250.914062 121.011719 252.925781 C 121.796875 254.933594 122.246094 257.324219 122.007812 258.234375 C 121.769531 259.140625 121.84375 259.761719 122.171875 259.605469 C 122.5 259.453125 122.585938 260.027344 122.363281 260.878906 C 122.140625 261.734375 122.171875 262.707031 122.433594 263.042969 C 122.691406 263.382812 122.949219 264.515625 123 265.566406 C 123.285156 271.351562 124 281.316406 124.152344 281.644531 C 124.480469 282.355469 129.792969 279.480469 133.46875 276.605469 C 136.839844 273.96875 137.320312 273.816406 139.570312 274.636719 L 142.011719 275.523438 L 140.667969 277.605469 C 139.929688 278.746094 137.011719 281.304688 134.179688 283.28125 C 120.6875 292.710938 114.046875 300.707031 112.808594 309.003906 C 112.0625 314 113.988281 317.035156 119.601562 319.71875 C 124.007812 321.820312 124.824219 320.84375 122.632812 316.09375 Z M 122.628906 316.09375 "/>
<path style=" stroke:none;fill-rule:nonzero;fill:rgb(1.179504%,59.609985%,61.959839%);fill-opacity:1;" d="M 100.804688 107.972656 L 229.859375 107.972656 L 229.859375 202.371094 L 100.804688 202.371094 Z M 100.804688 107.972656 "/>
<path style=" stroke:none;fill-rule:nonzero;fill:rgb(1.179504%,59.609985%,61.959839%);fill-opacity:1;" d="M 116.40625 65.03125 C 164.621094 87.03125 156.46875 79.933594 164.621094 87.03125 C 172.777344 94.128906 177.03125 56.511719 202.203125 94.128906 C 227.375 131.75 76.695312 296.414062 175.613281 248.148438 C 274.53125 199.886719 333.03125 228.628906 274.53125 199.886719 C 216.03125 171.140625 216.03125 171.140625 215.707031 171.140625 "/>
<path style=" stroke:none;fill-rule:nonzero;fill:rgb(1.179504%,59.609985%,61.959839%);fill-opacity:1;" d="M 207.523438 93.066406 C 207.523438 93.925781 207.441406 94.785156 207.277344 95.640625 C 207.109375 96.496094 206.863281 97.347656 206.535156 98.1875 C 206.207031 99.03125 205.800781 99.867188 205.308594 100.6875 C 204.820312 101.511719 204.253906 102.320312 203.609375 103.117188 C 202.964844 103.910156 202.246094 104.6875 201.453125 105.445312 C 200.660156 106.203125 199.796875 106.941406 198.859375 107.65625 C 197.925781 108.371094 196.921875 109.0625 195.855469 109.726562 C 194.785156 110.390625 193.65625 111.027344 192.464844 111.636719 C 191.277344 112.242188 190.03125 112.820312 188.726562 113.367188 C 187.425781 113.910156 186.074219 114.421875 184.675781 114.902344 C 183.277344 115.378906 181.832031 115.820312 180.347656 116.226562 C 178.863281 116.632812 177.34375 117 175.789062 117.328125 C 174.234375 117.65625 172.648438 117.945312 171.039062 118.195312 C 169.425781 118.445312 167.796875 118.65625 166.144531 118.824219 C 164.492188 118.992188 162.828125 119.117188 161.152344 119.199219 C 159.476562 119.285156 157.796875 119.328125 156.113281 119.328125 C 154.429688 119.328125 152.75 119.285156 151.074219 119.199219 C 149.402344 119.117188 147.738281 118.992188 146.085938 118.824219 C 144.433594 118.65625 142.804688 118.445312 141.191406 118.195312 C 139.582031 117.945312 137.996094 117.65625 136.441406 117.328125 C 134.886719 117 133.367188 116.632812 131.882812 116.226562 C 130.394531 115.820312 128.953125 115.378906 127.554688 114.902344 C 126.152344 114.421875 124.804688 113.910156 123.5 113.367188 C 122.199219 112.820312 120.953125 112.242188 119.761719 111.636719 C 118.574219 111.027344 117.445312 110.390625 116.375 109.726562 C 115.308594 109.0625 114.304688 108.371094 113.371094 107.65625 C 112.433594 106.941406 111.570312 106.203125 110.777344 105.445312 C 109.984375 104.6875 109.265625 103.910156 108.621094 103.117188 C 107.976562 102.320312 107.410156 101.511719 106.921875 100.6875 C 106.429688 99.867188 106.023438 99.03125 105.695312 98.1875 C 105.367188 97.347656 105.117188 96.496094 104.953125 95.640625 C 104.789062 94.785156 104.707031 93.925781 104.707031 93.066406 C 104.707031 92.207031 104.789062 91.347656 104.953125 90.492188 C 105.117188 89.636719 105.367188 88.785156 105.695312 87.941406 C 106.023438 87.097656 106.429688 86.265625 106.921875 85.441406 C 107.410156 84.621094 107.976562 83.8125 108.621094 83.015625 C 109.265625 82.222656 109.984375 81.445312 110.777344 80.6875 C 111.570312 79.929688 112.433594 79.191406 113.371094 78.476562 C 114.304688 77.761719 115.308594 77.070312 116.375 76.40625 C 117.445312 75.742188 118.574219 75.105469 119.761719 74.496094 C 120.953125 73.886719 122.199219 73.3125 123.5 72.765625 C 124.804688 72.21875 126.152344 71.707031 127.554688 71.230469 C 128.953125 70.753906 130.394531 70.3125 131.882812 69.90625 C 133.367188 69.5 134.886719 69.132812 136.441406 68.804688 C 137.996094 68.476562 139.582031 68.183594 141.191406 67.933594 C 142.804688 67.6875 144.433594 67.476562 146.085938 67.308594 C 147.738281 67.140625 149.402344 67.015625 151.074219 66.929688 C 152.75 66.847656 154.429688 66.804688 156.113281 66.804688 C 157.796875 66.804688 159.476562 66.847656 161.152344 66.929688 C 162.828125 67.015625 164.492188 67.140625 166.144531 67.308594 C 167.796875 67.476562 169.425781 67.6875 171.039062 67.933594 C 172.648438 68.183594 174.234375 68.476562 175.789062 68.804688 C 177.34375 69.132812 178.863281 69.5 180.347656 69.90625 C 181.832031 70.3125 183.277344 70.753906 184.675781 71.230469 C 186.074219 71.707031 187.425781 72.21875 188.726562 72.765625 C 190.03125 73.3125 191.277344 73.886719 192.464844 74.496094 C 193.65625 75.105469 194.785156 75.742188 195.855469 76.40625 C 196.921875 77.070312 197.925781 77.761719 198.859375 78.476562 C 199.796875 79.191406 200.660156 79.929688 201.453125 80.6875 C 202.246094 81.445312 202.964844 82.222656 203.609375 83.015625 C 204.253906 83.8125 204.820312 84.621094 205.308594 85.441406 C 205.800781 86.265625 206.207031 87.097656 206.535156 87.941406 C 206.863281 88.785156 207.109375 89.636719 207.277344 90.492188 C 207.441406 91.347656 207.523438 92.207031 207.523438 93.066406 Z M 207.523438 93.066406 "/>
<path style=" stroke:none;fill-rule:nonzero;fill:rgb(1.179504%,59.609985%,61.959839%);fill-opacity:1;" d="M 140.367188 60.425781 C 140.707031 61.023438 140.941406 61.679688 141.066406 62.390625 C 141.1875 63.101562 141.199219 63.855469 141.09375 64.648438 C 140.992188 65.441406 140.78125 66.265625 140.457031 67.113281 C 140.132812 67.960938 139.707031 68.816406 139.171875 69.6875 C 138.640625 70.554688 138.015625 71.417969 137.292969 72.273438 C 136.574219 73.128906 135.773438 73.960938 134.890625 74.769531 C 134.011719 75.582031 133.066406 76.351562 132.058594 77.085938 C 131.050781 77.820312 129.996094 78.5 128.902344 79.128906 C 127.804688 79.757812 126.6875 80.324219 125.546875 80.824219 C 124.402344 81.320312 123.261719 81.746094 122.117188 82.097656 C 120.972656 82.449219 119.851562 82.71875 118.746094 82.910156 C 117.644531 83.101562 116.585938 83.203125 115.566406 83.226562 C 114.550781 83.246094 113.59375 83.179688 112.699219 83.03125 C 111.804688 82.882812 110.992188 82.652344 110.253906 82.339844 C 109.519531 82.023438 108.875 81.636719 108.324219 81.171875 C 107.773438 80.703125 107.328125 80.171875 106.984375 79.574219 C 106.640625 78.972656 106.40625 78.316406 106.285156 77.605469 C 106.160156 76.894531 106.152344 76.144531 106.253906 75.347656 C 106.355469 74.554688 106.566406 73.734375 106.890625 72.886719 C 107.214844 72.039062 107.644531 71.179688 108.175781 70.3125 C 108.707031 69.441406 109.335938 68.582031 110.054688 67.726562 C 110.773438 66.871094 111.574219 66.035156 112.457031 65.226562 C 113.339844 64.414062 114.28125 63.644531 115.289062 62.910156 C 116.300781 62.175781 117.351562 61.496094 118.445312 60.867188 C 119.542969 60.238281 120.660156 59.675781 121.804688 59.175781 C 122.945312 58.675781 124.089844 58.25 125.230469 57.898438 C 126.375 57.546875 127.5 57.277344 128.601562 57.085938 C 129.703125 56.898438 130.761719 56.792969 131.78125 56.773438 C 132.796875 56.75 133.753906 56.816406 134.648438 56.964844 C 135.542969 57.113281 136.359375 57.347656 137.09375 57.660156 C 137.832031 57.972656 138.476562 58.363281 139.023438 58.828125 C 139.574219 59.292969 140.023438 59.824219 140.367188 60.425781 Z M 140.367188 60.425781 "/>
<path style=" stroke:none;fill-rule:nonzero;fill:rgb(1.179504%,59.609985%,61.959839%);fill-opacity:1;" d="M 127.75 148.425781 C 127.75 150.171875 127.71875 151.910156 127.660156 153.644531 C 127.601562 155.378906 127.515625 157.101562 127.394531 158.8125 C 127.277344 160.523438 127.132812 162.210938 126.957031 163.878906 C 126.78125 165.546875 126.578125 167.1875 126.347656 168.796875 C 126.117188 170.410156 125.859375 171.984375 125.574219 173.519531 C 125.289062 175.058594 124.980469 176.550781 124.644531 178 C 124.308594 179.453125 123.949219 180.851562 123.566406 182.199219 C 123.183594 183.546875 122.777344 184.835938 122.351562 186.070312 C 121.921875 187.300781 121.476562 188.46875 121.011719 189.578125 C 120.542969 190.683594 120.058594 191.71875 119.554688 192.6875 C 119.054688 193.65625 118.539062 194.550781 118.003906 195.375 C 117.472656 196.195312 116.925781 196.941406 116.371094 197.609375 C 115.8125 198.273438 115.242188 198.863281 114.664062 199.367188 C 114.089844 199.875 113.503906 200.296875 112.910156 200.636719 C 112.320312 200.976562 111.722656 201.234375 111.121094 201.402344 C 110.519531 201.574219 109.917969 201.660156 109.3125 201.660156 C 108.710938 201.660156 108.109375 201.574219 107.507812 201.402344 C 106.90625 201.234375 106.308594 200.976562 105.71875 200.636719 C 105.125 200.296875 104.539062 199.875 103.960938 199.367188 C 103.382812 198.863281 102.816406 198.273438 102.257812 197.609375 C 101.699219 196.941406 101.15625 196.195312 100.625 195.375 C 100.089844 194.550781 99.574219 193.65625 99.070312 192.6875 C 98.570312 191.71875 98.085938 190.683594 97.617188 189.578125 C 97.152344 188.46875 96.703125 187.300781 96.277344 186.070312 C 95.851562 184.835938 95.445312 183.546875 95.0625 182.199219 C 94.679688 180.851562 94.320312 179.453125 93.984375 178 C 93.648438 176.550781 93.339844 175.058594 93.054688 173.519531 C 92.769531 171.984375 92.511719 170.410156 92.28125 168.796875 C 92.050781 167.1875 91.847656 165.546875 91.671875 163.878906 C 91.496094 162.210938 91.351562 160.523438 91.230469 158.8125 C 91.113281 157.101562 91.027344 155.378906 90.964844 153.644531 C 90.90625 151.910156 90.878906 150.171875 90.878906 148.425781 C 90.878906 146.683594 90.90625 144.945312 90.964844 143.210938 C 91.027344 141.476562 91.113281 139.753906 91.230469 138.042969 C 91.351562 136.332031 91.496094 134.644531 91.671875 132.976562 C 91.847656 131.308594 92.050781 129.667969 92.28125 128.054688 C 92.511719 126.445312 92.769531 124.871094 93.054688 123.335938 C 93.339844 121.796875 93.648438 120.304688 93.984375 118.851562 C 94.320312 117.402344 94.679688 116.003906 95.0625 114.65625 C 95.445312 113.308594 95.851562 112.019531 96.277344 110.785156 C 96.703125 109.554688 97.152344 108.382812 97.617188 107.277344 C 98.085938 106.171875 98.570312 105.136719 99.070312 104.167969 C 99.574219 103.199219 100.089844 102.300781 100.625 101.480469 C 101.15625 100.660156 101.699219 99.914062 102.257812 99.246094 C 102.816406 98.582031 103.382812 97.992188 103.960938 97.488281 C 104.539062 96.980469 105.125 96.558594 105.71875 96.21875 C 106.308594 95.878906 106.90625 95.621094 107.507812 95.453125 C 108.109375 95.28125 108.710938 95.195312 109.3125 95.195312 C 109.917969 95.195312 110.519531 95.28125 111.121094 95.453125 C 111.722656 95.621094 112.320312 95.878906 112.910156 96.21875 C 113.503906 96.558594 114.089844 96.980469 114.664062 97.488281 C 115.242188 97.992188 115.8125 98.582031 116.371094 99.246094 C 116.925781 99.914062 117.472656 100.660156 118.003906 101.480469 C 118.539062 102.300781 119.054688 103.199219 119.554688 104.167969 C 120.058594 105.136719 120.542969 106.171875 121.011719 107.277344 C 121.476562 108.382812 121.921875 109.554688 122.351562 110.785156 C 122.777344 112.019531 123.183594 113.308594 123.566406 114.65625 C 123.949219 116.003906 124.308594 117.402344 124.644531 118.851562 C 124.980469 120.304688 125.289062 121.796875 125.574219 123.335938 C 125.859375 124.871094 126.117188 126.445312 126.347656 128.054688 C 126.578125 129.667969 126.78125 131.308594 126.957031 132.976562 C 127.132812 134.644531 127.277344 136.332031 127.394531 138.042969 C 127.515625 139.753906 127.601562 141.476562 127.660156 143.210938 C 127.71875 144.945312 127.75 146.683594 127.75 148.425781 Z M 127.75 148.425781 "/>
<path style=" stroke:none;fill-rule:nonzero;fill:rgb(1.179504%,59.609985%,61.959839%);fill-opacity:1;" d="M 220.246094 94.722656 C 221.089844 95.550781 221.867188 96.425781 222.585938 97.347656 C 223.304688 98.269531 223.945312 99.222656 224.511719 100.203125 C 225.074219 101.183594 225.554688 102.175781 225.945312 103.179688 C 226.335938 104.183594 226.632812 105.179688 226.835938 106.164062 C 227.035156 107.148438 227.140625 108.109375 227.144531 109.039062 C 227.152344 109.972656 227.058594 110.855469 226.867188 111.695312 C 226.675781 112.539062 226.390625 113.316406 226.007812 114.035156 C 225.628906 114.75 225.160156 115.394531 224.601562 115.960938 C 224.046875 116.527344 223.414062 117.007812 222.703125 117.402344 C 221.992188 117.796875 221.222656 118.097656 220.386719 118.304688 C 219.550781 118.511719 218.667969 118.621094 217.734375 118.632812 C 216.804688 118.644531 215.847656 118.558594 214.859375 118.375 C 213.871094 118.191406 212.871094 117.910156 211.863281 117.539062 C 210.851562 117.164062 209.851562 116.703125 208.863281 116.15625 C 207.871094 115.609375 206.910156 114.984375 205.972656 114.285156 C 205.039062 113.582031 204.152344 112.820312 203.308594 111.992188 C 202.46875 111.164062 201.6875 110.289062 200.96875 109.367188 C 200.253906 108.445312 199.613281 107.492188 199.046875 106.511719 C 198.480469 105.53125 198.003906 104.539062 197.613281 103.535156 C 197.222656 102.53125 196.925781 101.539062 196.722656 100.550781 C 196.519531 99.566406 196.414062 98.605469 196.410156 97.675781 C 196.40625 96.746094 196.496094 95.859375 196.691406 95.019531 C 196.882812 94.179688 197.167969 93.398438 197.546875 92.679688 C 197.929688 91.964844 198.398438 91.320312 198.953125 90.753906 C 199.511719 90.1875 200.144531 89.707031 200.851562 89.3125 C 201.5625 88.917969 202.335938 88.617188 203.171875 88.410156 C 204.007812 88.203125 204.890625 88.09375 205.820312 88.082031 C 206.75 88.070312 207.710938 88.15625 208.699219 88.339844 C 209.6875 88.523438 210.6875 88.804688 211.695312 89.175781 C 212.703125 89.550781 213.703125 90.011719 214.695312 90.558594 C 215.683594 91.105469 216.648438 91.730469 217.582031 92.429688 C 218.515625 93.132812 219.40625 93.894531 220.246094 94.722656 Z M 220.246094 94.722656 "/>
<path style=" stroke:none;fill-rule:nonzero;fill:rgb(1.179504%,59.609985%,61.959839%);fill-opacity:1;" d="M 260.671875 146.226562 C 261.777344 147.980469 262.84375 149.753906 263.871094 151.546875 C 264.898438 153.339844 265.882812 155.140625 266.824219 156.953125 C 267.765625 158.765625 268.65625 160.578125 269.5 162.394531 C 270.34375 164.210938 271.132812 166.019531 271.871094 167.816406 C 272.609375 169.617188 273.292969 171.402344 273.917969 173.171875 C 274.542969 174.9375 275.109375 176.683594 275.617188 178.402344 C 276.125 180.121094 276.574219 181.808594 276.957031 183.460938 C 277.34375 185.113281 277.664062 186.726562 277.921875 188.296875 C 278.179688 189.871094 278.371094 191.394531 278.5 192.871094 C 278.628906 194.34375 278.691406 195.765625 278.691406 197.128906 C 278.6875 198.492188 278.621094 199.792969 278.488281 201.035156 C 278.355469 202.273438 278.160156 203.445312 277.898438 204.550781 C 277.636719 205.65625 277.3125 206.6875 276.921875 207.644531 C 276.535156 208.601562 276.085938 209.480469 275.574219 210.28125 C 275.0625 211.082031 274.492188 211.804688 273.863281 212.441406 C 273.234375 213.078125 272.546875 213.632812 271.804688 214.101562 C 271.066406 214.570312 270.269531 214.949219 269.425781 215.246094 C 268.578125 215.539062 267.683594 215.742188 266.742188 215.859375 C 265.796875 215.976562 264.8125 216.007812 263.78125 215.945312 C 262.75 215.882812 261.679688 215.734375 260.570312 215.496094 C 259.464844 215.253906 258.320312 214.929688 257.148438 214.515625 C 255.972656 214.101562 254.769531 213.601562 253.539062 213.015625 C 252.304688 212.429688 251.054688 211.761719 249.777344 211.011719 C 248.503906 210.257812 247.214844 209.429688 245.90625 208.519531 C 244.601562 207.609375 243.285156 206.625 241.957031 205.566406 C 240.632812 204.507812 239.304688 203.378906 237.972656 202.179688 C 236.640625 200.980469 235.3125 199.71875 233.988281 198.390625 C 232.664062 197.0625 231.347656 195.679688 230.042969 194.238281 C 228.738281 192.796875 227.445312 191.304688 226.171875 189.761719 C 224.898438 188.21875 223.648438 186.628906 222.417969 185 C 221.1875 183.371094 219.988281 181.707031 218.8125 180.007812 C 217.640625 178.304688 216.5 176.578125 215.394531 174.824219 C 214.289062 173.070312 213.222656 171.296875 212.191406 169.503906 C 211.164062 167.710938 210.179688 165.910156 209.238281 164.097656 C 208.300781 162.285156 207.410156 160.472656 206.566406 158.65625 C 205.722656 156.839844 204.929688 155.03125 204.191406 153.234375 C 203.453125 151.433594 202.773438 149.648438 202.144531 147.878906 C 201.519531 146.113281 200.953125 144.367188 200.445312 142.648438 C 199.9375 140.929688 199.492188 139.242188 199.105469 137.589844 C 198.722656 135.9375 198.402344 134.324219 198.144531 132.753906 C 197.886719 131.179688 197.691406 129.65625 197.5625 128.183594 C 197.433594 126.707031 197.371094 125.285156 197.375 123.921875 C 197.375 122.558594 197.441406 121.257812 197.574219 120.015625 C 197.707031 118.777344 197.902344 117.605469 198.164062 116.5 C 198.425781 115.394531 198.753906 114.363281 199.140625 113.40625 C 199.53125 112.449219 199.980469 111.570312 200.492188 110.769531 C 201.003906 109.96875 201.574219 109.246094 202.203125 108.609375 C 202.832031 107.972656 203.515625 107.417969 204.257812 106.949219 C 205 106.480469 205.792969 106.101562 206.640625 105.804688 C 207.484375 105.511719 208.378906 105.308594 209.324219 105.191406 C 210.265625 105.074219 211.253906 105.046875 212.285156 105.105469 C 213.3125 105.167969 214.382812 105.316406 215.492188 105.554688 C 216.601562 105.796875 217.742188 106.121094 218.917969 106.535156 C 220.09375 106.949219 221.296875 107.449219 222.527344 108.035156 C 223.757812 108.621094 225.011719 109.289062 226.285156 110.039062 C 227.5625 110.792969 228.851562 111.621094 230.15625 112.53125 C 231.464844 113.441406 232.78125 114.425781 234.105469 115.484375 C 235.429688 116.542969 236.757812 117.671875 238.089844 118.871094 C 239.421875 120.070312 240.75 121.332031 242.074219 122.660156 C 243.402344 123.988281 244.714844 125.371094 246.023438 126.8125 C 247.328125 128.253906 248.617188 129.746094 249.890625 131.289062 C 251.164062 132.832031 252.417969 134.421875 253.644531 136.050781 C 254.875 137.679688 256.078125 139.34375 257.25 141.042969 C 258.425781 142.746094 259.5625 144.472656 260.671875 146.226562 Z M 260.671875 146.226562 "/>
<path style=" stroke:none;fill-rule:nonzero;fill:rgb(1.179504%,59.609985%,61.959839%);fill-opacity:1;" d="M 294.429688 186.589844 C 295.003906 187.335938 295.566406 188.089844 296.109375 188.855469 C 296.65625 189.625 297.179688 190.394531 297.683594 191.175781 C 298.1875 191.953125 298.671875 192.734375 299.132812 193.519531 C 299.59375 194.304688 300.03125 195.085938 300.445312 195.871094 C 300.859375 196.652344 301.246094 197.429688 301.609375 198.203125 C 301.96875 198.976562 302.304688 199.738281 302.609375 200.496094 C 302.914062 201.25 303.191406 201.992188 303.4375 202.722656 C 303.683594 203.457031 303.902344 204.171875 304.085938 204.871094 C 304.273438 205.570312 304.429688 206.25 304.550781 206.914062 C 304.675781 207.574219 304.765625 208.214844 304.828125 208.828125 C 304.886719 209.445312 304.914062 210.039062 304.910156 210.605469 C 304.90625 211.171875 304.867188 211.710938 304.796875 212.222656 C 304.730469 212.730469 304.628906 213.210938 304.496094 213.660156 C 304.363281 214.109375 304.199219 214.527344 304.003906 214.914062 C 303.804688 215.296875 303.582031 215.648438 303.324219 215.964844 C 303.070312 216.277344 302.785156 216.558594 302.46875 216.800781 C 302.15625 217.046875 301.8125 217.253906 301.445312 217.421875 C 301.074219 217.59375 300.679688 217.722656 300.257812 217.816406 C 299.839844 217.910156 299.394531 217.964844 298.925781 217.984375 C 298.457031 218 297.96875 217.976562 297.457031 217.917969 C 296.945312 217.859375 296.414062 217.757812 295.863281 217.621094 C 295.316406 217.488281 294.75 217.3125 294.167969 217.101562 C 293.585938 216.890625 292.988281 216.640625 292.382812 216.355469 C 291.773438 216.070312 291.152344 215.753906 290.519531 215.398438 C 289.890625 215.042969 289.253906 214.652344 288.605469 214.230469 C 287.960938 213.808594 287.3125 213.355469 286.65625 212.871094 C 286 212.386719 285.34375 211.875 284.6875 211.332031 C 284.03125 210.789062 283.375 210.21875 282.722656 209.625 C 282.066406 209.027344 281.417969 208.410156 280.773438 207.765625 C 280.128906 207.125 279.496094 206.460938 278.867188 205.777344 C 278.238281 205.09375 277.621094 204.390625 277.015625 203.671875 C 276.410156 202.953125 275.820312 202.222656 275.242188 201.476562 C 274.664062 200.730469 274.105469 199.976562 273.558594 199.210938 C 273.015625 198.441406 272.492188 197.671875 271.988281 196.890625 C 271.480469 196.113281 270.996094 195.332031 270.535156 194.546875 C 270.074219 193.761719 269.636719 192.980469 269.222656 192.195312 C 268.8125 191.414062 268.421875 190.636719 268.0625 189.863281 C 267.703125 189.09375 267.367188 188.328125 267.0625 187.574219 C 266.757812 186.816406 266.480469 186.074219 266.234375 185.34375 C 265.984375 184.613281 265.769531 183.894531 265.582031 183.195312 C 265.398438 182.496094 265.242188 181.816406 265.117188 181.15625 C 264.996094 180.492188 264.902344 179.855469 264.84375 179.238281 C 264.785156 178.621094 264.757812 178.027344 264.761719 177.460938 C 264.765625 176.894531 264.804688 176.355469 264.871094 175.847656 C 264.941406 175.335938 265.042969 174.855469 265.175781 174.40625 C 265.308594 173.957031 265.472656 173.539062 265.667969 173.152344 C 265.863281 172.769531 266.089844 172.417969 266.347656 172.101562 C 266.601562 171.789062 266.886719 171.507812 267.203125 171.265625 C 267.515625 171.019531 267.855469 170.8125 268.226562 170.644531 C 268.597656 170.472656 268.992188 170.34375 269.410156 170.25 C 269.832031 170.15625 270.277344 170.101562 270.746094 170.082031 C 271.214844 170.066406 271.703125 170.089844 272.214844 170.148438 C 272.726562 170.207031 273.257812 170.308594 273.804688 170.445312 C 274.355469 170.582031 274.921875 170.753906 275.503906 170.964844 C 276.085938 171.175781 276.679688 171.425781 277.289062 171.710938 C 277.898438 171.996094 278.519531 172.316406 279.148438 172.667969 C 279.78125 173.023438 280.417969 173.414062 281.0625 173.835938 C 281.710938 174.257812 282.359375 174.710938 283.015625 175.195312 C 283.667969 175.679688 284.324219 176.191406 284.984375 176.734375 C 285.640625 177.277344 286.296875 177.847656 286.949219 178.441406 C 287.605469 179.039062 288.253906 179.65625 288.894531 180.300781 C 289.539062 180.945312 290.175781 181.605469 290.804688 182.289062 C 291.429688 182.972656 292.046875 183.675781 292.652344 184.394531 C 293.257812 185.113281 293.851562 185.84375 294.429688 186.589844 Z M 294.429688 186.589844 "/>
<path style=" stroke:none;fill-rule:nonzero;fill:rgb(1.179504%,59.609985%,61.959839%);fill-opacity:1;" d="M 163.492188 209.21875 C 163.546875 210 163.554688 210.785156 163.511719 211.570312 C 163.46875 212.359375 163.375 213.144531 163.230469 213.925781 C 163.085938 214.707031 162.894531 215.484375 162.65625 216.253906 C 162.414062 217.027344 162.125 217.789062 161.789062 218.539062 C 161.453125 219.289062 161.070312 220.027344 160.644531 220.753906 C 160.214844 221.476562 159.742188 222.1875 159.226562 222.878906 C 158.710938 223.570312 158.152344 224.242188 157.550781 224.894531 C 156.953125 225.542969 156.3125 226.171875 155.636719 226.777344 C 154.960938 227.382812 154.246094 227.960938 153.5 228.515625 C 152.75 229.066406 151.972656 229.59375 151.160156 230.085938 C 150.347656 230.582031 149.507812 231.046875 148.640625 231.480469 C 147.773438 231.914062 146.882812 232.3125 145.96875 232.679688 C 145.050781 233.046875 144.117188 233.378906 143.164062 233.675781 C 142.210938 233.972656 141.242188 234.234375 140.257812 234.457031 C 139.277344 234.679688 138.285156 234.867188 137.28125 235.015625 C 136.277344 235.164062 135.269531 235.277344 134.253906 235.347656 C 133.242188 235.421875 132.226562 235.453125 131.214844 235.449219 C 130.199219 235.445312 129.191406 235.402344 128.1875 235.320312 C 127.179688 235.238281 126.1875 235.117188 125.199219 234.960938 C 124.214844 234.800781 123.242188 234.605469 122.285156 234.375 C 121.328125 234.140625 120.386719 233.871094 119.46875 233.566406 C 118.546875 233.261719 117.648438 232.921875 116.777344 232.546875 C 115.902344 232.171875 115.054688 231.761719 114.238281 231.324219 C 113.417969 230.882812 112.632812 230.410156 111.875 229.90625 C 111.117188 229.40625 110.398438 228.875 109.710938 228.3125 C 109.027344 227.753906 108.378906 227.167969 107.769531 226.558594 C 107.160156 225.945312 106.589844 225.3125 106.0625 224.65625 C 105.535156 224 105.054688 223.324219 104.613281 222.628906 C 104.175781 221.929688 103.78125 221.21875 103.433594 220.488281 C 103.085938 219.761719 102.785156 219.019531 102.53125 218.265625 C 102.28125 217.511719 102.078125 216.75 101.921875 215.976562 C 101.765625 215.203125 101.660156 214.425781 101.605469 213.640625 C 101.550781 212.859375 101.542969 212.074219 101.585938 211.289062 C 101.628906 210.5 101.722656 209.714844 101.867188 208.933594 C 102.007812 208.152344 102.203125 207.375 102.441406 206.605469 C 102.683594 205.832031 102.972656 205.070312 103.308594 204.320312 C 103.644531 203.570312 104.027344 202.832031 104.453125 202.105469 C 104.882812 201.382812 105.355469 200.671875 105.871094 199.980469 C 106.386719 199.289062 106.945312 198.617188 107.546875 197.964844 C 108.144531 197.316406 108.785156 196.6875 109.460938 196.082031 C 110.136719 195.476562 110.851562 194.898438 111.597656 194.34375 C 112.347656 193.792969 113.125 193.265625 113.9375 192.769531 C 114.75 192.277344 115.589844 191.8125 116.457031 191.378906 C 117.324219 190.945312 118.214844 190.546875 119.128906 190.179688 C 120.042969 189.8125 120.980469 189.480469 121.933594 189.183594 C 122.886719 188.886719 123.855469 188.625 124.835938 188.402344 C 125.820312 188.179688 126.8125 187.992188 127.816406 187.84375 C 128.820312 187.695312 129.828125 187.582031 130.839844 187.511719 C 131.855469 187.4375 132.867188 187.40625 133.882812 187.410156 C 134.898438 187.414062 135.90625 187.457031 136.910156 187.539062 C 137.917969 187.621094 138.910156 187.742188 139.898438 187.898438 C 140.882812 188.058594 141.855469 188.253906 142.8125 188.484375 C 143.769531 188.71875 144.710938 188.988281 145.628906 189.292969 C 146.550781 189.597656 147.445312 189.9375 148.320312 190.3125 C 149.195312 190.6875 150.039062 191.097656 150.859375 191.535156 C 151.679688 191.976562 152.464844 192.449219 153.222656 192.953125 C 153.976562 193.453125 154.699219 193.984375 155.386719 194.546875 C 156.070312 195.105469 156.71875 195.691406 157.328125 196.300781 C 157.9375 196.914062 158.507812 197.546875 159.035156 198.203125 C 159.5625 198.859375 160.042969 199.535156 160.484375 200.230469 C 160.921875 200.929688 161.316406 201.640625 161.664062 202.371094 C 162.011719 203.097656 162.3125 203.839844 162.566406 204.59375 C 162.816406 205.347656 163.019531 206.109375 163.175781 206.882812 C 163.332031 207.65625 163.4375 208.433594 163.492188 209.21875 Z M 163.492188 209.21875 "/>
<path style=" stroke:none;fill-rule:nonzero;fill:rgb(1.179504%,59.609985%,61.959839%);fill-opacity:1;" d="M 167.816406 240.519531 C 167.816406 241.140625 167.769531 241.761719 167.679688 242.378906 C 167.585938 243 167.453125 243.613281 167.269531 244.222656 C 167.089844 244.832031 166.863281 245.4375 166.59375 246.03125 C 166.324219 246.625 166.011719 247.210938 165.65625 247.785156 C 165.300781 248.359375 164.902344 248.921875 164.464844 249.46875 C 164.027344 250.019531 163.550781 250.550781 163.035156 251.066406 C 162.519531 251.585938 161.964844 252.082031 161.375 252.5625 C 160.789062 253.042969 160.164062 253.503906 159.507812 253.945312 C 158.851562 254.382812 158.164062 254.800781 157.445312 255.195312 C 156.726562 255.589844 155.980469 255.960938 155.210938 256.304688 C 154.4375 256.652344 153.640625 256.96875 152.820312 257.261719 C 152.003906 257.558594 151.164062 257.820312 150.304688 258.058594 C 149.449219 258.296875 148.574219 258.507812 147.683594 258.6875 C 146.796875 258.867188 145.894531 259.019531 144.984375 259.140625 C 144.074219 259.261719 143.15625 259.351562 142.230469 259.414062 C 141.308594 259.476562 140.378906 259.503906 139.453125 259.503906 C 138.523438 259.503906 137.597656 259.476562 136.671875 259.414062 C 135.746094 259.351562 134.828125 259.261719 133.917969 259.140625 C 133.007812 259.019531 132.105469 258.867188 131.21875 258.6875 C 130.328125 258.507812 129.457031 258.296875 128.597656 258.058594 C 127.738281 257.820312 126.898438 257.558594 126.082031 257.261719 C 125.261719 256.96875 124.464844 256.652344 123.695312 256.304688 C 122.921875 255.960938 122.175781 255.589844 121.457031 255.195312 C 120.738281 254.800781 120.050781 254.382812 119.394531 253.945312 C 118.738281 253.503906 118.117188 253.042969 117.527344 252.5625 C 116.9375 252.082031 116.382812 251.585938 115.867188 251.066406 C 115.351562 250.550781 114.875 250.019531 114.4375 249.46875 C 114 248.921875 113.601562 248.359375 113.246094 247.785156 C 112.890625 247.210938 112.578125 246.625 112.308594 246.03125 C 112.039062 245.4375 111.8125 244.832031 111.632812 244.222656 C 111.453125 243.613281 111.316406 243 111.226562 242.378906 C 111.132812 241.761719 111.089844 241.140625 111.089844 240.519531 C 111.089844 239.898438 111.132812 239.277344 111.226562 238.660156 C 111.316406 238.039062 111.453125 237.425781 111.632812 236.816406 C 111.8125 236.207031 112.039062 235.601562 112.308594 235.007812 C 112.578125 234.414062 112.890625 233.828125 113.246094 233.253906 C 113.601562 232.679688 114 232.117188 114.4375 231.570312 C 114.875 231.019531 115.351562 230.488281 115.867188 229.972656 C 116.382812 229.453125 116.9375 228.957031 117.527344 228.472656 C 118.117188 227.992188 118.738281 227.535156 119.394531 227.09375 C 120.050781 226.65625 120.738281 226.238281 121.457031 225.84375 C 122.175781 225.449219 122.921875 225.078125 123.695312 224.734375 C 124.464844 224.386719 125.261719 224.066406 126.082031 223.773438 C 126.898438 223.480469 127.738281 223.214844 128.597656 222.976562 C 129.457031 222.742188 130.328125 222.53125 131.21875 222.351562 C 132.105469 222.171875 133.007812 222.019531 133.917969 221.898438 C 134.828125 221.777344 135.746094 221.683594 136.671875 221.625 C 137.597656 221.5625 138.523438 221.53125 139.453125 221.53125 C 140.378906 221.53125 141.308594 221.5625 142.230469 221.625 C 143.15625 221.683594 144.074219 221.777344 144.984375 221.898438 C 145.894531 222.019531 146.796875 222.171875 147.683594 222.351562 C 148.574219 222.53125 149.449219 222.742188 150.304688 222.976562 C 151.164062 223.214844 152.003906 223.480469 152.820312 223.773438 C 153.640625 224.066406 154.4375 224.386719 155.210938 224.734375 C 155.980469 225.078125 156.726562 225.449219 157.445312 225.84375 C 158.164062 226.238281 158.851562 226.65625 159.507812 227.09375 C 160.164062 227.535156 160.789062 227.992188 161.375 228.472656 C 161.964844 228.957031 162.519531 229.453125 163.035156 229.972656 C 163.550781 230.488281 164.027344 231.019531 164.464844 231.570312 C 164.902344 232.117188 165.300781 232.679688 165.65625 233.253906 C 166.011719 233.828125 166.324219 234.414062 166.59375 235.007812 C 166.863281 235.601562 167.089844 236.207031 167.269531 236.816406 C 167.453125 237.425781 167.585938 238.039062 167.679688 238.660156 C 167.769531 239.277344 167.816406 239.898438 167.816406 240.519531 Z M 167.816406 240.519531 "/>
<path style=" stroke:none;fill-rule:nonzero;fill:rgb(1.179504%,59.609985%,61.959839%);fill-opacity:1;" d="M 274.773438 202.492188 C 274.953125 202.917969 275.039062 203.378906 275.035156 203.878906 C 275.03125 204.378906 274.9375 204.910156 274.753906 205.476562 C 274.570312 206.046875 274.296875 206.644531 273.929688 207.277344 C 273.566406 207.90625 273.113281 208.566406 272.574219 209.253906 C 272.03125 209.945312 271.40625 210.660156 270.695312 211.398438 C 269.984375 212.136719 269.191406 212.898438 268.316406 213.683594 C 267.4375 214.464844 266.484375 215.265625 265.453125 216.085938 C 264.421875 216.90625 263.320312 217.742188 262.140625 218.589844 C 260.964844 219.4375 259.722656 220.292969 258.410156 221.164062 C 257.097656 222.03125 255.726562 222.90625 254.292969 223.785156 C 252.859375 224.664062 251.375 225.546875 249.832031 226.429688 C 248.292969 227.3125 246.703125 228.195312 245.070312 229.070312 C 243.433594 229.949219 241.761719 230.820312 240.050781 231.6875 C 238.339844 232.550781 236.597656 233.402344 234.824219 234.246094 C 233.054688 235.089844 231.257812 235.917969 229.441406 236.730469 C 227.625 237.542969 225.796875 238.335938 223.953125 239.109375 C 222.113281 239.882812 220.265625 240.636719 218.414062 241.367188 C 216.5625 242.09375 214.714844 242.796875 212.875 243.476562 C 211.03125 244.152344 209.203125 244.800781 207.386719 245.417969 C 205.574219 246.035156 203.78125 246.621094 202.011719 247.171875 C 200.238281 247.726562 198.5 248.246094 196.792969 248.726562 C 195.082031 249.210938 193.410156 249.65625 191.78125 250.066406 C 190.148438 250.472656 188.566406 250.839844 187.027344 251.171875 C 185.492188 251.5 184.007812 251.789062 182.578125 252.035156 C 181.148438 252.285156 179.78125 252.488281 178.476562 252.652344 C 177.167969 252.816406 175.929688 252.9375 174.757812 253.011719 C 173.585938 253.089844 172.488281 253.125 171.460938 253.113281 C 170.4375 253.105469 169.488281 253.054688 168.617188 252.957031 C 167.75 252.863281 166.960938 252.722656 166.257812 252.542969 C 165.550781 252.359375 164.929688 252.136719 164.398438 251.871094 C 163.863281 251.605469 163.417969 251.300781 163.058594 250.953125 C 162.699219 250.605469 162.433594 250.222656 162.253906 249.796875 C 162.078125 249.371094 161.988281 248.910156 161.992188 248.410156 C 161.996094 247.914062 162.089844 247.378906 162.273438 246.8125 C 162.457031 246.246094 162.734375 245.644531 163.097656 245.015625 C 163.460938 244.382812 163.914062 243.722656 164.457031 243.035156 C 164.996094 242.347656 165.621094 241.632812 166.332031 240.890625 C 167.042969 240.152344 167.839844 239.390625 168.714844 238.609375 C 169.589844 237.824219 170.542969 237.023438 171.574219 236.203125 C 172.605469 235.382812 173.710938 234.550781 174.886719 233.703125 C 176.0625 232.855469 177.308594 231.996094 178.617188 231.128906 C 179.929688 230.257812 181.300781 229.386719 182.734375 228.503906 C 184.167969 227.625 185.65625 226.742188 187.195312 225.859375 C 188.738281 224.976562 190.324219 224.097656 191.957031 223.21875 C 193.59375 222.339844 195.265625 221.46875 196.976562 220.605469 C 198.6875 219.738281 200.429688 218.886719 202.203125 218.042969 C 203.976562 217.203125 205.769531 216.375 207.585938 215.5625 C 209.402344 214.75 211.230469 213.957031 213.074219 213.179688 C 214.917969 212.40625 216.765625 211.652344 218.613281 210.925781 C 220.464844 210.195312 222.3125 209.492188 224.15625 208.816406 C 225.996094 208.140625 227.824219 207.492188 229.640625 206.875 C 231.453125 206.253906 233.246094 205.667969 235.019531 205.117188 C 236.789062 204.5625 238.527344 204.046875 240.238281 203.5625 C 241.945312 203.078125 243.617188 202.632812 245.246094 202.226562 C 246.878906 201.816406 248.460938 201.449219 250 201.121094 C 251.539062 200.789062 253.019531 200.5 254.449219 200.253906 C 255.878906 200.007812 257.246094 199.800781 258.554688 199.636719 C 259.859375 199.476562 261.097656 199.355469 262.269531 199.277344 C 263.441406 199.199219 264.539062 199.164062 265.566406 199.175781 C 266.59375 199.183594 267.539062 199.238281 268.410156 199.332031 C 269.28125 199.429688 270.066406 199.566406 270.773438 199.75 C 271.476562 199.929688 272.097656 200.152344 272.632812 200.417969 C 273.167969 200.683594 273.613281 200.992188 273.96875 201.335938 C 274.328125 201.683594 274.597656 202.070312 274.773438 202.492188 Z M 274.773438 202.492188 "/>
<path style=" stroke:none;fill-rule:nonzero;fill:rgb(1.179504%,59.609985%,61.959839%);fill-opacity:1;" d="M 161.789062 246.90625 C 161.789062 247.761719 161.765625 248.613281 161.726562 249.464844 C 161.683594 250.3125 161.625 251.15625 161.542969 251.996094 C 161.460938 252.832031 161.359375 253.660156 161.238281 254.480469 C 161.117188 255.296875 160.976562 256.101562 160.816406 256.890625 C 160.65625 257.679688 160.476562 258.449219 160.28125 259.203125 C 160.082031 259.957031 159.867188 260.6875 159.636719 261.398438 C 159.40625 262.109375 159.15625 262.792969 158.890625 263.453125 C 158.625 264.113281 158.34375 264.746094 158.050781 265.351562 C 157.753906 265.957031 157.445312 266.527344 157.121094 267.070312 C 156.796875 267.613281 156.460938 268.121094 156.113281 268.59375 C 155.769531 269.070312 155.410156 269.507812 155.039062 269.910156 C 154.671875 270.3125 154.292969 270.679688 153.910156 271.003906 C 153.523438 271.332031 153.128906 271.621094 152.730469 271.867188 C 152.328125 272.117188 151.925781 272.324219 151.515625 272.488281 C 151.105469 272.65625 150.691406 272.78125 150.273438 272.867188 C 149.859375 272.949219 149.441406 272.992188 149.023438 272.992188 C 148.605469 272.992188 148.1875 272.949219 147.773438 272.867188 C 147.355469 272.78125 146.945312 272.65625 146.535156 272.488281 C 146.125 272.324219 145.71875 272.117188 145.320312 271.867188 C 144.917969 271.621094 144.527344 271.332031 144.140625 271.003906 C 143.753906 270.679688 143.375 270.3125 143.007812 269.910156 C 142.640625 269.507812 142.28125 269.070312 141.933594 268.59375 C 141.585938 268.121094 141.25 267.613281 140.925781 267.070312 C 140.605469 266.527344 140.292969 265.957031 140 265.351562 C 139.703125 264.746094 139.421875 264.113281 139.15625 263.453125 C 138.894531 262.792969 138.644531 262.109375 138.410156 261.398438 C 138.179688 260.6875 137.964844 259.957031 137.769531 259.203125 C 137.570312 258.449219 137.390625 257.679688 137.230469 256.890625 C 137.070312 256.101562 136.929688 255.296875 136.808594 254.480469 C 136.6875 253.660156 136.585938 252.832031 136.507812 251.996094 C 136.425781 251.15625 136.363281 250.3125 136.320312 249.464844 C 136.28125 248.613281 136.261719 247.761719 136.261719 246.90625 C 136.261719 246.054688 136.28125 245.199219 136.320312 244.351562 C 136.363281 243.5 136.425781 242.65625 136.507812 241.820312 C 136.585938 240.980469 136.6875 240.152344 136.808594 239.335938 C 136.929688 238.519531 137.070312 237.714844 137.230469 236.925781 C 137.390625 236.136719 137.570312 235.363281 137.769531 234.609375 C 137.964844 233.859375 138.179688 233.125 138.410156 232.414062 C 138.644531 231.707031 138.894531 231.019531 139.15625 230.359375 C 139.421875 229.699219 139.703125 229.066406 140 228.464844 C 140.292969 227.859375 140.605469 227.285156 140.925781 226.742188 C 141.25 226.203125 141.585938 225.695312 141.933594 225.21875 C 142.28125 224.746094 142.640625 224.304688 143.007812 223.902344 C 143.375 223.5 143.753906 223.136719 144.140625 222.808594 C 144.527344 222.480469 144.917969 222.195312 145.320312 221.945312 C 145.71875 221.699219 146.125 221.492188 146.535156 221.324219 C 146.945312 221.15625 147.355469 221.03125 147.773438 220.949219 C 148.1875 220.867188 148.605469 220.824219 149.023438 220.824219 C 149.441406 220.824219 149.859375 220.867188 150.273438 220.949219 C 150.691406 221.03125 151.105469 221.15625 151.515625 221.324219 C 151.925781 221.492188 152.328125 221.699219 152.730469 221.945312 C 153.128906 222.195312 153.523438 222.480469 153.910156 222.808594 C 154.292969 223.136719 154.671875 223.5 155.039062 223.902344 C 155.410156 224.304688 155.769531 224.746094 156.113281 225.21875 C 156.460938 225.695312 156.796875 226.203125 157.121094 226.742188 C 157.445312 227.285156 157.753906 227.859375 158.050781 228.464844 C 158.34375 229.066406 158.625 229.699219 158.890625 230.359375 C 159.15625 231.019531 159.40625 231.707031 159.636719 232.414062 C 159.867188 233.125 160.082031 233.859375 160.28125 234.613281 C 160.476562 235.363281 160.65625 236.136719 160.816406 236.925781 C 160.976562 237.714844 161.117188 238.519531 161.238281 239.335938 C 161.359375 240.152344 161.460938 240.980469 161.542969 241.820312 C 161.625 242.65625 161.683594 243.5 161.726562 244.351562 C 161.765625 245.199219 161.789062 246.054688 161.789062 246.90625 Z M 161.789062 246.90625 "/>
<path style=" stroke:none;fill-rule:nonzero;fill:rgb(1.179504%,59.609985%,61.959839%);fill-opacity:1;" d="M 202.914062 254.890625 C 202.914062 255.171875 202.851562 255.449219 202.722656 255.726562 C 202.597656 256.003906 202.40625 256.28125 202.152344 256.554688 C 201.898438 256.828125 201.582031 257.097656 201.203125 257.363281 C 200.828125 257.632812 200.390625 257.894531 199.890625 258.152344 C 199.394531 258.410156 198.839844 258.660156 198.226562 258.90625 C 197.613281 259.152344 196.945312 259.390625 196.222656 259.625 C 195.5 259.855469 194.726562 260.078125 193.902344 260.296875 C 193.074219 260.511719 192.203125 260.71875 191.285156 260.914062 C 190.363281 261.113281 189.402344 261.300781 188.398438 261.476562 C 187.390625 261.652344 186.347656 261.820312 185.265625 261.972656 C 184.1875 262.128906 183.070312 262.273438 181.925781 262.402344 C 180.777344 262.535156 179.601562 262.652344 178.402344 262.761719 C 177.199219 262.867188 175.976562 262.960938 174.734375 263.042969 C 173.488281 263.125 172.226562 263.191406 170.953125 263.246094 C 169.675781 263.300781 168.390625 263.339844 167.097656 263.367188 C 165.804688 263.394531 164.507812 263.410156 163.207031 263.410156 C 161.90625 263.410156 160.609375 263.394531 159.3125 263.367188 C 158.019531 263.339844 156.734375 263.300781 155.460938 263.246094 C 154.183594 263.191406 152.921875 263.125 151.679688 263.042969 C 150.433594 262.960938 149.210938 262.867188 148.011719 262.761719 C 146.808594 262.652344 145.632812 262.535156 144.488281 262.402344 C 143.339844 262.273438 142.226562 262.128906 141.144531 261.972656 C 140.0625 261.820312 139.019531 261.652344 138.015625 261.476562 C 137.007812 261.300781 136.046875 261.113281 135.128906 260.914062 C 134.207031 260.71875 133.335938 260.511719 132.511719 260.296875 C 131.6875 260.078125 130.910156 259.855469 130.1875 259.625 C 129.464844 259.390625 128.800781 259.152344 128.1875 258.90625 C 127.574219 258.660156 127.015625 258.410156 126.519531 258.152344 C 126.023438 257.894531 125.585938 257.632812 125.207031 257.363281 C 124.828125 257.097656 124.515625 256.828125 124.261719 256.554688 C 124.007812 256.28125 123.816406 256.003906 123.6875 255.726562 C 123.5625 255.449219 123.496094 255.171875 123.496094 254.890625 C 123.496094 254.613281 123.5625 254.335938 123.6875 254.058594 C 123.816406 253.78125 124.007812 253.503906 124.261719 253.230469 C 124.515625 252.957031 124.828125 252.6875 125.207031 252.417969 C 125.585938 252.152344 126.023438 251.890625 126.519531 251.632812 C 127.015625 251.375 127.574219 251.121094 128.1875 250.878906 C 128.800781 250.632812 129.464844 250.390625 130.1875 250.160156 C 130.910156 249.929688 131.6875 249.703125 132.511719 249.488281 C 133.335938 249.273438 134.207031 249.066406 135.128906 248.871094 C 136.046875 248.671875 137.007812 248.484375 138.015625 248.308594 C 139.019531 248.132812 140.0625 247.964844 141.144531 247.808594 C 142.226562 247.65625 143.339844 247.511719 144.488281 247.378906 C 145.632812 247.25 146.808594 247.128906 148.011719 247.023438 C 149.210938 246.917969 150.433594 246.824219 151.679688 246.742188 C 152.921875 246.660156 154.183594 246.59375 155.460938 246.539062 C 156.734375 246.484375 158.019531 246.441406 159.3125 246.414062 C 160.609375 246.386719 161.90625 246.375 163.207031 246.375 C 164.507812 246.375 165.804688 246.386719 167.097656 246.414062 C 168.390625 246.441406 169.675781 246.484375 170.953125 246.539062 C 172.226562 246.59375 173.488281 246.660156 174.734375 246.742188 C 175.976562 246.824219 177.199219 246.917969 178.402344 247.023438 C 179.601562 247.128906 180.777344 247.25 181.925781 247.378906 C 183.070312 247.511719 184.1875 247.65625 185.265625 247.808594 C 186.347656 247.964844 187.390625 248.132812 188.398438 248.308594 C 189.402344 248.484375 190.363281 248.671875 191.285156 248.871094 C 192.203125 249.066406 193.074219 249.273438 193.902344 249.488281 C 194.726562 249.703125 195.5 249.929688 196.222656 250.160156 C 196.945312 250.390625 197.613281 250.632812 198.226562 250.878906 C 198.839844 251.121094 199.394531 251.375 199.890625 251.632812 C 200.390625 251.890625 200.828125 252.152344 201.203125 252.417969 C 201.582031 252.6875 201.898438 252.957031 202.152344 253.230469 C 202.40625 253.503906 202.597656 253.78125 202.722656 254.058594 C 202.851562 254.335938 202.914062 254.613281 202.914062 254.890625 Z M 202.914062 254.890625 "/>
<path style=" stroke:none;fill-rule:nonzero;fill:rgb(1.179504%,59.609985%,61.959839%);fill-opacity:1;" d="M 171.359375 262.523438 C 171.359375 263.027344 171.320312 263.53125 171.234375 264.035156 C 171.152344 264.539062 171.027344 265.039062 170.859375 265.535156 C 170.691406 266.03125 170.484375 266.519531 170.238281 267.003906 C 169.992188 267.488281 169.703125 267.960938 169.375 268.429688 C 169.050781 268.898438 168.6875 269.351562 168.285156 269.800781 C 167.882812 270.246094 167.441406 270.679688 166.96875 271.097656 C 166.496094 271.519531 165.988281 271.925781 165.445312 272.316406 C 164.902344 272.707031 164.332031 273.082031 163.726562 273.4375 C 163.125 273.796875 162.492188 274.132812 161.832031 274.457031 C 161.171875 274.777344 160.488281 275.078125 159.777344 275.359375 C 159.070312 275.636719 158.339844 275.898438 157.585938 276.136719 C 156.832031 276.375 156.0625 276.589844 155.273438 276.785156 C 154.484375 276.976562 153.683594 277.148438 152.867188 277.292969 C 152.050781 277.441406 151.222656 277.5625 150.386719 277.664062 C 149.546875 277.761719 148.703125 277.835938 147.855469 277.886719 C 147.007812 277.933594 146.15625 277.960938 145.300781 277.960938 C 144.449219 277.960938 143.597656 277.933594 142.746094 277.886719 C 141.898438 277.835938 141.054688 277.761719 140.21875 277.664062 C 139.378906 277.5625 138.554688 277.441406 137.738281 277.292969 C 136.921875 277.148438 136.117188 276.976562 135.328125 276.785156 C 134.539062 276.589844 133.769531 276.375 133.015625 276.136719 C 132.265625 275.898438 131.535156 275.636719 130.824219 275.359375 C 130.113281 275.078125 129.429688 274.777344 128.769531 274.457031 C 128.109375 274.132812 127.480469 273.796875 126.875 273.4375 C 126.273438 273.082031 125.699219 272.707031 125.15625 272.316406 C 124.617188 271.925781 124.109375 271.519531 123.632812 271.097656 C 123.160156 270.679688 122.722656 270.246094 122.320312 269.800781 C 121.917969 269.351562 121.554688 268.898438 121.226562 268.429688 C 120.898438 267.960938 120.613281 267.488281 120.363281 267.003906 C 120.117188 266.519531 119.910156 266.03125 119.742188 265.535156 C 119.578125 265.039062 119.453125 264.539062 119.367188 264.035156 C 119.285156 263.53125 119.242188 263.027344 119.242188 262.523438 C 119.242188 262.015625 119.285156 261.511719 119.367188 261.007812 C 119.453125 260.503906 119.578125 260.007812 119.742188 259.511719 C 119.910156 259.015625 120.117188 258.523438 120.363281 258.039062 C 120.613281 257.558594 120.898438 257.082031 121.226562 256.613281 C 121.554688 256.148438 121.917969 255.691406 122.320312 255.246094 C 122.722656 254.800781 123.160156 254.367188 123.632812 253.945312 C 124.109375 253.523438 124.617188 253.121094 125.15625 252.730469 C 125.699219 252.335938 126.273438 251.964844 126.875 251.605469 C 127.480469 251.25 128.109375 250.910156 128.769531 250.589844 C 129.429688 250.269531 130.113281 249.96875 130.824219 249.6875 C 131.535156 249.40625 132.265625 249.144531 133.015625 248.90625 C 133.769531 248.667969 134.539062 248.453125 135.328125 248.257812 C 136.117188 248.066406 136.921875 247.894531 137.738281 247.75 C 138.554688 247.601562 139.378906 247.480469 140.21875 247.382812 C 141.054688 247.28125 141.898438 247.207031 142.746094 247.160156 C 143.597656 247.109375 144.449219 247.085938 145.300781 247.085938 C 146.15625 247.085938 147.007812 247.109375 147.855469 247.160156 C 148.703125 247.207031 149.546875 247.28125 150.386719 247.382812 C 151.222656 247.480469 152.050781 247.601562 152.867188 247.75 C 153.683594 247.894531 154.484375 248.066406 155.273438 248.257812 C 156.0625 248.453125 156.832031 248.667969 157.585938 248.90625 C 158.339844 249.144531 159.070312 249.40625 159.777344 249.6875 C 160.488281 249.96875 161.171875 250.269531 161.832031 250.589844 C 162.492188 250.910156 163.125 251.25 163.726562 251.605469 C 164.332031 251.964844 164.902344 252.335938 165.445312 252.730469 C 165.988281 253.121094 166.496094 253.523438 166.96875 253.945312 C 167.441406 254.367188 167.882812 254.800781 168.285156 255.246094 C 168.6875 255.691406 169.050781 256.148438 169.375 256.613281 C 169.703125 257.082031 169.992188 257.558594 170.238281 258.039062 C 170.484375 258.523438 170.691406 259.015625 170.859375 259.511719 C 171.027344 260.007812 171.152344 260.503906 171.234375 261.007812 C 171.320312 261.511719 171.359375 262.015625 171.359375 262.523438 Z M 171.359375 262.523438 "/>
<path style=" stroke:none;fill-rule:nonzero;fill:rgb(1.179504%,59.609985%,61.959839%);fill-opacity:1;" d="M 135.195312 273.347656 C 135.195312 273.882812 135.152344 274.414062 135.0625 274.9375 C 134.96875 275.464844 134.835938 275.972656 134.65625 276.46875 C 134.480469 276.964844 134.261719 277.433594 134.003906 277.878906 C 133.742188 278.328125 133.449219 278.738281 133.121094 279.117188 C 132.789062 279.496094 132.433594 279.835938 132.046875 280.132812 C 131.660156 280.429688 131.25 280.683594 130.820312 280.886719 C 130.390625 281.09375 129.945312 281.246094 129.488281 281.351562 C 129.03125 281.457031 128.570312 281.507812 128.105469 281.507812 C 127.640625 281.507812 127.179688 281.457031 126.722656 281.351562 C 126.265625 281.246094 125.824219 281.09375 125.394531 280.886719 C 124.960938 280.683594 124.554688 280.429688 124.167969 280.132812 C 123.78125 279.835938 123.421875 279.496094 123.09375 279.117188 C 122.761719 278.738281 122.46875 278.328125 122.210938 277.878906 C 121.953125 277.433594 121.734375 276.964844 121.554688 276.46875 C 121.375 275.972656 121.242188 275.464844 121.152344 274.9375 C 121.0625 274.414062 121.015625 273.882812 121.015625 273.347656 C 121.015625 272.808594 121.0625 272.277344 121.152344 271.753906 C 121.242188 271.226562 121.375 270.71875 121.554688 270.222656 C 121.734375 269.726562 121.953125 269.257812 122.210938 268.8125 C 122.46875 268.367188 122.761719 267.953125 123.09375 267.574219 C 123.421875 267.195312 123.78125 266.855469 124.167969 266.558594 C 124.554688 266.261719 124.960938 266.011719 125.394531 265.804688 C 125.824219 265.601562 126.265625 265.445312 126.722656 265.339844 C 127.179688 265.234375 127.640625 265.183594 128.105469 265.183594 C 128.570312 265.183594 129.03125 265.234375 129.488281 265.339844 C 129.945312 265.445312 130.390625 265.601562 130.820312 265.804688 C 131.25 266.011719 131.660156 266.261719 132.046875 266.558594 C 132.433594 266.855469 132.789062 267.195312 133.121094 267.574219 C 133.449219 267.953125 133.742188 268.367188 134.003906 268.8125 C 134.261719 269.257812 134.480469 269.726562 134.65625 270.222656 C 134.835938 270.71875 134.96875 271.226562 135.0625 271.753906 C 135.152344 272.277344 135.195312 272.808594 135.195312 273.347656 Z M 135.195312 273.347656 "/>
<path style=" stroke:none;fill-rule:nonzero;fill:rgb(1.179504%,59.609985%,61.959839%);fill-opacity:1;" d="M 128.105469 279.203125 C 128.105469 279.601562 128.007812 279.984375 127.808594 280.355469 C 127.613281 280.726562 127.328125 281.050781 126.964844 281.335938 C 126.597656 281.617188 126.175781 281.835938 125.699219 281.988281 C 125.222656 282.140625 124.722656 282.21875 124.207031 282.21875 C 123.6875 282.21875 123.191406 282.140625 122.714844 281.988281 C 122.234375 281.835938 121.8125 281.617188 121.449219 281.335938 C 121.082031 281.050781 120.800781 280.726562 120.601562 280.355469 C 120.40625 279.984375 120.304688 279.601562 120.304688 279.203125 C 120.304688 278.800781 120.40625 278.417969 120.601562 278.046875 C 120.800781 277.675781 121.082031 277.351562 121.449219 277.070312 C 121.8125 276.785156 122.234375 276.566406 122.714844 276.414062 C 123.191406 276.261719 123.6875 276.183594 124.207031 276.183594 C 124.722656 276.183594 125.222656 276.261719 125.699219 276.414062 C 126.175781 276.566406 126.597656 276.785156 126.964844 277.070312 C 127.328125 277.351562 127.613281 277.675781 127.808594 278.046875 C 128.007812 278.417969 128.105469 278.800781 128.105469 279.203125 Z M 128.105469 279.203125 "/>
<path style=" stroke:none;fill-rule:nonzero;fill:rgb(1.179504%,59.609985%,61.959839%);fill-opacity:1;" d="M 141.054688 293.339844 C 140.46875 294.199219 139.867188 295.042969 139.25 295.878906 C 138.636719 296.710938 138.007812 297.527344 137.371094 298.324219 C 136.730469 299.125 136.085938 299.902344 135.429688 300.660156 C 134.777344 301.417969 134.117188 302.152344 133.453125 302.863281 C 132.789062 303.570312 132.121094 304.253906 131.453125 304.90625 C 130.785156 305.5625 130.117188 306.183594 129.449219 306.777344 C 128.785156 307.367188 128.125 307.925781 127.46875 308.453125 C 126.8125 308.976562 126.164062 309.464844 125.519531 309.917969 C 124.878906 310.371094 124.25 310.785156 123.628906 311.160156 C 123.011719 311.535156 122.40625 311.867188 121.8125 312.164062 C 121.222656 312.457031 120.644531 312.710938 120.085938 312.921875 C 119.527344 313.136719 118.988281 313.304688 118.46875 313.429688 C 117.949219 313.554688 117.453125 313.640625 116.976562 313.679688 C 116.5 313.71875 116.046875 313.714844 115.617188 313.667969 C 115.191406 313.621094 114.789062 313.53125 114.414062 313.394531 C 114.039062 313.261719 113.691406 313.085938 113.371094 312.867188 C 113.050781 312.648438 112.761719 312.386719 112.5 312.085938 C 112.238281 311.785156 112.011719 311.441406 111.8125 311.058594 C 111.613281 310.675781 111.445312 310.257812 111.308594 309.796875 C 111.175781 309.339844 111.070312 308.84375 111 308.3125 C 110.929688 307.78125 110.890625 307.21875 110.886719 306.621094 C 110.882812 306.023438 110.910156 305.394531 110.96875 304.734375 C 111.03125 304.074219 111.125 303.390625 111.25 302.675781 C 111.375 301.960938 111.53125 301.222656 111.722656 300.460938 C 111.910156 299.699219 112.128906 298.917969 112.382812 298.113281 C 112.632812 297.3125 112.914062 296.492188 113.222656 295.65625 C 113.535156 294.824219 113.875 293.972656 114.242188 293.113281 C 114.609375 292.253906 115 291.386719 115.421875 290.507812 C 115.839844 289.632812 116.285156 288.75 116.753906 287.863281 C 117.222656 286.980469 117.714844 286.09375 118.230469 285.210938 C 118.742188 284.324219 119.277344 283.445312 119.828125 282.570312 C 120.382812 281.695312 120.953125 280.828125 121.539062 279.96875 C 122.125 279.109375 122.726562 278.261719 123.34375 277.429688 C 123.957031 276.597656 124.585938 275.78125 125.222656 274.980469 C 125.863281 274.183594 126.507812 273.40625 127.164062 272.644531 C 127.816406 271.886719 128.476562 271.15625 129.140625 270.445312 C 129.808594 269.734375 130.472656 269.054688 131.140625 268.398438 C 131.808594 267.746094 132.476562 267.125 133.144531 266.53125 C 133.808594 265.9375 134.46875 265.378906 135.125 264.855469 C 135.78125 264.332031 136.433594 263.84375 137.074219 263.390625 C 137.714844 262.9375 138.34375 262.523438 138.964844 262.148438 C 139.582031 261.773438 140.1875 261.4375 140.78125 261.144531 C 141.375 260.847656 141.949219 260.59375 142.507812 260.382812 C 143.066406 260.171875 143.605469 260.003906 144.125 259.878906 C 144.644531 259.75 145.144531 259.667969 145.621094 259.628906 C 146.09375 259.589844 146.546875 259.59375 146.976562 259.640625 C 147.402344 259.6875 147.804688 259.777344 148.179688 259.910156 C 148.554688 260.046875 148.902344 260.222656 149.222656 260.441406 C 149.542969 260.660156 149.832031 260.921875 150.09375 261.222656 C 150.355469 261.523438 150.585938 261.867188 150.78125 262.25 C 150.980469 262.632812 151.148438 263.050781 151.285156 263.511719 C 151.417969 263.96875 151.523438 264.464844 151.59375 264.996094 C 151.664062 265.527344 151.703125 266.089844 151.707031 266.6875 C 151.710938 267.285156 151.683594 267.914062 151.625 268.574219 C 151.5625 269.230469 151.46875 269.917969 151.34375 270.632812 C 151.21875 271.347656 151.0625 272.085938 150.875 272.847656 C 150.683594 273.609375 150.464844 274.390625 150.210938 275.191406 C 149.960938 275.996094 149.679688 276.816406 149.371094 277.648438 C 149.058594 278.484375 148.722656 279.332031 148.355469 280.195312 C 147.988281 281.054688 147.59375 281.921875 147.171875 282.800781 C 146.753906 283.675781 146.308594 284.558594 145.839844 285.441406 C 145.371094 286.328125 144.878906 287.214844 144.363281 288.097656 C 143.851562 288.980469 143.316406 289.863281 142.765625 290.738281 C 142.210938 291.613281 141.640625 292.480469 141.054688 293.339844 Z M 141.054688 293.339844 "/>
<path style=" stroke:none;fill-rule:nonzero;fill:rgb(1.179504%,59.609985%,61.959839%);fill-opacity:1;" d="M 126.332031 314.867188 C 126.332031 315.378906 126.285156 315.886719 126.195312 316.390625 C 126.101562 316.894531 125.960938 317.382812 125.78125 317.855469 C 125.597656 318.328125 125.375 318.777344 125.109375 319.203125 C 124.84375 319.628906 124.542969 320.023438 124.203125 320.386719 C 123.867188 320.75 123.5 321.074219 123.101562 321.359375 C 122.707031 321.644531 122.289062 321.882812 121.847656 322.078125 C 121.40625 322.277344 120.953125 322.425781 120.484375 322.523438 C 120.015625 322.625 119.542969 322.675781 119.066406 322.675781 C 118.589844 322.675781 118.117188 322.625 117.648438 322.523438 C 117.179688 322.425781 116.726562 322.277344 116.285156 322.078125 C 115.84375 321.882812 115.425781 321.644531 115.027344 321.359375 C 114.628906 321.074219 114.261719 320.75 113.925781 320.386719 C 113.589844 320.023438 113.289062 319.628906 113.023438 319.203125 C 112.757812 318.777344 112.53125 318.328125 112.351562 317.855469 C 112.167969 317.382812 112.03125 316.894531 111.9375 316.390625 C 111.84375 315.886719 111.796875 315.378906 111.796875 314.867188 C 111.796875 314.355469 111.84375 313.847656 111.9375 313.34375 C 112.03125 312.839844 112.167969 312.351562 112.351562 311.878906 C 112.53125 311.40625 112.757812 310.957031 113.023438 310.53125 C 113.289062 310.101562 113.589844 309.707031 113.925781 309.347656 C 114.261719 308.984375 114.628906 308.660156 115.027344 308.375 C 115.425781 308.089844 115.84375 307.851562 116.285156 307.652344 C 116.726562 307.457031 117.179688 307.308594 117.648438 307.210938 C 118.117188 307.109375 118.589844 307.058594 119.066406 307.058594 C 119.542969 307.058594 120.015625 307.109375 120.484375 307.210938 C 120.953125 307.308594 121.40625 307.457031 121.847656 307.652344 C 122.289062 307.851562 122.707031 308.089844 123.101562 308.375 C 123.5 308.660156 123.867188 308.984375 124.203125 309.347656 C 124.542969 309.707031 124.84375 310.101562 125.109375 310.53125 C 125.375 310.957031 125.597656 311.40625 125.78125 311.878906 C 125.960938 312.351562 126.101562 312.839844 126.195312 313.34375 C 126.285156 313.847656 126.332031 314.355469 126.332031 314.867188 Z M 126.332031 314.867188 "/>
<path style=" stroke:none;fill-rule:nonzero;fill:rgb(1.179504%,59.609985%,61.959839%);fill-opacity:1;" d="M 313.886719 206.628906 C 313.886719 206.90625 313.835938 207.183594 313.734375 207.457031 C 313.632812 207.734375 313.480469 208 313.277344 208.257812 C 313.078125 208.515625 312.832031 208.761719 312.542969 208.992188 C 312.25 209.226562 311.921875 209.441406 311.550781 209.640625 C 311.179688 209.835938 310.777344 210.011719 310.339844 210.167969 C 309.90625 210.324219 309.445312 210.457031 308.960938 210.5625 C 308.476562 210.667969 307.980469 210.75 307.464844 210.804688 C 306.953125 210.859375 306.433594 210.886719 305.910156 210.886719 C 305.386719 210.886719 304.867188 210.859375 304.351562 210.804688 C 303.839844 210.75 303.339844 210.667969 302.855469 210.5625 C 302.371094 210.457031 301.914062 210.324219 301.476562 210.167969 C 301.042969 210.011719 300.640625 209.835938 300.269531 209.640625 C 299.898438 209.441406 299.566406 209.226562 299.277344 208.992188 C 298.984375 208.761719 298.738281 208.515625 298.539062 208.257812 C 298.339844 208 298.1875 207.734375 298.085938 207.457031 C 297.984375 207.183594 297.933594 206.90625 297.933594 206.628906 C 297.933594 206.347656 297.984375 206.070312 298.085938 205.796875 C 298.1875 205.523438 298.339844 205.257812 298.539062 205 C 298.738281 204.738281 298.984375 204.496094 299.277344 204.261719 C 299.566406 204.03125 299.898438 203.816406 300.269531 203.617188 C 300.640625 203.417969 301.042969 203.242188 301.476562 203.085938 C 301.914062 202.933594 302.371094 202.800781 302.855469 202.695312 C 303.339844 202.585938 303.839844 202.507812 304.351562 202.453125 C 304.867188 202.398438 305.386719 202.371094 305.910156 202.371094 C 306.433594 202.371094 306.953125 202.398438 307.464844 202.453125 C 307.980469 202.507812 308.476562 202.585938 308.960938 202.695312 C 309.445312 202.800781 309.90625 202.933594 310.339844 203.085938 C 310.777344 203.242188 311.179688 203.417969 311.550781 203.617188 C 311.921875 203.816406 312.25 204.03125 312.542969 204.261719 C 312.832031 204.496094 313.078125 204.738281 313.277344 205 C 313.480469 205.257812 313.632812 205.523438 313.734375 205.796875 C 313.835938 206.070312 313.886719 206.347656 313.886719 206.628906 Z M 313.886719 206.628906 "/>
</g>
</svg>
