<svg xmlns="http://www.w3.org/2000/svg" xmlns:xlink="http://www.w3.org/1999/xlink" x="0" y="0" version="1.1" viewBox="0 0 864 864" xml:space="preserve" style="enable-background:new 0 0 864 864"><style type="text/css">.st0{fill:#8674f5}.st2{fill:#1d1d21}.st3{fill:#0c0c0c}</style><g id="Layer_3"><g><path d="M199.03,392.92c-16.18-9.47-30.66-22.08-42.5-36.83l-4.29-5.65c-1.37-1.91-2.68-3.86-4-5.79l-0.98-1.43 l-0.94-1.27c-0.64-0.84-1.21-1.71-1.93-2.5c-0.7-0.79-1.35-1.64-2.08-2.39l-2.2-2.23c-3.02-2.84-6.38-5.19-9.96-6.63l-1.34-0.52 c-0.45-0.18-0.91-0.25-1.36-0.39c-0.9-0.3-1.81-0.4-2.72-0.56c-1.8-0.17-3.61-0.25-5.29,0.14c-1.69,0.34-3.32,0.89-4.73,1.82 c-1.41,0.9-2.73,1.99-3.72,3.39c-1.01,1.37-1.88,2.9-2.41,4.63c-0.35,0.82-0.47,1.75-0.69,2.63c-0.1,0.45-0.11,0.93-0.18,1.39 c-0.04,0.47-0.15,0.92-0.13,1.4c-0.17,3.8,0.59,7.78,1.93,11.65c1.34,3.83,3.28,7.55,5.56,11.1c7.36,9.22,14.88,18.28,22.71,27.03 c7.89,8.82,16.09,17.34,24.94,25.14c8.75,7.9,18.19,15.02,28.3,21.12c5.07,3.03,10.35,5.69,15.77,8.13l1.01,0.47l1.04,0.4 l2.08,0.79l4.17,1.62c2.82,0.96,5.69,1.77,8.55,2.71c-2.95-0.49-5.92-0.97-8.88-1.56l-0.49-0.12 c-13.13,16.17-28.39,30.93-46.1,44.63l-0.33,0.26l-0.37,0.2c-34.65,18.49-60.39,38.49-76.07,65.42c0,0-1.76,2.87-1.77,2.87 c-3.89,8.57-5.06,16.77-2.76,20.21c2.37,3.54,10.55,6.23,20.43,5.85c6.14-0.24,13.09-4.37,19.49-6.95 c15.23-6.14,42.26-5.44,62-4.93c3.83,0.1,7.46-1.71,10.17-3.58l2.65-2.1c35.71-29.21,42.63-37.96,45.77-45.61 c1.35-3.3,12.58-24.61,16.18-28.66c0.09-0.1,0.24,0,0.2,0.12l-10.67,33.06c0,0,0,0.01,0,0.01c-3.86,9.41-10.32,25.09-52,58.35 c0,0-0.01,0.01-0.01,0.01c-4.18,4.96-11.48,8.18-19.12,11.54c-6.43,2.83-13.09,5.75-17.68,9.62 c-6.37,5.38-10.84,12.13-12.92,19.53c-1.92,6.84-1.33,12.07,1.81,16c4.82,6.04,18.81,12.83,58,10.88 c10.33-0.79,19.89-1.18,28.73-1.18c13.76,0,20.79-1.39,31.4,0.53c5.16,0.93,15.84,2.28,20.32,5.01 c28.65,17.43,71.56,27.15,128.96,23.15c0,0,0.01,0,0.01,0l124.8-17.65c0,0,0.01,0,0.01,0l92.16-2.87c0.01,0,0.01,0,0.02,0 c3.95-0.78,5.35-1.75,5.75-2.11c0.03-0.03,0.04-0.06,0.03-0.1c-0.13-0.51-0.71-2.06-3.44-4.88c-1.85-1.91-4.07-3.71-6.81-5.49 c-10.76-7.02-17.58-15.79-20.29-26.07l0,0l-55.38-111.07c-0.06-0.12,0.1-0.24,0.19-0.14c13.95,14.97,41.85,59.35,56.48,88.91 c4.77,9.64,14.68,10.62,25.41,9.88c48.36-3.33,88.35-7.65,118.64-22.43c2.61-1.27,4.45-3.63,5.03-6.47 c0.59-2.86-0.17-5.77-2.09-7.99c-6.57-7.62-17.3-14.41-33.74-21.36c-8.05-2.86-16.87-8.68-26.97-17.77l-0.38-0.38 c-4.6-5.12-12.38-11.34-23.12-18.48c-12.46-8.28-25.9-15.45-39.95-21.32c-24.89-10.39-34.91-20.97-48.46-37.79 c-3.08-3.82-9.64-17.7-10.93-23.08c-4.8-19.93-29.97-89.22-69.42-142.99l-0.12-0.17c-27.92-41.6-65.35-61.16-113.35-55.17 c-39.31,4.9-74.71,26.78-100.64,57.52c-12.49,14.81-22.48,31.65-29.68,50.04c-2.15,5.5-4.09,11.66-6.08,19.41 c-3.59,13.93-9.27,28.75-16.92,44.2c3.17,1.3,6.38,2.53,9.61,3.72C232.9,408.88,215.19,402.46,199.03,392.92z M506.78,442.56 l1.93,4.09l0.96,2.06l0.48,1.03l0.41,1.06l1.62,4.24c0.54,1.42,1.12,2.82,1.51,4.29l1.3,4.36l0.65,2.18l0.52,2.21 c2.97,11.79,4.2,23.97,4.57,36.11c0.22,12.15-0.47,24.28-1.8,36.31c-1.34,12.03-3.29,23.95-5.53,35.77l-0.04,0.2l-0.07,0.23 c-1.42,4.72-3.27,9.39-5.84,13.8c-2.57,4.4-5.94,8.52-10.24,11.82c-0.51,0.44-1.11,0.78-1.68,1.17c-0.58,0.37-1.13,0.77-1.74,1.09 c-1.24,0.63-2.43,1.32-3.78,1.78c-2.59,1.07-5.45,1.64-8.34,1.75c-5.79,0.26-11.76-1.82-16.11-5.57c-2.25-1.81-4.01-4.07-5.5-6.42 c-0.69-1.2-1.39-2.4-1.88-3.67c-0.26-0.63-0.57-1.25-0.77-1.89l-0.61-1.92c-1.52-5.15-1.83-10.41-1.37-15.45 c0.14-1.25,0.31-2.5,0.48-3.75c0.18-1.24,0.48-2.45,0.71-3.67c0.22-1.22,0.6-2.42,0.92-3.63l0.5-1.81l0.51-1.63 c0.67-2.15,1.41-4.3,2.06-6.45l1.77-6.48c2.13-8.7,3.68-17.57,4.34-26.54c0.65-8.97,0.67-18.02-0.09-27.05 c-1.51-18.08-6.07-35.93-12.18-53.34c8.49,16.38,14.8,34.12,17.73,52.66c2.99,18.51,2.48,37.7-1.36,56.22l-1.62,6.91 c-0.6,2.28-1.27,4.52-1.92,6.77l-0.48,1.67l-0.38,1.53c-0.24,1.03-0.55,2.03-0.7,3.08c-0.17,1.04-0.41,2.08-0.52,3.12l-0.32,3.12 c-0.27,4.14,0.06,8.23,1.23,11.9l0.45,1.36c0.15,0.46,0.38,0.86,0.56,1.3c0.34,0.89,0.84,1.65,1.3,2.45c1.01,1.5,2.1,2.94,3.48,4 c1.33,1.09,2.8,2,4.41,2.49c1.59,0.51,3.27,0.84,4.98,0.71c1.7-0.1,3.44-0.39,5.11-1.09c0.86-0.26,1.65-0.76,2.47-1.14 c0.41-0.21,0.79-0.5,1.18-0.74c0.39-0.27,0.8-0.47,1.16-0.8c3.04-2.29,5.63-5.4,7.76-8.91c2.11-3.47,3.74-7.34,5.03-11.37 c2.42-11.54,4.63-23.1,6.39-34.7c1.78-11.7,3.13-23.45,3.52-35.23c0.53-11.78,0.01-23.59-1.73-35.27 c-0.89-5.84-2.2-11.61-3.77-17.34l-0.28-1.08l-0.36-1.05l-0.71-2.11l-1.4-4.24c-1.06-2.78-2.25-5.52-3.35-8.32 C503.82,437.3,505.35,439.9,506.78,442.56z M378.9,324.52c8.7,0,15.76,13.98,15.76,31.21c0,17.24-7.06,31.21-15.76,31.21 s-15.76-13.98-15.76-31.21C363.14,338.5,370.19,324.52,378.9,324.52z M373.4,408.84c0.97-0.29,1.89,0.49,1.27,1.08 c-21.8,21.04-39.41,23.58-51.17,0.29c-0.35-0.7,0.87-1.28,1.67-0.79C335.82,415.91,352.42,415.06,373.4,408.84z M315.31,333.08 c5.89,1.05,11.89,13.53,13.46,27.76c1.63,14.11-2.35,25.76-8.94,26.13c-6.61,0.39-12.76-11.79-13.68-27.32 C305.29,344,309.41,332.05,315.31,333.08z" class="st0"/><path d="M768.67,569.84c-7.63-8.85-19.57-16.51-37.56-24.1l-0.28-0.11c-6.68-2.35-14.6-7.61-23.55-15.64 c0,0-0.01-0.01-0.01-0.01c-5.25-5.78-13.37-12.3-24.84-19.92c-12.98-8.63-26.99-16.1-41.63-22.22 c-22.92-9.57-39.24-22.05-48.51-37.08c-2.09-3.38-3.78-7.35-5.04-11.79c-12.47-44.09-30.65-96.56-71-151.59 c-29.8-44.36-70.95-63.6-122.3-57.19c-41.82,5.22-80.02,26.08-107.58,58.76c-13.2,15.65-23.74,33.43-31.35,52.84 c-2.3,5.88-4.36,12.41-6.46,20.56c-3.46,13.4-8.98,27.74-16.44,42.73c3.03,1.38,6.1,2.7,9.2,3.96 c7.65-15.44,13.33-30.27,16.92-44.2c2-7.75,3.93-13.91,6.08-19.41c7.21-18.39,17.19-35.23,29.68-50.04 c25.93-30.74,61.33-52.62,100.64-57.52c47.99-5.99,85.43,13.57,113.35,55.17l0.12,0.17c39.45,53.77,64.62,123.05,69.42,142.99 c1.3,5.38,7.86,19.26,10.93,23.08c13.55,16.82,23.57,27.39,48.46,37.79c14.05,5.87,27.5,13.04,39.95,21.32 c10.74,7.14,18.52,13.35,23.12,18.48l0.38,0.38c10.1,9.09,18.92,14.9,26.97,17.77c16.45,6.95,27.17,13.74,33.74,21.36 c1.91,2.22,2.68,5.13,2.09,7.99c-0.58,2.84-2.42,5.2-5.03,6.47c-30.3,14.78-70.28,19.1-118.64,22.43 c-10.73,0.74-20.64-0.24-25.41-9.88c-14.63-29.57-42.53-73.94-56.48-88.91c-0.09-0.1-0.25,0.02-0.19,0.14l55.38,111.07l0,0 c2.71,10.28,9.53,19.05,20.29,26.07c2.73,1.78,4.96,3.58,6.81,5.49c2.72,2.82,3.31,4.37,3.44,4.88c0.01,0.04,0,0.08-0.03,0.1 c-0.4,0.35-1.8,1.32-5.75,2.11c-0.01,0-0.01,0-0.02,0l-92.16,2.87c0,0-0.01,0-0.01,0l-124.8,17.65c0,0-0.01,0-0.01,0 c-57.4,4-100.31-5.72-128.96-23.15c-4.48-2.73-15.16-4.07-20.32-5.01c-10.61-1.92-17.63-0.53-31.4-0.53 c-8.84,0-18.4,0.39-28.73,1.18c-39.19,1.95-53.18-4.84-58-10.88c-3.14-3.93-3.73-9.17-1.81-16c2.08-7.4,6.55-14.16,12.92-19.53 c4.59-3.87,11.25-6.8,17.68-9.62c7.64-3.36,14.94-6.58,19.12-11.54c0,0,0.01-0.01,0.01-0.01c41.68-33.26,48.14-48.94,52-58.35 c0,0,0-0.01,0-0.01l10.67-33.06c0.04-0.12-0.12-0.22-0.2-0.12c-3.6,4.05-14.83,25.36-16.18,28.66 c-3.14,7.65-10.07,16.4-45.77,45.61l-2.65,2.1c-2.71,1.88-6.34,3.68-10.17,3.58c-19.74-0.51-46.77-1.22-62,4.93 c-6.4,2.58-13.35,6.72-19.49,6.95c-9.88,0.38-18.06-2.31-20.43-5.85c-2.3-3.44-1.13-11.64,2.76-20.21c0,0,1.76-2.87,1.77-2.87 c15.68-26.93,41.42-46.93,76.07-65.42l0.37-0.2l0.33-0.26c17.71-13.7,32.97-28.46,46.1-44.63l-3.89-0.99l-2.19-0.57l-1.1-0.29 l-1.07-0.36l-2.28-0.77c-11.93,14.17-25.63,27.23-41.35,39.43c-0.01,0-0.01,0.01-0.02,0.01c-36.22,19.39-62.97,43.7-79.53,72.26 l-0.22,0.42c-5.66,12.35-6.24,21.61-1.76,28.3c4.53,6.77,13.5,9.8,27.41,9.27c7.3-0.28,14.79-1.95,22.26-4.96 c12.74-5.14,37.92-4.71,55.66-4.26c0.13,0,0.16,0.17,0.05,0.23c-2.56,1.31-5.45,2.58-8.31,3.83c-7.08,3.11-14.41,6.33-20.11,11.14 c-7.91,6.67-13.48,15.13-16.1,24.47c-2.81,10.02-1.6,18.41,3.62,24.94c9.27,11.61,30.98,16.39,66.38,14.63l0.13-0.01 c25.55-1.95,46.04-1.44,62.62,1.54c3.91,0.7,7.66,2.11,11.05,4.18c24.94,15.23,60.08,22.9,104.74,22.9 c9.93,0,20.33-0.38,31.19-1.14c0,0,0.01,0,0.01,0l124.78-17.64c0,0,0.01,0,0.01,0l92.41-2.88l0.38-0.07 c2.9-0.54,11.74-2.2,13.91-9c2.14-6.69-3.86-12.9-5.83-14.94c-2.37-2.46-5.17-4.72-8.54-6.92c-6.44-4.2-11-8.91-13.78-14.27 c-0.04-0.08,0.02-0.17,0.11-0.18c56.43-2.4,102.55-12.1,137.17-28.87c5.4-2.62,9.53-7.45,10.85-13.31 C774.27,580.71,772.71,574.52,768.67,569.84z" class="st2"/><path d="M319.83,386.96c6.6-0.37,10.57-12.01,8.94-26.13c-1.57-14.23-7.58-26.71-13.46-27.76 c-5.9-1.03-10.02,10.92-9.16,26.56C307.07,375.17,313.23,387.35,319.83,386.96z" class="st2"/><ellipse cx="378.9" cy="355.74" class="st2" rx="15.76" ry="31.21"/><path d="M323.5,410.21c11.76,23.29,29.38,20.75,51.17-0.29c0.62-0.59-0.3-1.37-1.27-1.08 c-20.98,6.22-37.59,7.07-48.23,0.58C324.37,408.93,323.15,409.51,323.5,410.21z" class="st2"/><path d="M505.67,443.04l1.4,4.24l0.71,2.11l0.36,1.05l0.28,1.08c1.57,5.73,2.88,11.5,3.77,17.34 c1.73,11.68,2.25,23.49,1.73,35.27c-0.38,11.78-1.74,23.54-3.52,35.23c-1.76,11.6-3.97,23.16-6.39,34.7 c-1.29,4.03-2.92,7.9-5.03,11.37c-2.13,3.5-4.72,6.62-7.76,8.91c-0.36,0.33-0.78,0.53-1.16,0.8c-0.4,0.24-0.77,0.53-1.18,0.74 c-0.83,0.39-1.62,0.88-2.47,1.14c-1.67,0.69-3.4,0.99-5.11,1.09c-1.71,0.13-3.39-0.2-4.98-0.71c-1.61-0.49-3.08-1.4-4.41-2.49 c-1.37-1.05-2.46-2.5-3.48-4c-0.45-0.8-0.96-1.56-1.3-2.45c-0.18-0.43-0.41-0.84-0.56-1.3l-0.45-1.36 c-1.17-3.67-1.5-7.76-1.23-11.9l0.32-3.12c0.12-1.04,0.36-2.08,0.52-3.12c0.15-1.05,0.46-2.06,0.7-3.08l0.38-1.53l0.48-1.67 c0.65-2.26,1.32-4.5,1.92-6.77l1.62-6.91c3.84-18.53,4.35-37.72,1.36-56.22c-2.93-18.53-9.24-36.28-17.73-52.66 c6.11,17.41,10.67,35.26,12.18,53.34c0.77,9.03,0.75,18.08,0.09,27.05c-0.67,8.97-2.22,17.84-4.34,26.54l-1.77,6.48 c-0.65,2.16-1.39,4.3-2.06,6.45l-0.51,1.63l-0.5,1.81c-0.32,1.21-0.71,2.41-0.92,3.63c-0.24,1.22-0.53,2.43-0.71,3.67 c-0.16,1.25-0.34,2.49-0.48,3.75c-0.46,5.03-0.15,10.3,1.37,15.45l0.61,1.92c0.21,0.64,0.51,1.26,0.77,1.89 c0.49,1.27,1.2,2.47,1.88,3.67c1.49,2.35,3.25,4.61,5.5,6.42c4.36,3.75,10.33,5.83,16.11,5.57c2.88-0.12,5.75-0.68,8.34-1.75 c1.34-0.45,2.54-1.15,3.78-1.78c0.61-0.33,1.16-0.73,1.74-1.09c0.56-0.39,1.17-0.72,1.68-1.17c4.3-3.29,7.67-7.42,10.24-11.82 c2.58-4.41,4.43-9.08,5.84-13.8l0.07-0.23l0.04-0.2c2.24-11.83,4.19-23.75,5.53-35.77c1.32-12.02,2.02-24.16,1.8-36.31 c-0.37-12.14-1.6-24.32-4.57-36.11l-0.52-2.21l-0.65-2.18l-1.3-4.36c-0.4-1.46-0.97-2.87-1.51-4.29l-1.62-4.24l-0.41-1.06 l-0.48-1.03l-0.96-2.06l-1.93-4.09c-1.42-2.66-2.95-5.25-4.45-7.84C503.42,437.52,504.62,440.25,505.67,443.04z" class="st3"/><path d="M207.07,448.75l1.1,0.29l2.19,0.57l3.89,0.99l0.49,0.12c2.96,0.59,5.93,1.07,8.88,1.56 c-2.86-0.94-5.73-1.76-8.55-2.71l-4.17-1.62l-2.08-0.79l-1.04-0.4l-1.01-0.47c-5.42-2.43-10.7-5.1-15.77-8.13 c-10.11-6.1-19.55-13.21-28.3-21.12c-8.84-7.8-17.05-16.32-24.94-25.14c-7.83-8.74-15.35-17.81-22.71-27.03 c-2.28-3.56-4.23-7.27-5.56-11.1c-1.35-3.87-2.1-7.85-1.93-11.65c-0.02-0.48,0.09-0.94,0.13-1.4c0.07-0.46,0.08-0.94,0.18-1.39 c0.23-0.88,0.35-1.81,0.69-2.63c0.53-1.73,1.4-3.26,2.41-4.63c0.99-1.4,2.31-2.49,3.72-3.39c1.41-0.93,3.04-1.48,4.73-1.82 c1.69-0.39,3.49-0.31,5.29-0.14c0.9,0.16,1.82,0.26,2.72,0.56c0.45,0.14,0.91,0.22,1.36,0.39l1.34,0.52 c3.58,1.44,6.94,3.79,9.96,6.63l2.2,2.23c0.73,0.75,1.38,1.6,2.08,2.39c0.72,0.79,1.29,1.66,1.93,2.5l0.94,1.27l0.98,1.43 c1.33,1.94,2.63,3.88,4,5.79l4.29,5.65c11.84,14.76,26.32,27.36,42.5,36.83c16.16,9.54,33.87,15.96,51.9,19.84 c-3.23-1.19-6.43-2.43-9.61-3.72c-3.1-1.26-6.16-2.58-9.2-3.96c-10.55-4.8-20.67-10.33-30.09-16.87 c-7.45-5.16-14.42-10.93-20.92-17.14c-6.5-6.23-12.35-13.06-17.71-20.25l-3.87-5.49c-1.25-1.87-2.43-3.81-3.67-5.7l-0.93-1.44 l-1.07-1.54c-0.73-1.02-1.41-2.08-2.21-3.02c-0.79-0.96-1.53-1.96-2.38-2.89c-0.86-0.92-1.71-1.85-2.59-2.75 c-3.59-3.56-7.85-6.67-12.79-8.77l-1.87-0.75c-0.62-0.25-1.3-0.4-1.95-0.61c-1.29-0.43-2.66-0.65-4.03-0.88 c-2.75-0.35-5.62-0.43-8.45,0.16c-5.67,0.97-11.07,4.26-14.55,8.88c-1.74,2.3-3.13,4.86-3.95,7.55c-0.51,1.33-0.73,2.69-1.03,4.04 c-0.14,0.68-0.18,1.36-0.26,2.04c-0.06,0.68-0.19,1.36-0.17,2.03c-0.2,5.42,0.84,10.64,2.6,15.42c1.76,4.79,4.18,9.19,6.92,13.29 l0.13,0.2l0.13,0.16c7.7,9.25,15.65,18.34,24.07,27.03c8.43,8.67,17.35,16.93,26.86,24.5c9.6,7.44,19.77,14.25,30.76,19.46 l2.04,1.01l2.1,0.89l4.19,1.77c1.38,0.62,2.83,1.07,4.27,1.56l2.02,0.68l2.28,0.77L207.07,448.75z" class="st3"/></g></g></svg>