<svg width="179" height="33" viewBox="0 0 179 33" fill="none" xmlns="http://www.w3.org/2000/svg">
<path d="M12.6445 26L11.4023 21.9219H5.15625L3.91406 26H0L6.04688 8.79688H10.4883L16.5586 26H12.6445ZM10.5352 18.875C9.38672 15.1797 8.73828 13.0898 8.58984 12.6055C8.44922 12.1211 8.34766 11.7383 8.28516 11.457C8.02734 12.457 7.28906 14.9297 6.07031 18.875H10.5352ZM30.5391 26H26.9648V18.3477C26.9648 17.4023 26.7969 16.6953 26.4609 16.2266C26.125 15.75 25.5898 15.5117 24.8555 15.5117C23.8555 15.5117 23.1328 15.8477 22.6875 16.5195C22.2422 17.1836 22.0195 18.2891 22.0195 19.8359V26H18.4453V12.8984H21.1758L21.6562 14.5742H21.8555C22.2539 13.9414 22.8008 13.4648 23.4961 13.1445C24.1992 12.8164 24.9961 12.6523 25.8867 12.6523C27.4102 12.6523 28.5664 13.0664 29.3555 13.8945C30.1445 14.7148 30.5391 15.9023 30.5391 17.457V26ZM46.3125 26H42.7383V18.3477C42.7383 17.4023 42.5703 16.6953 42.2344 16.2266C41.8984 15.75 41.3633 15.5117 40.6289 15.5117C39.6289 15.5117 38.9062 15.8477 38.4609 16.5195C38.0156 17.1836 37.793 18.2891 37.793 19.8359V26H34.2188V12.8984H36.9492L37.4297 14.5742H37.6289C38.0273 13.9414 38.5742 13.4648 39.2695 13.1445C39.9727 12.8164 40.7695 12.6523 41.6602 12.6523C43.1836 12.6523 44.3398 13.0664 45.1289 13.8945C45.918 14.7148 46.3125 15.9023 46.3125 17.457V26ZM58.3125 26L57.6211 24.2188H57.5273C56.9258 24.9766 56.3047 25.5039 55.6641 25.8008C55.0312 26.0898 54.2031 26.2344 53.1797 26.2344C51.9219 26.2344 50.9297 25.875 50.2031 25.1562C49.4844 24.4375 49.125 23.4141 49.125 22.0859C49.125 20.6953 49.6094 19.6719 50.5781 19.0156C51.5547 18.3516 53.0234 17.9844 54.9844 17.9141L57.2578 17.8438V17.2695C57.2578 15.9414 56.5781 15.2773 55.2188 15.2773C54.1719 15.2773 52.9414 15.5938 51.5273 16.2266L50.3438 13.8125C51.8516 13.0234 53.5234 12.6289 55.3594 12.6289C57.1172 12.6289 58.4648 13.0117 59.4023 13.7773C60.3398 14.543 60.8086 15.707 60.8086 17.2695V26H58.3125ZM57.2578 19.9297L55.875 19.9766C54.8359 20.0078 54.0625 20.1953 53.5547 20.5391C53.0469 20.8828 52.793 21.4062 52.793 22.1094C52.793 23.1172 53.3711 23.6211 54.5273 23.6211C55.3555 23.6211 56.0156 23.3828 56.5078 22.9062C57.0078 22.4297 57.2578 21.7969 57.2578 21.0078V19.9297ZM77.5195 16.3789H84.3164V25.2617C83.2148 25.6211 82.1758 25.8711 81.1992 26.0117C80.2305 26.1602 79.2383 26.2344 78.2227 26.2344C75.6367 26.2344 73.6602 25.4766 72.293 23.9609C70.9336 22.4375 70.2539 20.2539 70.2539 17.4102C70.2539 14.6445 71.043 12.4883 72.6211 10.9414C74.207 9.39453 76.4023 8.62109 79.207 8.62109C80.9648 8.62109 82.6602 8.97266 84.293 9.67578L83.0859 12.582C81.8359 11.957 80.5352 11.6445 79.1836 11.6445C77.6133 11.6445 76.3555 12.1719 75.4102 13.2266C74.4648 14.2812 73.9922 15.6992 73.9922 17.4805C73.9922 19.3398 74.3711 20.7617 75.1289 21.7461C75.8945 22.7227 77.0039 23.2109 78.457 23.2109C79.2148 23.2109 79.9844 23.1328 80.7656 22.9766V19.4023H77.5195V16.3789ZM87.9727 9.51172C87.9727 8.34766 88.6211 7.76562 89.918 7.76562C91.2148 7.76562 91.8633 8.34766 91.8633 9.51172C91.8633 10.0664 91.6992 10.5 91.3711 10.8125C91.0508 11.1172 90.5664 11.2695 89.918 11.2695C88.6211 11.2695 87.9727 10.6836 87.9727 9.51172ZM91.6992 26H88.125V12.8984H91.6992V26ZM107.555 26H103.98V18.3477C103.98 17.4023 103.812 16.6953 103.477 16.2266C103.141 15.75 102.605 15.5117 101.871 15.5117C100.871 15.5117 100.148 15.8477 99.7031 16.5195C99.2578 17.1836 99.0352 18.2891 99.0352 19.8359V26H95.4609V12.8984H98.1914L98.6719 14.5742H98.8711C99.2695 13.9414 99.8164 13.4648 100.512 13.1445C101.215 12.8164 102.012 12.6523 102.902 12.6523C104.426 12.6523 105.582 13.0664 106.371 13.8945C107.16 14.7148 107.555 15.9023 107.555 17.457V26ZM116.66 23.4336C117.621 23.4336 118.309 23.1602 118.723 22.6133C119.137 22.0586 119.344 21.1641 119.344 19.9297V19.4961C119.344 18.0977 119.125 17.0938 118.688 16.4844C118.258 15.8672 117.562 15.5586 116.602 15.5586C114.922 15.5586 114.082 16.8789 114.082 19.5195C114.082 20.832 114.289 21.8125 114.703 22.4609C115.125 23.1094 115.777 23.4336 116.66 23.4336ZM122.684 26.0234C122.684 27.9062 122.133 29.332 121.031 30.3008C119.938 31.2773 118.305 31.7656 116.133 31.7656C114.219 31.7656 112.586 31.5078 111.234 30.9922V28.1328C112.82 28.8047 114.523 29.1406 116.344 29.1406C118.18 29.1406 119.098 28.1484 119.098 26.1641V25.9062L119.203 24.3008H119.098C118.262 25.5898 117.023 26.2344 115.383 26.2344C113.812 26.2344 112.594 25.6289 111.727 24.418C110.867 23.207 110.438 21.5586 110.438 19.4727C110.438 17.3242 110.883 15.6523 111.773 14.457C112.672 13.2539 113.906 12.6523 115.477 12.6523C117.086 12.6523 118.352 13.293 119.273 14.5742H119.367L119.66 12.8984H122.684V26.0234ZM129.996 26H126.422V7.76562H129.996V26ZM139.184 15.1953C138.426 15.1953 137.832 15.4375 137.402 15.9219C136.973 16.3984 136.727 17.0781 136.664 17.9609H141.68C141.664 17.0781 141.434 16.3984 140.988 15.9219C140.543 15.4375 139.941 15.1953 139.184 15.1953ZM139.688 26.2344C137.578 26.2344 135.93 25.6523 134.742 24.4883C133.555 23.3242 132.961 21.6758 132.961 19.543C132.961 17.3477 133.508 15.6523 134.602 14.457C135.703 13.2539 137.223 12.6523 139.16 12.6523C141.012 12.6523 142.453 13.1797 143.484 14.2344C144.516 15.2891 145.031 16.7461 145.031 18.6055V20.3398H136.582C136.621 21.3555 136.922 22.1484 137.484 22.7188C138.047 23.2891 138.836 23.5742 139.852 23.5742C140.641 23.5742 141.387 23.4922 142.09 23.3281C142.793 23.1641 143.527 22.9023 144.293 22.543V25.3086C143.668 25.6211 143 25.8516 142.289 26C141.578 26.1562 140.711 26.2344 139.688 26.2344Z" fill="black"/>
<g clip-path="url(#clip0_2_15)">
<path d="M163.251 28.9766L161.752 27.478C161.752 26.6351 161.389 25.4449 160.663 23.9073C159.937 22.3698 159.052 21.0859 158.006 20.0556L157.491 19.5405C156.101 18.1512 155.294 16.4888 155.067 14.5532C154.841 12.6176 155.212 10.838 156.179 9.21463C155.836 9.01171 155.555 8.73854 155.336 8.39512C155.118 8.05171 155.009 7.66927 155.009 7.2478C155.009 6.63902 155.231 6.1122 155.676 5.66732C156.121 5.22244 156.648 5 157.256 5C157.678 5 158.064 5.10927 158.415 5.3278C158.767 5.54634 159.036 5.83512 159.223 6.19415C160.847 5.22634 162.626 4.85951 164.562 5.09366C166.497 5.3278 168.152 6.13171 169.526 7.50537L170.041 8.02049C171.071 9.05073 172.363 9.92878 173.916 10.6546C175.469 11.3805 176.659 11.7434 177.487 11.7434L178.985 13.242C178.985 15.2556 178.548 17.2302 177.674 19.1659C176.8 21.1015 175.649 22.7834 174.22 24.2117C172.792 25.64 171.11 26.7912 169.175 27.6654C167.239 28.5395 165.264 28.9766 163.251 28.9766ZM176.386 14.3424C175.902 13.8898 175.087 13.8741 173.939 14.2956C172.792 14.7171 171.532 15.482 170.158 16.5902C170.564 16.8244 170.888 17.1405 171.13 17.5385C171.372 17.9366 171.493 18.3776 171.493 18.8615C171.493 19.5951 171.239 20.2156 170.732 20.7229C170.224 21.2302 169.604 21.4839 168.87 21.4839C168.386 21.4839 167.945 21.3629 167.547 21.121C167.149 20.879 166.833 20.5551 166.599 20.1493C165.491 21.5229 164.726 22.7834 164.304 23.9307C163.883 25.078 163.898 25.8937 164.351 26.3776C164.929 26.9551 166.006 26.8615 167.582 26.0966C169.159 25.3317 170.782 24.1141 172.453 22.4439C174.123 20.7737 175.34 19.1502 176.105 17.5737C176.87 15.9971 176.964 14.92 176.386 14.3424Z" fill="black"/>
</g>
<defs>
<clipPath id="clip0_2_15">
<rect width="24" height="23.9766" fill="white" transform="translate(155 5)"/>
</clipPath>
</defs>
</svg>
