<svg width="1673" height="110" viewBox="0 0 1673 110" fill="none" xmlns="http://www.w3.org/2000/svg">
<rect width="1673" height="110" fill="white"/>
<path d="M73.08 22.56V78H57.96V55.824L58.296 37.932H58.128L45.948 78H32.172L20.16 37.932H19.908L20.244 55.824V78H5.124V22.56H29.316L36.792 48.852L39.564 59.856H39.732L42.504 48.852L49.98 22.56H73.08ZM105.228 51.54C105.228 49.972 104.808 48.74 103.968 47.844C103.184 46.892 102.008 46.416 100.44 46.416C98.9837 46.416 97.7237 46.808 96.6597 47.592C95.6517 48.376 95.0077 49.86 94.7277 52.044L80.3637 49.44C80.9237 45.072 82.9677 41.6 86.4957 39.024C90.0237 36.448 95.0637 35.16 101.616 35.16C106.096 35.16 109.848 35.804 112.872 37.092C115.952 38.324 118.248 40.144 119.76 42.552C121.328 44.96 122.112 47.844 122.112 51.204V65.316C122.112 67.556 123.12 68.676 125.136 68.676C125.976 68.676 126.62 68.564 127.068 68.34L126.228 77.496C124.38 78.392 122.084 78.84 119.34 78.84C116.932 78.84 114.804 78.476 112.956 77.748C111.108 76.964 109.652 75.844 108.588 74.388C107.524 72.932 106.992 71.028 106.992 68.676V68.004L108.672 67.752C108.672 69.992 107.972 71.952 106.572 73.632C105.228 75.312 103.436 76.6 101.196 77.496C99.0117 78.392 96.5757 78.84 93.8877 78.84C90.9757 78.84 88.4837 78.392 86.4117 77.496C84.3397 76.6 82.7437 75.312 81.6237 73.632C80.5597 71.952 80.0277 69.908 80.0277 67.5C80.0277 64.42 80.9517 61.9 82.7997 59.94C84.7037 57.98 87.5597 56.636 91.3677 55.908L106.572 52.716L106.488 59.856L100.272 61.284C98.8717 61.564 97.8357 62.04 97.1637 62.712C96.5477 63.328 96.2397 64.196 96.2397 65.316C96.2397 66.38 96.6037 67.22 97.3317 67.836C98.0597 68.396 98.9557 68.676 100.02 68.676C100.748 68.676 101.42 68.564 102.036 68.34C102.652 68.116 103.184 67.78 103.632 67.332C104.136 66.884 104.528 66.324 104.808 65.652C105.088 64.98 105.228 64.168 105.228 63.216V51.54ZM139.666 32.304C136.306 32.304 133.87 31.716 132.358 30.54C130.902 29.364 130.174 27.46 130.174 24.828C130.174 22.14 130.902 20.208 132.358 19.032C133.87 17.856 136.306 17.268 139.666 17.268C143.026 17.268 145.434 17.856 146.89 19.032C148.402 20.208 149.158 22.14 149.158 24.828C149.158 27.46 148.402 29.364 146.89 30.54C145.434 31.716 143.026 32.304 139.666 32.304ZM148.15 36V78H131.182V36H148.15ZM156.366 78V36H171.654L172.41 52.212L170.646 50.364C171.094 47.116 172.018 44.372 173.418 42.132C174.818 39.836 176.61 38.1 178.794 36.924C181.034 35.748 183.61 35.16 186.522 35.16C189.378 35.16 191.814 35.72 193.83 36.84C195.902 37.904 197.498 39.528 198.618 41.712C199.738 43.84 200.298 46.472 200.298 49.608V78H183.33V53.976C183.33 51.624 182.938 50.028 182.154 49.188C181.426 48.292 180.362 47.844 178.962 47.844C177.898 47.844 176.918 48.124 176.022 48.684C175.182 49.188 174.51 50.028 174.006 51.204C173.558 52.38 173.334 53.92 173.334 55.824V78H156.366ZM244.71 78.84C241.854 78.84 239.362 78.364 237.234 77.412C235.162 76.404 233.538 74.836 232.362 72.708C231.242 70.524 230.682 67.696 230.682 64.224V36H247.65V60.276C247.65 62.404 248.042 63.916 248.826 64.812C249.61 65.708 250.758 66.156 252.27 66.156C253.054 66.156 253.782 66.016 254.454 65.736C255.126 65.4 255.686 64.924 256.134 64.308C256.638 63.692 257.002 62.88 257.226 61.872C257.506 60.864 257.646 59.688 257.646 58.344V36H274.614V78H259.41L258.99 69.6C257.702 72.68 255.854 75.004 253.446 76.572C251.038 78.084 248.126 78.84 244.71 78.84ZM301.422 78.84C297.278 78.84 293.358 78.224 289.662 76.992C285.966 75.76 282.802 73.94 280.17 71.532L286.974 62.544C288.486 64.056 290.418 65.372 292.77 66.492C295.178 67.612 297.698 68.172 300.33 68.172C301.674 68.172 302.794 68.004 303.69 67.668C304.642 67.332 305.118 66.744 305.118 65.904C305.118 65.344 304.866 64.896 304.362 64.56C303.914 64.168 302.934 63.832 301.422 63.552L297.054 62.712C291.342 61.592 287.282 59.968 284.874 57.84C282.522 55.656 281.346 52.8 281.346 49.272C281.346 46.976 282.046 44.764 283.446 42.636C284.902 40.452 287.17 38.66 290.25 37.26C293.386 35.86 297.418 35.16 302.346 35.16C306.658 35.16 310.494 35.748 313.854 36.924C317.27 38.044 319.986 39.668 322.002 41.796L315.366 50.532C313.854 49.076 311.95 47.928 309.654 47.088C307.358 46.248 305.174 45.828 303.102 45.828C302.038 45.828 301.142 45.912 300.414 46.08C299.686 46.248 299.126 46.5 298.734 46.836C298.398 47.116 298.23 47.508 298.23 48.012C298.23 48.572 298.538 49.076 299.154 49.524C299.826 49.916 301.03 50.28 302.766 50.616L309.486 51.792C313.91 52.576 317.13 54.032 319.146 56.16C321.162 58.288 322.17 60.892 322.17 63.972C322.17 66.716 321.442 69.208 319.986 71.448C318.53 73.688 316.262 75.48 313.182 76.824C310.158 78.168 306.238 78.84 301.422 78.84ZM349.069 78.84C344.253 78.84 340.081 78 336.553 76.32C333.081 74.584 330.393 72.092 328.489 68.844C326.641 65.596 325.717 61.648 325.717 57C325.717 52.352 326.669 48.404 328.573 45.156C330.477 41.908 333.137 39.444 336.553 37.764C339.969 36.028 343.917 35.16 348.397 35.16C352.989 35.16 356.881 36.028 360.073 37.764C363.321 39.444 365.785 41.796 367.465 44.82C369.201 47.844 370.069 51.372 370.069 55.404C370.069 56.356 370.013 57.308 369.901 58.26C369.845 59.212 369.761 60.024 369.649 60.696H336.637V53.304H362.257L354.193 56.412C354.193 53.22 353.745 50.812 352.849 49.188C352.009 47.508 350.525 46.668 348.397 46.668C346.941 46.668 345.709 47.004 344.701 47.676C343.749 48.348 343.021 49.468 342.517 51.036C342.069 52.604 341.845 54.676 341.845 57.252C341.845 59.828 342.125 61.872 342.685 63.384C343.301 64.84 344.141 65.848 345.205 66.408C346.269 66.968 347.613 67.248 349.237 67.248C351.029 67.248 352.429 66.884 353.437 66.156C354.445 65.428 355.173 64.42 355.621 63.132L369.229 67.164C368.557 69.74 367.185 71.896 365.113 73.632C363.097 75.368 360.689 76.684 357.889 77.58C355.089 78.42 352.149 78.84 349.069 78.84ZM376.292 78V36H391.496L392 45.828C392.952 42.524 394.436 39.92 396.452 38.016C398.524 36.112 401.212 35.16 404.516 35.16C405.692 35.16 406.644 35.272 407.372 35.496C408.1 35.664 408.632 35.888 408.968 36.168L407.456 49.944C406.896 49.72 406.168 49.524 405.272 49.356C404.376 49.188 403.34 49.104 402.164 49.104C400.484 49.104 398.972 49.412 397.628 50.028C396.284 50.644 395.22 51.568 394.436 52.8C393.652 53.976 393.26 55.488 393.26 57.336V78H376.292ZM434.288 78V36H449.576L450.332 52.212L448.568 50.364C449.016 47.116 449.94 44.372 451.34 42.132C452.74 39.836 454.532 38.1 456.716 36.924C458.956 35.748 461.532 35.16 464.444 35.16C467.3 35.16 469.736 35.72 471.752 36.84C473.824 37.904 475.42 39.528 476.54 41.712C477.66 43.84 478.22 46.472 478.22 49.608V78H461.252V53.976C461.252 51.624 460.86 50.028 460.076 49.188C459.348 48.292 458.284 47.844 456.884 47.844C455.82 47.844 454.84 48.124 453.944 48.684C453.104 49.188 452.432 50.028 451.928 51.204C451.48 52.38 451.256 53.92 451.256 55.824V78H434.288ZM507.882 78.84C503.066 78.84 498.894 78 495.366 76.32C491.894 74.584 489.206 72.092 487.302 68.844C485.454 65.596 484.53 61.648 484.53 57C484.53 52.352 485.482 48.404 487.386 45.156C489.29 41.908 491.95 39.444 495.366 37.764C498.782 36.028 502.73 35.16 507.21 35.16C511.802 35.16 515.694 36.028 518.886 37.764C522.134 39.444 524.598 41.796 526.278 44.82C528.014 47.844 528.882 51.372 528.882 55.404C528.882 56.356 528.826 57.308 528.714 58.26C528.658 59.212 528.574 60.024 528.462 60.696H495.45V53.304H521.07L513.006 56.412C513.006 53.22 512.558 50.812 511.662 49.188C510.822 47.508 509.338 46.668 507.21 46.668C505.754 46.668 504.522 47.004 503.514 47.676C502.562 48.348 501.834 49.468 501.33 51.036C500.882 52.604 500.658 54.676 500.658 57.252C500.658 59.828 500.938 61.872 501.498 63.384C502.114 64.84 502.954 65.848 504.018 66.408C505.082 66.968 506.426 67.248 508.05 67.248C509.842 67.248 511.242 66.884 512.25 66.156C513.258 65.428 513.986 64.42 514.434 63.132L528.042 67.164C527.37 69.74 525.998 71.896 523.926 73.632C521.91 75.368 519.502 76.684 516.702 77.58C513.902 78.42 510.962 78.84 507.882 78.84ZM556.608 78.84C551.792 78.84 547.62 78 544.092 76.32C540.62 74.584 537.932 72.092 536.028 68.844C534.18 65.596 533.256 61.648 533.256 57C533.256 52.352 534.208 48.404 536.112 45.156C538.016 41.908 540.676 39.444 544.092 37.764C547.508 36.028 551.456 35.16 555.936 35.16C560.528 35.16 564.42 36.028 567.612 37.764C570.86 39.444 573.324 41.796 575.004 44.82C576.74 47.844 577.608 51.372 577.608 55.404C577.608 56.356 577.552 57.308 577.44 58.26C577.384 59.212 577.3 60.024 577.188 60.696H544.176V53.304H569.796L561.732 56.412C561.732 53.22 561.284 50.812 560.388 49.188C559.548 47.508 558.064 46.668 555.936 46.668C554.48 46.668 553.248 47.004 552.24 47.676C551.288 48.348 550.56 49.468 550.056 51.036C549.608 52.604 549.384 54.676 549.384 57.252C549.384 59.828 549.664 61.872 550.224 63.384C550.84 64.84 551.68 65.848 552.744 66.408C553.808 66.968 555.152 67.248 556.776 67.248C558.568 67.248 559.968 66.884 560.976 66.156C561.984 65.428 562.712 64.42 563.16 63.132L576.768 67.164C576.096 69.74 574.724 71.896 572.652 73.632C570.636 75.368 568.228 76.684 565.428 77.58C562.628 78.42 559.688 78.84 556.608 78.84ZM598.951 78.84C595.535 78.84 592.567 78 590.047 76.32C587.583 74.584 585.679 72.092 584.335 68.844C583.047 65.596 582.403 61.704 582.403 57.168C582.403 52.52 583.075 48.572 584.419 45.324C585.763 42.02 587.695 39.5 590.215 37.764C592.791 36.028 595.787 35.16 599.203 35.16C603.179 35.16 606.287 36.42 608.527 38.94C610.767 41.404 612.195 44.568 612.811 48.432L611.299 50.532V18.696H628.267V78H612.979L611.971 62.292L613.903 64.224C613.567 67.08 612.727 69.628 611.383 71.868C610.095 74.052 608.387 75.76 606.259 76.992C604.187 78.224 601.751 78.84 598.951 78.84ZM605.503 66.744C606.735 66.744 607.771 66.38 608.611 65.652C609.451 64.924 610.095 63.832 610.543 62.376C611.047 60.92 611.299 59.1 611.299 56.916C611.299 54.844 611.075 53.108 610.627 51.708C610.235 50.252 609.591 49.16 608.695 48.432C607.855 47.704 606.791 47.34 605.503 47.34C603.655 47.34 602.171 48.068 601.051 49.524C599.987 50.924 599.455 53.416 599.455 57C599.455 60.584 599.987 63.104 601.051 64.56C602.115 66.016 603.599 66.744 605.503 66.744ZM655.059 78.84C650.915 78.84 646.995 78.224 643.299 76.992C639.603 75.76 636.439 73.94 633.807 71.532L640.611 62.544C642.123 64.056 644.055 65.372 646.407 66.492C648.815 67.612 651.335 68.172 653.967 68.172C655.311 68.172 656.431 68.004 657.327 67.668C658.279 67.332 658.755 66.744 658.755 65.904C658.755 65.344 658.503 64.896 657.999 64.56C657.551 64.168 656.571 63.832 655.059 63.552L650.691 62.712C644.979 61.592 640.919 59.968 638.511 57.84C636.159 55.656 634.983 52.8 634.983 49.272C634.983 46.976 635.683 44.764 637.083 42.636C638.539 40.452 640.807 38.66 643.887 37.26C647.023 35.86 651.055 35.16 655.983 35.16C660.295 35.16 664.131 35.748 667.491 36.924C670.907 38.044 673.623 39.668 675.639 41.796L669.003 50.532C667.491 49.076 665.587 47.928 663.291 47.088C660.995 46.248 658.811 45.828 656.739 45.828C655.675 45.828 654.779 45.912 654.051 46.08C653.323 46.248 652.763 46.5 652.371 46.836C652.035 47.116 651.867 47.508 651.867 48.012C651.867 48.572 652.175 49.076 652.791 49.524C653.463 49.916 654.667 50.28 656.403 50.616L663.123 51.792C667.547 52.576 670.767 54.032 672.783 56.16C674.799 58.288 675.807 60.892 675.807 63.972C675.807 66.716 675.079 69.208 673.623 71.448C672.167 73.688 669.899 75.48 666.819 76.824C663.795 78.168 659.875 78.84 655.059 78.84Z" fill="#3D4551"/>
</svg>
